<?xml version="1.0" standalone="no"?>
<!DOCTYPE svg PUBLIC "-//W3C//DTD SVG 20010904//EN"
 "http://www.w3.org/TR/2001/REC-SVG-20010904/DTD/svg10.dtd">
<svg version="1.0" xmlns="http://www.w3.org/2000/svg"
 width="773.000000pt" height="1000.000000pt" viewBox="0 0 773.000000 1000.000000"
 preserveAspectRatio="xMidYMid meet">

<g transform="translate(0.000000,1000.000000) scale(0.100000,-0.100000)"
fill="#000000" stroke="none">
<path d="M4510 8745 c-1 -5 -2 -19 -1 -30 1 -13 -10 -26 -29 -37 -26 -15 -31
-23 -28 -50 2 -23 10 -36 28 -45 14 -7 28 -23 32 -35 6 -21 6 -21 7 5 1 17 7
27 16 27 8 0 22 11 31 25 20 31 8 69 -25 80 -13 4 -21 17 -24 38 -2 18 -5 28
-7 22z m49 -94 c11 -21 -4 -61 -24 -61 -11 0 -15 11 -15 45 0 36 3 43 15 39 9
-4 19 -14 24 -23z m-49 -22 c0 -36 -2 -40 -22 -37 -40 5 -37 78 2 78 17 0 20
-6 20 -41z"/>
<path d="M5562 8703 c-29 -43 -36 -61 -10 -28 l23 30 6 -45 6 -45 1 58 c1 31
0 57 -2 57 -3 0 -13 -12 -24 -27z"/>
<path d="M5303 8680 c-15 -22 -31 -40 -35 -40 -4 0 -9 17 -11 38 -3 30 -4 28
-5 -15 -1 -29 1 -53 6 -53 4 0 21 19 37 43 l30 42 6 -45 6 -45 1 58 c1 31 0
57 -2 57 -3 0 -17 -18 -33 -40z"/>
<path d="M5392 8695 c0 -16 2 -22 5 -12 2 9 2 23 0 30 -3 6 -5 -1 -5 -18z"/>
<path d="M5432 8697 l-22 -24 21 -26 c11 -15 25 -27 30 -27 5 0 0 9 -11 20
-24 24 -25 38 -3 62 24 27 10 22 -15 -5z"/>
<path d="M5500 8688 c0 -35 12 -30 17 7 2 14 -1 25 -7 25 -5 0 -10 -14 -10
-32z"/>
<path d="M5046 8702 c-3 -5 5 -8 17 -8 34 1 34 -32 0 -36 -22 -2 -28 -8 -28
-28 0 -17 6 -26 20 -28 18 -2 18 -2 3 8 -27 17 -22 40 8 40 21 0 25 -4 21 -20
-3 -11 -1 -23 4 -26 6 -4 9 15 7 48 -3 46 -6 53 -25 56 -11 2 -24 -1 -27 -6z"/>
<path d="M5147 8703 c19 -4 23 -12 26 -56 l3 -52 2 52 c2 45 5 52 25 56 12 2
0 4 -28 4 -27 0 -40 -2 -28 -4z"/>
<path d="M3430 8692 c0 -6 5 -14 10 -17 14 -9 50 4 50 17 0 6 -6 6 -15 -2 -12
-10 -18 -10 -30 0 -9 8 -15 9 -15 2z"/>
<path d="M4753 8620 c0 -47 3 -73 5 -57 3 22 8 27 32 27 18 0 34 8 44 22 21
29 20 41 -3 69 -16 20 -22 22 -44 12 -20 -9 -27 -9 -31 0 -2 7 -4 -26 -3 -73z
m66 61 c7 -5 14 -21 14 -36 0 -31 -18 -46 -48 -43 -27 4 -34 57 -9 75 21 15
24 16 43 4z"/>
<path d="M4890 8693 c0 -7 11 -23 25 -37 l25 -25 18 27 17 26 6 -44 6 -45 1
55 1 55 -25 -29 -26 -29 -24 29 c-13 16 -23 24 -24 17z"/>
<path d="M4626 8674 c-31 -31 -7 -94 36 -94 37 0 64 70 36 98 -17 17 -54 15
-72 -4z m62 -6 c34 -34 -6 -90 -48 -68 -35 19 -20 80 20 80 9 0 21 -5 28 -12z"/>
<path d="M850 8613 c1 -68 1 -68 40 -95 22 -15 42 -38 46 -52 6 -27 34 -44 34
-21 0 7 -4 17 -10 20 -5 3 -10 42 -10 86 0 46 4 79 10 79 16 0 12 27 -5 34 -9
3 -15 0 -15 -9 0 -19 -3 -19 -50 5 l-40 20 0 -67z m55 10 c33 -16 35 -20 35
-65 l0 -49 -40 33 c-31 26 -40 40 -40 66 0 37 -1 37 45 15z"/>
<path d="M2730 8669 c0 -6 21 -8 63 -4 83 9 85 15 4 15 -40 0 -67 -4 -67 -11z"/>
<path d="M3001 8667 c16 -18 49 -14 49 5 0 6 -6 5 -15 -2 -12 -10 -18 -10 -32
1 -17 12 -17 12 -2 -4z"/>
<path d="M4323 8625 c0 -33 2 -48 4 -32 4 23 9 27 38 27 29 0 34 -4 38 -27 2
-16 4 -1 4 32 0 33 -2 48 -4 33 -4 -24 -9 -28 -38 -28 -29 0 -34 4 -38 28 -2
15 -4 0 -4 -33z"/>
<path d="M4051 8644 c-27 -34 -26 -36 6 -65 l27 -24 -21 30 c-21 30 -21 30 -1
57 25 36 16 37 -11 2z"/>
<path d="M4182 8616 c-2 -51 0 -57 13 -46 8 7 25 29 37 49 l23 36 6 -45 6 -45
1 53 c1 28 -2 52 -6 52 -4 0 -19 -18 -32 -40 -14 -22 -28 -40 -32 -40 -4 0 -9
19 -11 43 -3 36 -4 33 -5 -17z"/>
<path d="M3740 8650 c-11 -7 -7 -10 18 -10 33 0 40 -8 21 -27 -8 -8 -8 -13 0
-17 25 -16 11 -36 -26 -36 -30 -1 -34 -3 -21 -10 11 -7 25 -7 42 0 23 8 25 14
23 50 -3 51 -26 70 -57 50z"/>
<path d="M3842 8608 c-1 -54 0 -58 22 -58 13 0 31 9 41 20 15 16 15 22 5 35
-7 8 -21 15 -32 15 -10 0 -22 10 -27 23 -6 16 -9 8 -9 -35z m58 -18 c0 -24
-26 -38 -42 -22 -16 16 -2 42 22 42 13 0 20 -7 20 -20z"/>
<path d="M3944 8610 c0 -27 4 -50 8 -50 4 0 8 23 8 50 0 28 -4 50 -8 50 -4 0
-8 -22 -8 -50z"/>
<path d="M4003 8610 c0 -30 2 -43 4 -27 2 15 2 39 0 55 -2 15 -4 2 -4 -28z"/>
<path d="M5392 8640 c0 -14 2 -19 5 -12 2 6 2 18 0 25 -3 6 -5 1 -5 -13z"/>
<path d="M2780 8580 c0 -38 4 -70 8 -70 5 0 10 32 11 70 1 44 -2 70 -8 70 -7
0 -11 -28 -11 -70z"/>
<path d="M3619 8634 c-10 -13 -10 -20 0 -36 9 -15 9 -23 0 -34 -6 -8 -9 -17
-6 -20 3 -3 10 4 17 15 14 28 38 27 43 -1 2 -13 5 3 6 35 1 54 0 57 -23 57
-13 0 -29 -7 -37 -16z m51 -19 c0 -18 -5 -25 -19 -25 -11 0 -23 5 -26 10 -11
18 3 40 25 40 15 0 20 -7 20 -25z"/>
<path d="M4892 8625 c0 -16 2 -22 5 -12 2 9 2 23 0 30 -3 6 -5 -1 -5 -18z"/>
<path d="M5503 8635 c0 -8 4 -15 9 -15 4 0 8 7 8 15 0 8 -4 15 -8 15 -5 0 -9
-7 -9 -15z"/>
<path d="M3351 8585 c1 -30 6 -55 11 -55 4 0 8 25 8 55 0 31 -4 55 -10 55 -6
0 -10 -23 -9 -55z"/>
<path d="M3413 8600 c0 -25 2 -35 4 -22 2 12 2 32 0 45 -2 12 -4 2 -4 -23z"/>
<path d="M3459 8595 c-18 -25 -36 -45 -41 -45 -4 0 -8 -4 -8 -10 0 -21 16 -8
45 35 17 25 35 43 41 41 6 -2 11 2 11 10 0 25 -15 15 -48 -31z"/>
<path d="M3123 8575 c0 -33 2 -48 4 -32 4 23 9 27 38 27 29 0 34 -4 38 -27 2
-16 4 -1 4 32 0 33 -2 48 -4 33 -4 -24 -9 -28 -38 -28 -29 0 -34 4 -38 28 -2
15 -4 0 -4 -33z"/>
<path d="M3250 8580 c0 -49 1 -50 30 -50 34 0 53 25 39 52 -6 10 -21 18 -35
18 -19 0 -25 4 -20 15 3 8 1 15 -4 15 -6 0 -10 -22 -10 -50z m58 -12 c-4 -29
-34 -36 -41 -9 -6 24 0 31 25 31 14 0 19 -6 16 -22z"/>
<path d="M2866 8612 c-2 -4 8 -8 22 -7 24 0 27 -4 29 -37 2 -30 -2 -38 -18
-43 -32 -10 -49 13 -24 32 l20 15 -20 -4 c-14 -2 -20 -11 -20 -28 0 -22 4 -25
38 -25 37 -1 37 0 37 40 0 23 -5 46 -12 53 -14 14 -44 16 -52 4z"/>
<path d="M2971 8573 c1 -27 4 -52 6 -56 3 -4 21 14 41 40 l37 48 6 -45 6 -45
1 53 c1 28 -2 52 -8 52 -5 0 -22 -18 -36 -40 -15 -22 -30 -40 -34 -40 -5 0 -6
18 -3 40 4 28 2 40 -6 40 -9 0 -12 -16 -10 -47z"/>
<path d="M3490 8590 c0 -5 5 -10 10 -10 6 0 10 5 10 10 0 6 -4 10 -10 10 -5 0
-10 -4 -10 -10z"/>
<path d="M3497 8563 c-10 -9 -9 -23 1 -23 5 0 9 7 9 15 0 17 -1 18 -10 8z"/>
<path d="M860 7671 c-15 -29 -12 -115 6 -161 34 -86 84 -63 84 38 0 102 -58
182 -90 123z m55 -31 c26 -29 33 -121 10 -140 -15 -13 -20 -11 -41 13 -36 42
-31 147 6 147 4 0 15 -9 25 -20z"/>
<path d="M851 6683 c-1 -11 36 -103 45 -112 9 -9 54 43 54 63 -1 19 -3 19 -26
-8 -14 -15 -27 -27 -29 -24 -2 2 -13 24 -24 48 -11 25 -20 40 -20 33z"/>
<path d="M850 6562 c0 -10 20 -29 45 -45 53 -31 55 -32 55 -13 0 7 -22 27 -50
44 -42 26 -50 28 -50 14z"/>
<path d="M5305 6221 l-50 -6 -3 -55 c-4 -72 -29 -159 -47 -167 -21 -7 -21 -83
0 -83 9 0 15 9 15 24 0 21 6 24 53 30 28 3 69 6 90 6 33 0 37 -3 37 -25 0 -16
6 -25 15 -25 11 0 15 12 15 45 0 38 -3 45 -17 43 -16 -3 -18 8 -18 110 1 126
11 115 -90 103z m55 -126 l0 -95 -39 0 c-22 0 -47 -3 -57 -7 -14 -5 -16 -3 -9
13 7 19 18 71 30 147 6 34 8 37 40 37 l35 0 0 -95z"/>
<path d="M4133 6140 c-44 -10 -63 -27 -85 -77 -16 -35 -17 -49 -7 -92 7 -35
18 -57 34 -67 36 -23 87 -28 128 -11 97 41 105 204 12 243 -38 15 -36 15 -82
4z m-44 -52 l-12 -21 28 21 c77 61 170 -18 132 -111 -20 -46 -58 -71 -98 -63
-22 4 -28 2 -23 -7 4 -7 3 -8 -2 -4 -5 5 -8 12 -7 15 1 4 -6 15 -15 26 -12 12
-17 35 -16 72 0 30 -4 54 -8 54 -4 0 0 9 9 20 23 26 27 25 12 -2z m178 -80
c-3 -7 -5 -2 -5 12 0 14 2 19 5 13 2 -7 2 -19 0 -25z"/>
<path d="M3011 6009 c-24 -34 -44 -67 -44 -74 0 -7 19 -38 44 -69 31 -39 51
-56 67 -56 27 0 25 5 -34 75 -43 51 -50 84 -24 108 12 10 12 9 1 -5 -29 -38
-2 -15 38 32 39 47 41 50 19 50 -16 -1 -35 -18 -67 -61z m10 -116 c13 -16 12
-17 -3 -4 -10 7 -18 15 -18 17 0 8 8 3 21 -13z"/>
<path d="M2910 5930 c0 -123 1 -130 20 -130 19 0 20 7 20 130 0 123 -1 130
-20 130 -19 0 -20 -7 -20 -130z"/>
<path d="M862 5990 c0 -14 2 -19 5 -12 2 6 2 18 0 25 -3 6 -5 1 -5 -13z"/>
<path d="M820 5941 c0 -34 15 -49 24 -25 5 14 -9 54 -19 54 -3 0 -5 -13 -5
-29z"/>
<path d="M886 5922 c-8 -14 3 -62 15 -62 11 0 11 41 0 59 -6 9 -11 10 -15 3z"/>
<path d="M862 5895 c0 -16 2 -22 5 -12 2 9 2 23 0 30 -3 6 -5 -1 -5 -18z"/>
<path d="M961 5844 c0 -11 3 -14 6 -6 3 7 2 16 -1 19 -3 4 -6 -2 -5 -13z"/>
<path d="M5439 5830 c-22 -13 -32 -56 -19 -80 16 -30 65 -27 87 6 15 24 15 29
2 53 -16 28 -44 37 -70 21z"/>
<path d="M822 5800 c2 -19 8 -34 13 -33 17 3 17 27 0 48 -15 19 -15 18 -13
-15z"/>
<path d="M5196 5798 c-21 -30 -20 -51 3 -72 44 -40 108 13 83 68 -15 34 -64
36 -86 4z"/>
<path d="M890 5750 c0 -5 5 -10 10 -10 6 0 10 5 10 10 0 6 -4 10 -10 10 -5 0
-10 -4 -10 -10z"/>
<path d="M4030 5720 c-11 -11 -20 -31 -20 -43 0 -27 28 -57 53 -57 18 0 57 46
57 66 0 19 -36 54 -55 54 -8 0 -24 -9 -35 -20z"/>
<path d="M961 5704 c0 -11 3 -14 6 -6 3 7 2 16 -1 19 -3 4 -6 -2 -5 -13z"/>
<path d="M4277 5707 c-8 -20 9 -41 27 -34 23 9 21 47 -3 47 -10 0 -21 -6 -24
-13z"/>
<path d="M5570 5685 c-18 -22 -8 -50 19 -50 28 0 47 25 38 49 -8 20 -40 21
-57 1z"/>
<path d="M5411 5676 c-21 -26 -9 -51 24 -51 27 0 30 3 30 30 0 23 -5 31 -21
33 -11 2 -26 -4 -33 -12z"/>
<path d="M5185 5648 c-55 -5 -102 -11 -104 -14 -13 -12 18 -15 118 -8 83 5
111 10 111 20 0 8 -6 13 -12 13 -7 -1 -58 -6 -113 -11z"/>
<path d="M2847 5632 c-34 -37 -8 -102 40 -102 19 0 53 41 53 65 0 47 -62 72
-93 37z"/>
<path d="M3117 5633 c-11 -10 -8 -41 4 -49 16 -9 41 20 33 39 -6 17 -25 22
-37 10z"/>
<path d="M4605 5604 c-5 -1 -54 -6 -107 -9 -57 -4 -98 -11 -98 -17 0 -7 35 -8
108 -4 59 4 109 9 111 11 6 7 -4 22 -14 19z"/>
<path d="M5426 5568 c-21 -29 -20 -41 2 -68 39 -48 110 8 84 65 -15 33 -64 35
-86 3z"/>
<path d="M4175 5573 c-77 -5 -115 -13 -115 -24 0 -10 34 -9 188 7 28 3 52 10
52 15 0 9 -18 9 -125 2z"/>
<path d="M3843 5547 c-64 -5 -113 -14 -113 -19 0 -12 220 -1 233 12 16 14 -7
16 -120 7z"/>
<path d="M5214 5525 c-4 -9 -2 -21 4 -27 15 -15 44 -1 40 19 -4 23 -36 29 -44
8z"/>
<path d="M2972 5498 c-19 -19 -14 -56 8 -63 26 -8 50 11 50 40 0 32 -35 46
-58 23z m43 -8 c3 -5 1 -10 -4 -10 -6 0 -11 5 -11 10 0 6 2 10 4 10 3 0 8 -4
11 -10z"/>
<path d="M3270 5503 c-112 -10 -140 -15 -140 -25 0 -7 26 -8 78 -4 120 10 162
17 162 27 0 9 -28 9 -100 2z"/>
<path d="M4261 5473 c-32 -40 -14 -83 36 -83 30 0 53 26 53 59 0 55 -54 70
-89 24z"/>
<path d="M5726 5465 c-10 -26 -7 -30 7 -10 18 24 37 11 37 -26 0 -33 -26 -51
-41 -28 -6 10 -9 11 -9 1 0 -19 28 -26 46 -11 10 8 14 25 12 48 -2 28 -8 37
-24 39 -13 2 -24 -4 -28 -13z"/>
<path d="M2701 5461 c-44 -4 -76 -11 -78 -18 -3 -8 17 -10 74 -7 117 7 163 14
163 25 0 9 -33 9 -159 0z"/>
<path d="M5616 5461 c-3 -5 2 -7 13 -4 14 4 21 -1 24 -19 5 -22 5 -22 4 2 -2
25 -30 40 -41 21z"/>
<path d="M5497 5452 c6 -4 13 -25 16 -47 4 -40 4 -40 5 8 2 39 -1 47 -15 47
-12 0 -14 -3 -6 -8z"/>
<path d="M4047 5443 c-4 -3 -7 -15 -7 -25 0 -21 36 -25 43 -5 9 27 -17 50 -36
30z"/>
<path d="M5416 5437 c3 -10 9 -15 12 -12 3 3 0 11 -7 18 -10 9 -11 8 -5 -6z"/>
<path d="M5295 5430 c3 -5 8 -10 11 -10 2 0 4 5 4 10 0 6 -5 10 -11 10 -5 0
-7 -4 -4 -10z"/>
<path d="M5600 5416 c0 -14 4 -27 8 -30 5 -3 6 8 4 25 -5 35 -12 38 -12 5z"/>
<path d="M5186 5405 c8 -37 14 -45 14 -19 0 10 -5 26 -10 34 -8 11 -9 7 -4
-15z"/>
<path d="M5043 5375 c0 -27 2 -38 4 -22 2 15 2 37 0 50 -2 12 -4 0 -4 -28z"/>
<path d="M5372 5400 c0 -14 2 -19 5 -12 2 6 2 18 0 25 -3 6 -5 1 -5 -13z"/>
<path d="M4923 5365 c0 -27 2 -38 4 -22 2 15 2 37 0 50 -2 12 -4 0 -4 -28z"/>
<path d="M5132 5380 c0 -14 2 -19 5 -12 2 6 2 18 0 25 -3 6 -5 1 -5 -13z"/>
<path d="M4590 5373 c-12 -15 -12 -16 0 -5 25 21 39 13 43 -25 l4 -38 -1 40
c-1 45 -23 58 -46 28z"/>
<path d="M5416 5373 c-6 -14 -5 -15 5 -6 7 7 10 15 7 18 -3 3 -9 -2 -12 -12z"/>
<path d="M3117 5373 c-12 -12 -7 -41 7 -46 19 -7 40 18 32 38 -6 15 -28 20
-39 8z"/>
<path d="M4475 5330 c0 -44 3 -50 20 -49 11 0 14 3 8 6 -8 3 -13 23 -13 49 0
24 -3 44 -7 44 -5 0 -8 -22 -8 -50z"/>
<path d="M4347 5362 c6 -4 13 -28 16 -52 l4 -45 1 53 c2 44 -1 52 -15 52 -12
0 -14 -3 -6 -8z"/>
<path d="M5295 5360 c-3 -5 -1 -10 4 -10 6 0 11 5 11 10 0 6 -2 10 -4 10 -3 0
-8 -4 -11 -10z"/>
<path d="M2867 5354 c-4 -4 -7 -16 -7 -26 0 -14 6 -19 23 -16 14 2 22 10 22
23 0 20 -25 32 -38 19z"/>
<path d="M4227 5352 c6 -4 13 -25 16 -47 4 -40 4 -40 5 8 2 39 -1 47 -15 47
-12 0 -14 -3 -6 -8z"/>
<path d="M5175 5350 c-3 -5 -1 -10 4 -10 6 0 11 5 11 10 0 6 -2 10 -4 10 -3 0
-8 -4 -11 -10z"/>
<path d="M4135 5340 c3 -5 8 -10 11 -10 2 0 4 5 4 10 0 6 -5 10 -11 10 -5 0
-7 -4 -4 -10z"/>
<path d="M4017 5319 c4 -13 8 -18 11 -10 2 7 -1 18 -6 23 -8 8 -9 4 -5 -13z"/>
<path d="M3748 5283 c5 -59 10 -63 11 -10 1 26 -3 47 -7 47 -4 0 -6 -17 -4
-37z"/>
<path d="M3971 5294 c0 -20 6 -37 17 -45 15 -12 15 -12 5 1 -6 8 -13 29 -16
45 l-4 30 -2 -31z"/>
<path d="M4091 5299 c0 -15 7 -33 17 -40 15 -12 16 -12 5 1 -6 8 -13 26 -16
40 l-4 25 -2 -26z"/>
<path d="M4583 5310 c2 -8 12 -16 23 -17 13 -2 15 -1 4 4 -8 3 -19 11 -23 17
-6 7 -7 6 -4 -4z"/>
<path d="M5450 5295 c-10 -11 -10 -19 -2 -27 15 -15 44 -2 40 19 -4 23 -22 27
-38 8z"/>
<path d="M3399 5276 c-12 -27 -5 -76 11 -76 6 0 6 7 -1 18 -7 11 -9 31 -5 46
9 36 39 31 47 -9 5 -22 7 -24 8 -8 3 54 -40 74 -60 29z"/>
<path d="M3871 5274 c0 -11 3 -14 6 -6 3 7 2 16 -1 19 -3 4 -6 -2 -5 -13z"/>
<path d="M4017 5271 c-4 -17 -3 -21 5 -13 5 5 8 16 6 23 -3 8 -7 3 -11 -10z"/>
<path d="M5214 5275 c-4 -9 -2 -21 4 -27 15 -15 44 -1 40 19 -4 23 -36 29 -44
8z"/>
<path d="M3157 5273 c-4 -3 -7 -11 -7 -17 0 -6 4 -5 9 3 5 8 16 11 26 7 13 -5
16 -15 13 -40 -2 -19 0 -32 4 -30 9 6 11 46 2 68 -6 16 -35 22 -47 9z"/>
<path d="M2899 5236 c-12 -27 -5 -76 11 -76 6 0 5 8 -2 20 -10 15 -10 27 -1
50 13 36 7 40 -8 6z"/>
<path d="M2938 5248 c16 -16 15 -60 0 -78 -11 -12 -10 -12 5 -1 25 20 21 91
-6 91 -7 0 -7 -4 1 -12z"/>
<path d="M2776 5234 c-9 -24 -2 -26 12 -4 7 11 8 20 3 20 -5 0 -12 -7 -15 -16z"/>
<path d="M2817 5229 c4 -13 8 -18 11 -10 2 7 -1 18 -6 23 -8 8 -9 4 -5 -13z"/>
<path d="M831 5224 c0 -11 3 -14 6 -6 3 7 2 16 -1 19 -3 4 -6 -2 -5 -13z"/>
<path d="M2658 5233 c7 -3 12 -23 12 -49 0 -24 3 -44 8 -44 4 0 5 22 4 50 -3
39 -8 50 -20 49 -11 0 -12 -2 -4 -6z"/>
<path d="M3145 5215 c7 -31 12 -41 19 -34 2 2 -3 18 -11 34 l-14 30 6 -30z"/>
<path d="M4012 5208 c-7 -7 -12 -27 -12 -45 0 -26 6 -36 25 -45 48 -22 90 31
69 86 -7 19 -64 22 -82 4z"/>
<path d="M4291 5207 c-6 -6 -11 -17 -11 -25 0 -19 44 -11 48 9 4 20 -22 31
-37 16z"/>
<path d="M886 5202 c-3 -6 -1 -23 6 -39 l12 -28 4 29 c4 30 -11 56 -22 38z"/>
<path d="M2770 5181 c0 -11 4 -22 9 -25 4 -3 6 6 3 19 -5 30 -12 33 -12 6z"/>
<path d="M3038 5173 c6 -2 18 -2 25 0 6 3 1 5 -13 5 -14 0 -19 -2 -12 -5z"/>
<path d="M961 5134 c0 -11 3 -14 6 -6 3 7 2 16 -1 19 -3 4 -6 -2 -5 -13z"/>
<path d="M2845 5114 c-20 -20 -16 -73 6 -87 45 -28 103 28 81 78 -14 30 -61
35 -87 9z"/>
<path d="M3114 5105 c-4 -9 -2 -21 3 -26 14 -14 45 1 41 20 -4 22 -37 26 -44
6z"/>
<path d="M820 5086 c0 -27 15 -42 25 -26 8 13 -3 50 -16 50 -5 0 -9 -11 -9
-24z"/>
<path d="M890 5036 c0 -9 5 -16 10 -16 6 0 10 4 10 9 0 6 -4 13 -10 16 -5 3
-10 -1 -10 -9z"/>
<path d="M950 4987 c0 -13 7 -30 16 -38 14 -11 15 -9 12 21 -4 39 -28 54 -28
17z"/>
<path d="M862 4590 c0 -19 2 -27 5 -17 2 9 2 25 0 35 -3 9 -5 1 -5 -18z"/>
<path d="M862 4530 c0 -14 2 -19 5 -12 2 6 2 18 0 25 -3 6 -5 1 -5 -13z"/>
<path d="M890 4480 c0 -5 5 -10 10 -10 6 0 10 5 10 10 0 6 -4 10 -10 10 -5 0
-10 -4 -10 -10z"/>
<path d="M862 4420 c0 -14 2 -19 5 -12 2 6 2 18 0 25 -3 6 -5 1 -5 -13z"/>
<path d="M822 4390 c2 -19 7 -33 13 -30 15 8 15 27 -1 47 -13 16 -14 15 -12
-17z"/>
<path d="M890 4341 c0 -5 5 -13 10 -16 6 -3 10 -2 10 4 0 5 -4 13 -10 16 -5 3
-10 2 -10 -4z"/>
<path d="M863 4300 c0 -25 2 -35 4 -22 2 12 2 32 0 45 -2 12 -4 2 -4 -23z"/>
<path d="M955 4310 c-9 -14 2 -60 15 -60 12 0 13 40 1 59 -6 10 -10 10 -16 1z"/>
<path d="M861 4224 c0 -11 3 -14 6 -6 3 7 2 16 -1 19 -3 4 -6 -2 -5 -13z"/>
<path d="M880 3691 c0 -9 30 -24 36 -18 2 1 -6 8 -16 15 -11 7 -20 8 -20 3z"/>
<path d="M880 3651 c0 -6 4 -13 10 -16 6 -3 7 1 4 9 -7 18 -14 21 -14 7z"/>
<path d="M892 3534 c10 -10 20 -16 22 -13 3 3 -5 11 -17 18 -21 13 -21 12 -5
-5z"/>
<path d="M892 3264 c10 -10 20 -16 22 -13 3 3 -5 11 -17 18 -21 13 -21 12 -5
-5z"/>
<path d="M892 3204 c10 -10 20 -16 22 -13 3 3 -5 11 -17 18 -21 13 -21 12 -5
-5z"/>
<path d="M880 3148 c0 -9 7 -19 16 -22 15 -6 15 -4 3 11 -7 10 -15 20 -16 22
-2 2 -3 -3 -3 -11z"/>
<path d="M890 3011 c0 -5 5 -13 10 -16 6 -3 10 -2 10 4 0 5 -4 13 -10 16 -5 3
-10 2 -10 -4z"/>
<path d="M880 2965 c13 -14 26 -25 28 -25 3 0 -5 11 -18 25 -13 14 -26 25 -28
25 -3 0 5 -11 18 -25z"/>
<path d="M880 2875 c13 -14 26 -25 28 -25 3 0 -5 11 -18 25 -13 14 -26 25 -28
25 -3 0 5 -11 18 -25z"/>
<path d="M892 2624 c10 -10 20 -16 22 -13 3 3 -5 11 -17 18 -21 13 -21 12 -5
-5z"/>
<path d="M880 2551 c0 -6 4 -13 10 -16 6 -3 7 1 4 9 -7 18 -14 21 -14 7z"/>
<path d="M885 2480 c-3 -5 -1 -10 4 -10 6 0 11 5 11 10 0 6 -2 10 -4 10 -3 0
-8 -4 -11 -10z"/>
<path d="M915 2390 c10 -11 20 -20 23 -20 3 0 -3 9 -13 20 -10 11 -20 20 -23
20 -3 0 3 -9 13 -20z"/>
<path d="M905 2300 c3 -5 8 -10 11 -10 2 0 4 5 4 10 0 6 -5 10 -11 10 -5 0 -7
-4 -4 -10z"/>
<path d="M885 2270 c10 -11 20 -20 23 -20 3 0 -3 9 -13 20 -10 11 -20 20 -23
20 -3 0 3 -9 13 -20z"/>
<path d="M860 2216 c0 -2 7 -9 15 -16 9 -7 15 -8 15 -2 0 5 -7 12 -15 16 -8 3
-15 4 -15 2z"/>
<path d="M5058 1800 c4 -48 3 -50 -22 -50 -29 0 -29 0 -17 53 5 20 5 37 1 37
-4 0 -11 -20 -14 -45 -4 -25 -11 -45 -17 -45 -5 0 -8 -10 -8 -22 1 -16 3 -18
6 -6 6 22 91 30 97 8 2 -8 4 -5 5 8 0 12 -3 22 -9 22 -5 0 -10 20 -10 45 0 25
-3 45 -7 45 -5 0 -6 -22 -5 -50z"/>
<path d="M4892 1778 c-2 -54 -1 -56 21 -51 61 15 64 76 4 72 -7 0 -2 -4 11
-10 29 -11 26 -43 -5 -47 -19 -3 -22 2 -26 45 l-3 48 -2 -57z"/>
<path d="M4786 1811 c-3 -4 5 -6 19 -4 22 5 24 2 28 -43 l3 -49 2 53 c2 49 1
52 -22 52 -14 0 -27 -4 -30 -9z"/>
<path d="M4637 1782 c-36 -39 -12 -86 40 -80 33 4 55 40 44 72 -11 28 -61 33
-84 8z m71 -20 c7 -51 -62 -76 -74 -27 -8 33 12 57 45 53 18 -2 27 -10 29 -26z"/>
<path d="M4108 1783 c-28 -4 -28 -4 -28 -89 0 -46 4 -84 9 -84 5 0 9 34 10 77
0 42 2 77 3 79 2 1 23 5 48 9 l45 7 -3 -76 c-2 -45 0 -76 6 -76 5 0 10 36 11
80 l2 80 -38 -1 c-21 -1 -50 -4 -65 -6z"/>
<path d="M4570 1745 c-5 -48 -6 -50 -37 -53 -31 -3 -32 -2 -36 45 l-3 48 -2
-53 -2 -54 48 4 c34 2 46 -1 45 -9 -2 -7 2 -13 7 -13 6 0 10 9 10 20 0 11 -4
20 -9 20 -6 0 -11 21 -13 48 l-4 47 -4 -50z"/>
<path d="M4770 1762 c0 -15 -5 -33 -12 -40 -9 -9 -9 -12 0 -12 6 0 14 12 18
28 3 15 7 33 10 40 2 6 -1 12 -6 12 -6 0 -10 -13 -10 -28z"/>
<path d="M4388 1763 c19 -4 22 -11 24 -51 l1 -47 4 45 c3 24 10 48 16 52 7 4
-6 7 -28 6 -23 0 -30 -3 -17 -5z"/>
<path d="M4264 1735 c-33 -50 14 -106 63 -75 17 11 17 11 -1 6 -25 -9 -56 2
-56 19 0 7 10 16 23 18 l22 4 -23 2 c-34 2 -25 35 11 39 25 3 32 -5 28 -30 0
-5 4 -8 9 -8 13 0 13 6 0 31 -15 27 -56 24 -76 -6z"/>
<path d="M821 1715 c-1 -29 14 -55 31 -55 4 0 7 10 7 23 -1 20 -2 20 -7 2 -4
-16 -7 -11 -17 20 -13 39 -13 39 -14 10z"/>
<path d="M900 1711 c0 -5 7 -14 15 -21 16 -14 18 -10 9 14 -6 17 -24 22 -24 7z"/>
<path d="M3910 1710 c-11 -7 -6 -8 18 -4 26 5 32 3 32 -10 0 -9 -7 -19 -17
-23 -14 -5 -13 -8 7 -15 18 -7 20 -11 10 -23 -6 -7 -24 -16 -38 -18 -25 -4
-25 -4 4 -6 35 -1 60 21 47 41 -4 7 -8 24 -8 38 0 28 -28 38 -55 20z"/>
<path d="M3350 1656 c0 -39 -3 -45 -29 -54 -38 -13 -53 -2 -54 42 -1 46 -17
48 -17 2 0 -19 7 -42 16 -51 16 -16 28 -16 66 0 14 5 17 0 21 -32 2 -21 4 1 5
50 1 48 0 87 -3 87 -3 0 -5 -20 -5 -44z"/>
<path d="M3795 1690 c3 -5 8 -10 11 -10 2 0 4 5 4 10 0 6 -5 10 -11 10 -5 0
-7 -4 -4 -10z"/>
<path d="M3680 1657 c0 -18 -7 -43 -16 -55 -9 -13 -11 -22 -4 -22 13 0 30 43
30 76 0 19 5 24 24 24 22 0 25 -5 29 -47 l3 -48 2 53 2 52 -35 0 c-33 0 -35
-2 -35 -33z"/>
<path d="M871 1668 c-2 -31 -1 -33 7 -33 4 0 13 -4 20 -8 7 -5 12 -4 12 2 0 6
-4 11 -8 11 -5 0 -14 10 -20 23 -8 17 -11 18 -11 5z"/>
<path d="M950 1674 c0 -13 18 -39 24 -34 2 3 -2 14 -10 24 -8 11 -14 16 -14
10z"/>
<path d="M3564 1669 c-4 -7 -3 -9 4 -6 19 13 42 -5 42 -32 0 -33 -17 -51 -48
-51 -21 0 -23 4 -21 40 2 21 0 42 -4 46 -4 4 -6 -31 -5 -77 0 -46 3 -69 5 -51
4 28 8 32 33 32 21 0 35 8 47 26 15 24 15 29 2 53 -16 29 -43 39 -55 20z"/>
<path d="M3800 1661 c0 -4 11 -6 24 -4 13 3 27 0 31 -6 10 -17 -16 -43 -37
-38 -10 3 -18 1 -18 -4 0 -5 11 -9 25 -9 31 0 52 34 34 56 -12 15 -59 20 -59
5z"/>
<path d="M3428 1653 c7 -3 16 -2 19 1 4 3 -2 6 -13 5 -11 0 -14 -3 -6 -6z"/>
<path d="M3468 1630 c2 -16 6 -30 8 -30 2 0 4 14 4 30 0 17 -4 30 -8 30 -5 0
-7 -13 -4 -30z"/>
<path d="M820 1611 c0 -22 15 -35 30 -26 7 4 7 13 0 26 -14 25 -30 25 -30 0z"/>
<path d="M3417 1603 c-10 -10 -8 -41 3 -48 16 -10 60 6 60 22 0 12 -2 12 -16
-1 -8 -9 -19 -16 -24 -16 -16 0 -22 21 -10 35 12 15 0 22 -13 8z"/>
<path d="M870 1585 c0 -8 -8 -15 -17 -15 -16 -1 -15 -2 2 -12 11 -6 23 -16 27
-22 5 -7 8 -7 8 -1 0 6 5 3 10 -5 6 -10 10 -11 10 -2 0 6 5 12 11 12 7 0 9
-10 5 -25 -5 -18 -2 -25 9 -25 9 0 14 7 12 19 -4 24 -27 52 -37 46 -17 -10
-38 7 -33 26 3 10 3 19 -1 19 -3 0 -6 -7 -6 -15z"/>
<path d="M820 1518 c0 -19 2 -20 10 -8 13 19 13 30 0 30 -5 0 -10 -10 -10 -22z"/>
<path d="M850 1491 c0 -22 4 -29 18 -28 10 0 19 9 19 20 2 15 -1 16 -13 6 -12
-10 -13 -9 -9 4 4 8 2 18 -4 22 -7 4 -11 -5 -11 -24z"/>
<path d="M903 1468 c4 -11 0 -21 -10 -26 -11 -6 -12 -11 -4 -16 6 -4 11 -2 11
5 0 8 4 9 13 0 20 -16 18 19 -2 39 -13 13 -14 13 -8 -2z"/>
<path d="M940 1436 c0 -4 7 -14 15 -22 8 -8 12 -21 9 -29 -4 -8 -1 -15 5 -15
18 0 12 36 -9 55 -11 10 -20 15 -20 11z"/>
<path d="M930 1400 c-13 -8 -12 -10 3 -10 9 0 17 5 17 10 0 12 -1 12 -20 0z"/>
<path d="M6613 1213 c9 -2 25 -2 35 0 9 3 1 5 -18 5 -19 0 -27 -2 -17 -5z"/>
<path d="M6538 1203 c7 -3 16 -2 19 1 4 3 -2 6 -13 5 -11 0 -14 -3 -6 -6z"/>
<path d="M6458 1193 c7 -3 16 -2 19 1 4 3 -2 6 -13 5 -11 0 -14 -3 -6 -6z"/>
<path d="M6373 1183 c9 -2 23 -2 30 0 6 3 -1 5 -18 5 -16 0 -22 -2 -12 -5z"/>
<path d="M6288 1173 c6 -2 18 -2 25 0 6 3 1 5 -13 5 -14 0 -19 -2 -12 -5z"/>
<path d="M6203 1163 c9 -2 25 -2 35 0 9 3 1 5 -18 5 -19 0 -27 -2 -17 -5z"/>
<path d="M6055 1150 c-27 -5 -194 -25 -370 -47 -176 -21 -306 -39 -289 -41 26
-3 546 59 734 87 48 7 50 9 15 9 -22 0 -62 -4 -90 -8z"/>
<path d="M5210 1045 c-41 -7 -61 -13 -45 -13 17 0 68 6 115 13 49 7 68 13 45
13 -22 -1 -74 -6 -115 -13z"/>
<path d="M4925 1010 c-77 -10 -331 -41 -565 -69 -832 -102 -1584 -199 -1547
-200 21 -1 129 10 240 24 1648 205 2054 256 2067 259 39 10 -69 2 -195 -14z"/>
<path d="M2350 791 c-8 -6 -12 -11 -7 -11 4 0 1 -13 -7 -28 -10 -19 -11 -33
-5 -45 6 -9 8 -21 5 -26 -7 -11 66 -23 74 -13 3 5 22 8 43 7 20 -1 37 2 37 7
0 4 9 8 20 8 13 0 25 11 33 28 6 15 16 30 21 33 5 4 6 11 3 16 -4 6 5 9 21 6
l27 -3 -25 11 c-34 15 -221 23 -240 10z"/>
<path d="M1985 655 c-38 -7 -123 -19 -188 -25 -64 -7 -115 -15 -113 -17 8 -8
348 28 401 42 l50 13 -40 0 c-22 0 -71 -6 -110 -13z"/>
<path d="M2438 653 c7 -3 16 -2 19 1 4 3 -2 6 -13 5 -11 0 -14 -3 -6 -6z"/>
<path d="M1063 603 c15 -2 37 -2 50 0 12 2 0 4 -28 4 -27 0 -38 -2 -22 -4z"/>
<path d="M1598 603 c12 -2 32 -2 45 0 12 2 2 4 -23 4 -25 0 -35 -2 -22 -4z"/>
<path d="M1518 593 c12 -2 30 -2 40 0 9 3 -1 5 -23 4 -22 0 -30 -2 -17 -4z"/>
<path d="M1333 573 c9 -2 23 -2 30 0 6 3 -1 5 -18 5 -16 0 -22 -2 -12 -5z"/>
<path d="M3140 345 c7 -8 10 -21 7 -29 -4 -10 5 -18 25 -25 44 -15 44 -15 9
21 -17 17 -31 35 -31 40 0 4 -5 8 -11 8 -8 0 -8 -5 1 -15z"/>
</g>
</svg>
