<?xml version="1.0" standalone="no"?>
<!DOCTYPE svg PUBLIC "-//W3C//DTD SVG 20010904//EN"
 "http://www.w3.org/TR/2001/REC-SVG-20010904/DTD/svg10.dtd">
<svg version="1.0" xmlns="http://www.w3.org/2000/svg"
 width="650.000000pt" height="918.000000pt" viewBox="0 0 650.000000 918.000000"
 preserveAspectRatio="xMidYMid meet">

<g transform="translate(0.000000,918.000000) scale(0.100000,-0.100000)"
fill="#000000" stroke="none">
<path d="M0 4590 l0 -4590 3250 0 3250 0 0 4590 0 4590 -295 0 -295 0 0 -55 0
-55 -1235 0 -1235 0 0 55 0 55 -1720 0 -1720 0 0 -4590z m637 4028 c-2 -7 5
-35 17 -63 l22 -50 30 65 30 64 23 -62 c13 -34 27 -62 31 -62 9 0 35 80 32
103 -1 12 5 17 23 17 24 0 25 -1 11 -22 -7 -13 -26 -56 -41 -95 -16 -40 -31
-73 -34 -73 -4 0 -18 26 -32 58 l-26 57 -27 -59 c-15 -32 -31 -55 -35 -50 -5
5 -21 42 -36 82 -16 40 -32 75 -37 78 -18 11 -6 24 23 24 21 0 30 -4 26 -12z
m298 -100 c0 -76 0 -78 -25 -78 -25 0 -25 1 -22 77 3 73 5 78 25 78 21 0 22
-4 22 -77z m107 9 l-4 -70 51 5 c35 4 51 2 48 -6 -2 -6 -34 -12 -73 -14 l-69
-3 0 78 c0 76 0 78 25 79 25 1 25 0 22 -69z m226 64 c22 -1 32 -6 32 -16 0
-12 -4 -13 -19 -5 -11 5 -33 10 -50 10 -27 0 -31 -4 -31 -26 0 -25 2 -26 40
-21 33 4 40 2 40 -12 0 -13 -8 -16 -40 -13 -38 4 -40 3 -40 -23 0 -26 1 -27
55 -23 39 2 55 -1 55 -9 0 -9 -21 -13 -72 -13 l-73 0 0 78 0 77 35 -2 c19 -1
50 -2 68 -2z m123 -26 c9 -16 22 -30 29 -30 7 0 20 14 29 30 16 29 51 47 51
25 0 -5 -4 -10 -9 -10 -19 0 -63 -83 -59 -111 4 -25 1 -29 -19 -29 -21 0 -23
4 -21 34 1 25 -6 43 -30 72 -38 46 -39 51 -10 50 14 -1 29 -12 39 -31z m50
-1502 c1 -131 1 -250 1 -265 -1 -29 7 -32 46 -22 45 12 55 54 63 264 4 108 12
210 19 228 l12 32 169 0 c129 0 169 -3 169 -12 0 -7 -7 -35 -16 -63 -10 -33
-17 -102 -20 -205 -7 -252 -35 -331 -134 -374 -19 -8 -33 -16 -30 -16 3 -1 15
-3 28 -6 39 -7 61 -23 92 -65 39 -54 48 -111 53 -329 3 -142 8 -196 21 -230
34 -89 50 -80 -152 -80 l-181 0 -12 38 c-6 20 -14 134 -18 252 -7 229 -13 255
-56 266 -56 14 -56 18 -55 -278 l1 -273 -170 -3 -171 -2 0 690 0 690 170 0
170 0 1 -237z m924 145 c-10 -192 -15 -287 -20 -403 -3 -66 -8 -132 -11 -147
-3 -17 -1 -28 5 -28 6 0 11 6 11 13 0 11 145 539 176 640 5 15 21 17 160 17
l154 0 0 -690 0 -690 -174 0 -175 0 5 58 c10 129 32 577 28 581 -5 5 1 23
-102 -329 l-89 -305 -156 -3 -157 -3 0 691 0 690 175 0 175 0 -5 -92z m1355
-63 l0 -155 -210 0 -211 0 3 -85 3 -85 97 -4 c209 -8 306 -78 338 -242 8 -39
10 -127 8 -250 -5 -218 -15 -257 -79 -322 -71 -71 -95 -75 -421 -80 l-288 -3
0 690 0 691 380 0 380 0 0 -155z m790 0 l0 -154 -156 -3 -156 -3 0 -100 0
-100 126 -3 126 -3 0 -154 0 -154 -125 -3 -126 -3 -2 -118 -2 -117 158 0 158
0 -2 -155 -1 -155 -329 0 -329 0 0 690 0 690 330 0 330 0 0 -155z m632 144
c73 -16 117 -40 164 -91 71 -76 79 -113 79 -343 0 -194 -1 -202 -26 -255 -58
-125 -162 -180 -339 -180 l-70 0 0 -250 0 -250 -175 0 -175 0 0 690 0 690 245
0 c142 0 266 -5 297 -11z m-3199 -1658 c47 -46 50 -148 7 -191 -19 -19 -19
-20 0 -30 40 -21 47 -136 13 -203 -17 -35 -67 -57 -125 -57 -86 0 -138 55
-138 146 l0 54 59 0 60 0 3 -47 c2 -35 7 -49 20 -51 13 -3 17 7 20 53 3 63 -4
75 -44 75 -26 0 -28 3 -28 43 0 42 1 44 30 42 38 -2 47 12 42 65 -5 52 -35 53
-40 2 l-3 -32 -61 0 -60 0 6 48 c13 88 65 126 161 117 37 -3 56 -12 78 -34z
m312 15 c45 -30 57 -88 53 -257 -3 -133 -6 -158 -23 -183 -52 -77 -199 -73
-242 6 -15 28 -18 58 -18 200 0 187 6 204 76 241 39 21 117 17 154 -7z m995 6
c45 -22 70 -72 70 -139 l0 -53 -59 0 -60 0 -3 53 c-2 38 -7 52 -18 52 -13 0
-15 -24 -15 -155 0 -131 2 -155 15 -155 11 0 16 14 18 58 l3 57 59 0 60 0 0
-57 c0 -73 -24 -122 -70 -145 -72 -36 -166 -13 -195 49 -13 28 -16 64 -13 207
3 157 5 176 23 196 44 49 123 63 185 32z m670 -2 c46 -25 55 -64 55 -240 0
-141 -3 -170 -18 -198 -45 -83 -199 -81 -245 2 -14 26 -17 59 -17 196 0 148 2
169 20 200 13 22 34 40 55 48 38 13 118 9 150 -8z m305 6 c49 -21 75 -68 75
-138 l0 -58 -59 0 -60 0 -3 53 c-2 38 -7 52 -18 52 -13 0 -15 -24 -15 -155 0
-131 2 -155 15 -155 11 0 16 14 18 58 l3 57 59 0 60 0 0 -64 c0 -49 -5 -70
-23 -97 -32 -48 -62 -60 -130 -56 -49 3 -63 8 -90 35 l-32 32 -3 178 c-2 164
-1 179 18 210 35 57 114 77 185 48z m-2855 -51 l0 -55 -75 0 -75 0 0 -35 c0
-33 2 -35 34 -35 95 0 126 -40 126 -165 0 -133 -26 -155 -180 -155 l-100 0 0
250 0 250 135 0 135 0 0 -55z m290 0 l0 -55 -55 0 -55 0 0 -40 0 -40 45 0 45
0 0 -55 0 -55 -45 0 -45 0 0 -45 0 -45 55 0 55 0 0 -55 0 -55 -115 0 -115 0 0
250 0 250 115 0 115 0 0 -55z m970 -195 l0 -250 -60 0 -60 0 0 195 c0 188 -1
195 -20 195 -19 0 -20 -7 -20 -195 l0 -195 -60 0 -60 0 0 250 0 250 140 0 140
0 0 -250z m303 228 c3 -13 20 -117 37 -233 17 -115 32 -218 34 -227 4 -16 -4
-18 -60 -18 -35 0 -63 3 -63 8 1 4 1 22 0 40 -1 31 -3 32 -41 32 l-40 0 0 -40
0 -40 -60 0 c-56 0 -60 2 -60 23 0 12 16 123 35 247 19 124 35 226 35 228 0 1
40 2 89 2 84 0 89 -1 94 -22z m557 -74 c0 -86 2 -95 18 -92 14 3 17 17 20 96
l3 92 59 0 60 0 0 -250 0 -250 -62 0 -63 0 3 100 c3 95 2 100 -17 100 -20 0
-21 -6 -21 -100 l0 -100 -62 0 -63 0 3 250 3 250 59 0 60 0 0 -96z m1130 42
l0 -55 -41 -3 -41 -3 2 -192 1 -193 -65 0 -65 0 2 193 1 192 -42 3 -42 3 0 55
0 54 145 0 145 0 0 -54z m160 -25 l0 -78 49 -7 c58 -8 97 -42 107 -92 3 -19 4
-68 2 -109 -3 -66 -7 -78 -31 -102 -26 -26 -33 -28 -137 -31 l-110 -4 0 251 0
251 60 0 60 0 0 -79z m-3520 -721 c0 -39 -1 -40 -35 -40 l-35 0 0 -140 0 -140
-45 0 -45 0 0 180 0 180 80 0 80 0 0 -40z m240 -140 l0 -180 -45 0 -45 0 0
140 c0 118 -2 140 -15 140 -12 0 -15 -19 -15 -107 0 -119 -10 -151 -53 -171
-44 -21 -67 -8 -67 40 0 23 3 38 7 35 3 -4 12 -2 20 4 10 9 13 46 13 145 l0
134 100 0 100 0 0 -180z m215 148 c13 -77 45 -294 45 -310 0 -15 -9 -18 -45
-18 -41 0 -45 2 -45 25 0 20 -5 25 -24 25 -17 0 -26 -7 -30 -25 -6 -22 -12
-25 -49 -25 l-43 0 23 158 c33 224 22 202 98 202 l64 0 6 -32z m250 9 c22 -18
27 -31 27 -70 1 -31 -4 -54 -14 -64 -14 -14 -14 -17 3 -34 30 -30 26 -113 -6
-144 -22 -22 -32 -25 -105 -25 l-80 0 0 180 0 180 74 0 c63 0 79 -3 101 -23z
m155 -47 c0 -40 4 -70 10 -70 6 0 10 30 10 70 l0 70 45 0 45 0 0 -180 0 -180
-45 0 -45 0 0 70 c0 40 -4 70 -10 70 -6 0 -10 -30 -10 -70 l0 -70 -45 0 -45 0
0 180 0 180 45 0 45 0 0 -70z m240 10 c0 -60 0 -60 29 -60 49 0 83 -38 89 -98
6 -62 -2 -96 -28 -122 -17 -17 -34 -20 -100 -20 l-80 0 0 180 0 180 45 0 45 0
0 -60z m223 -123 l2 -177 -47 0 -48 0 0 181 0 180 46 -3 45 -3 2 -178z m207
143 l0 -40 -40 0 c-38 0 -40 -2 -40 -30 0 -27 3 -30 33 -30 31 0 33 -2 32 -37
-1 -35 -4 -38 -33 -41 -28 -3 -32 -7 -32 -33 0 -27 2 -29 40 -29 l40 0 0 -40
0 -40 -85 0 -85 0 0 180 0 180 85 0 85 0 0 -40z m330 -140 l1 -180 -51 0 -50
0 0 140 c0 87 -4 140 -10 140 -6 0 -10 -53 -10 -140 l0 -140 -45 0 -45 0 0
180 0 180 104 0 104 0 2 -180z m211 151 c25 -25 29 -37 29 -84 0 -72 -33 -117
-86 -117 l-34 0 0 -65 0 -65 -45 0 -45 0 0 180 0 180 76 0 c70 0 78 -2 105
-29z m144 -53 l-5 -83 22 80 23 80 43 3 42 3 0 -180 0 -181 -46 0 -47 0 6 76
c7 89 -3 86 -28 -8 l-17 -68 -44 0 -44 0 0 180 0 180 50 0 49 0 -4 -82z m245
12 c0 -56 3 -70 15 -70 12 0 15 14 15 70 l0 70 45 0 45 0 0 -180 0 -180 -45 0
-45 0 0 70 c0 56 -3 70 -15 70 -12 0 -15 -14 -15 -70 l0 -70 -45 0 -45 0 0
180 0 180 45 0 45 0 0 -70z m250 -70 c0 -87 4 -140 10 -140 6 0 10 53 10 140
l0 140 45 0 45 0 0 -140 c0 -133 1 -140 20 -140 18 0 20 -7 20 -70 l0 -70 -45
0 c-43 0 -45 1 -45 30 l0 30 -75 0 -75 0 0 35 c0 19 -1 98 -1 175 0 77 1 142
1 145 0 3 20 5 45 5 l45 0 0 -140z m257 58 c-6 -91 1 -87 28 15 l17 67 39 0
39 0 0 -180 0 -180 -45 0 -45 0 5 78 5 77 -21 -65 c-11 -36 -22 -71 -24 -77
-3 -8 -21 -13 -45 -13 l-40 0 0 180 0 180 46 0 47 0 -6 -82z m366 70 c-2 -5
-3 -84 -3 -178 l0 -170 -45 0 -45 0 0 140 c0 87 -4 140 -10 140 -6 0 -10 -53
-10 -140 l0 -140 -45 0 -45 0 0 180 0 181 103 -3 c56 -2 101 -6 100 -10z m127
-48 c0 -57 1 -60 25 -60 36 0 71 -19 84 -47 26 -57 5 -172 -34 -187 -9 -3 -50
-6 -91 -6 l-74 0 0 180 0 180 45 0 45 0 0 -60z m223 -122 l2 -178 -47 0 -48 0
0 181 0 180 46 -3 45 -3 2 -177z m-3390 -464 c57 -19 103 -63 131 -124 18 -39
21 -64 21 -195 0 -133 -2 -155 -22 -198 -44 -94 -123 -137 -255 -137 l-68 0 0
-195 0 -195 -130 0 -130 0 0 530 0 530 203 0 c160 0 213 -3 250 -16z m492
-106 c-4 -68 -10 -186 -15 -263 -4 -77 -6 -142 -4 -144 5 -5 4 -7 74 244 34
121 66 235 71 253 l11 32 116 0 117 0 -2 -527 -2 -528 -130 -3 -131 -3 4 58
c3 32 7 114 11 183 3 69 8 159 10 200 6 98 1 86 -83 -200 l-69 -235 -117 -3
-116 -3 0 531 0 530 131 0 131 0 -7 -122z m725 -83 c0 -221 1 -226 51 -186 22
17 23 28 31 179 4 88 12 172 18 186 l10 26 130 0 c71 0 130 -3 130 -6 0 -3 -5
-15 -11 -26 -6 -12 -15 -94 -19 -184 -7 -152 -10 -166 -36 -216 -22 -41 -37
-55 -61 -63 -39 -11 -43 -25 -9 -25 32 0 82 -51 97 -98 6 -20 14 -113 18 -207
4 -101 12 -179 19 -192 23 -41 18 -43 -122 -43 l-134 0 -12 34 c-6 19 -14 111
-18 206 -8 182 -11 190 -59 190 l-23 0 0 -215 0 -216 -130 3 -130 3 -3 528 -2
527 133 0 132 0 0 -205z m780 -70 c19 -23 14 -77 -7 -93 -18 -13 -70 -9 -86 7
-13 13 -11 69 3 86 7 8 27 15 45 15 18 0 38 -7 45 -15z m94 -2 c-6 -2 -19 -10
-29 -17 -17 -12 -16 -13 5 -12 30 1 49 -28 34 -51 -25 -40 -74 -21 -74 28 0
22 8 34 32 49 18 10 35 17 38 13 3 -3 0 -8 -6 -10z m75 -53 c12 0 21 8 24 23
2 12 4 2 4 -23 1 -25 -1 -37 -4 -27 -7 26 -51 22 -56 -5 -2 -13 -5 0 -5 27 -1
39 1 45 8 28 5 -13 18 -23 29 -23z m117 32 c21 -14 23 -41 5 -64 -16 -20 -22
-21 -45 -10 -17 8 -26 19 -26 35 0 38 36 60 66 39z m90 0 c17 -11 15 -69 -3
-76 -31 -12 -53 4 -53 38 0 18 3 36 7 39 8 9 35 9 49 -1z m102 -34 c2 -22 -1
-38 -7 -38 -6 0 -11 16 -11 35 0 26 -3 33 -15 29 -8 -4 -15 -16 -15 -29 0 -12
-7 -28 -15 -35 -9 -8 -15 -9 -15 -2 0 6 5 14 10 17 6 3 10 20 10 36 0 27 3 30
28 27 23 -3 27 -8 30 -40z m92 23 c15 -29 13 -31 -25 -31 -19 0 -35 -4 -35 -9
0 -13 27 -21 47 -14 11 4 14 3 9 -5 -20 -32 -82 10 -68 47 13 35 55 42 72 12z
m40 -7 c0 -8 9 -14 20 -14 11 0 20 6 20 14 0 8 5 18 10 21 6 4 10 -10 10 -34
0 -23 -4 -41 -10 -41 -5 0 -10 7 -10 15 0 8 -9 15 -20 15 -11 0 -20 -7 -20
-15 0 -8 -4 -15 -9 -15 -5 0 -9 18 -9 40 -1 23 3 38 9 35 5 -4 9 -13 9 -21z
m111 -14 c11 0 24 10 29 23 7 18 9 13 8 -23 0 -25 -2 -37 -5 -27 -7 26 -51 22
-56 -5 -2 -13 -4 0 -4 27 0 28 2 40 4 28 3 -15 12 -23 24 -23z m104 4 c27 -15
29 -31 6 -43 -33 -18 -51 -3 -51 43 1 34 3 38 13 26 7 -8 21 -20 32 -26z m42
-26 c-2 -13 -4 -3 -4 22 0 25 2 35 4 23 2 -13 2 -33 0 -45z m97 46 c25 -24 19
-34 -20 -34 -24 0 -34 -4 -31 -12 2 -7 17 -12 33 -11 25 2 27 1 10 -9 -23 -13
-66 4 -66 27 0 48 43 71 74 39z m-720 -187 c3 3 6 -12 6 -34 0 -33 -4 -42 -22
-46 -33 -9 -58 10 -58 43 0 33 26 53 51 40 9 -5 19 -6 23 -3z m-279 -6 c3 -6
-7 -9 -22 -8 -24 2 -28 -2 -28 -23 0 -21 4 -25 28 -23 29 2 37 -11 11 -21 -36
-14 -72 30 -54 65 11 20 54 26 65 10z m73 2 c-13 -3 -19 -16 -20 -41 l-1 -37
-4 37 c-3 24 -10 38 -21 41 -9 3 1 5 23 5 22 0 32 -2 23 -5z m110 -30 c3 -34
-23 -58 -51 -47 -11 4 -17 -2 -20 -18 -2 -13 -5 4 -6 38 l-1 61 38 -1 c34 -1
37 -3 40 -33z m180 30 c-13 -3 -18 -15 -19 -41 -2 -34 -2 -34 -6 -7 -2 17 -12
36 -21 43 -13 10 -10 12 24 11 21 -1 31 -3 22 -6z m90 -5 c23 -23 13 -38 -24
-38 -23 0 -33 -4 -28 -11 3 -6 17 -9 30 -6 27 5 33 -8 8 -17 -19 -7 -50 8 -58
29 -15 40 41 74 72 43z m65 5 c-17 -3 -23 -13 -26 -41 l-4 -37 -1 43 c-2 40
-1 42 26 41 22 -1 23 -2 5 -6z m45 -18 c-3 -14 -1 -25 3 -25 5 0 16 11 25 25
23 35 30 31 32 -15 1 -24 -3 -40 -9 -40 -7 0 -9 10 -7 25 3 14 2 25 -2 25 -4
0 -15 -11 -24 -25 -23 -35 -32 -31 -34 15 -1 24 3 40 9 40 7 0 9 -10 7 -25z
m123 1 l29 28 -1 -45 c-2 -29 -3 -35 -6 -16 -2 15 -6 27 -9 27 -3 0 -16 -12
-29 -27 l-24 -28 1 45 c1 31 2 36 5 16 l5 -28 29 28z m-711 -195 l29 34 -1
-50 c-1 -38 -2 -42 -5 -16 l-4 34 -29 -34 -29 -34 1 50 c1 38 2 42 5 16 l4
-34 29 34z m150 19 c0 -5 -4 -10 -10 -10 -5 0 -10 -13 -10 -30 0 -16 -4 -30
-8 -30 -5 0 -7 14 -4 30 3 23 0 30 -12 30 -9 0 -16 5 -16 10 0 6 14 10 30 10
17 0 30 -4 30 -10z m100 -31 c0 -31 -4 -38 -25 -43 -29 -7 -41 -3 -54 23 -15
28 13 61 49 58 27 -2 30 -5 30 -38z m35 20 c-10 -15 7 -10 27 8 10 9 18 11 18
5 0 -6 -10 -19 -23 -29 -13 -10 -22 -24 -19 -31 2 -6 -1 -12 -7 -12 -6 0 -11
18 -11 41 0 25 4 38 10 34 6 -4 8 -11 5 -16z m125 11 c0 -5 -4 -10 -10 -10 -5
0 -10 -16 -10 -36 0 -19 -4 -33 -8 -30 -5 3 -7 19 -4 36 3 23 0 30 -12 30 -9
0 -16 5 -16 10 0 6 14 10 30 10 17 0 30 -4 30 -10z m37 -21 c-7 -25 5 -24 28
1 25 28 31 25 33 -15 2 -19 -2 -35 -8 -35 -5 0 -10 12 -10 26 l0 27 -21 -27
c-28 -36 -35 -33 -38 15 -1 28 2 39 9 34 7 -4 10 -16 7 -26z m112 15 c7 9 18
16 24 16 5 0 2 -9 -7 -19 -17 -18 -17 -21 0 -48 l18 -28 -26 23 c-24 22 -27
22 -31 5 -3 -10 -5 2 -5 27 0 29 2 38 7 27 6 -17 8 -17 20 -3z m92 -14 l28 35
-1 -50 c-1 -38 -2 -42 -5 -16 l-4 34 -29 -34 -29 -34 1 50 c1 40 2 43 5 15 l5
-35 29 35z m-316 -58 c-6 -7 -35 18 -35 31 0 5 9 2 20 -8 11 -10 18 -20 15
-23z m-1561 -546 c70 -21 123 -60 148 -109 41 -80 47 -136 47 -427 0 -294 -6
-352 -49 -428 -89 -157 -404 -163 -507 -9 -50 74 -55 121 -51 469 l3 313 30
60 c51 101 128 143 266 144 36 1 87 -5 113 -13z m-874 -21 c0 -37 63 -276 70
-268 7 6 70 260 70 279 0 2 63 4 140 4 77 0 140 -3 140 -7 0 -3 -36 -120 -81
-258 l-80 -252 59 -194 c71 -228 102 -334 102 -343 0 -3 -62 -6 -139 -6 l-138
0 -33 153 c-17 83 -36 156 -40 160 -7 8 -16 -25 -58 -223 l-19 -85 -141 -3
-141 -3 15 53 c31 106 145 472 149 478 4 6 -51 182 -150 488 l-14 42 145 0
c123 0 144 -2 144 -15z m1630 -20 c46 -25 59 -40 85 -89 27 -54 30 -69 30
-156 0 -82 -3 -102 -25 -144 -16 -32 -37 -55 -57 -65 -37 -18 -42 -31 -14 -31
33 0 79 -48 96 -101 14 -40 16 -77 13 -168 -3 -100 -7 -122 -28 -160 -53 -94
-110 -111 -382 -111 l-198 0 0 531 0 531 213 -4 212 -3 55 -30z m724 18 c10
-33 34 -186 96 -598 33 -226 62 -418 64 -428 4 -16 -6 -17 -127 -15 l-132 3
-3 30 c-1 17 -5 54 -8 83 l-5 52 -79 0 -78 0 -7 -85 -7 -85 -129 0 c-97 0
-129 3 -129 13 0 33 134 915 152 995 l11 52 188 0 c170 0 188 -2 193 -17z
m713 -11 c51 -27 78 -54 106 -107 20 -36 22 -55 22 -195 0 -127 -3 -163 -18
-200 -39 -94 -99 -131 -232 -139 l-90 -6 -3 -192 -2 -193 -130 0 -130 0 0 531
0 531 218 -4 c202 -3 220 -5 259 -26z m845 -369 l3 -398 48 -3 47 -3 0 -190 0
-189 -120 0 -120 0 0 85 0 85 -170 0 c-93 0 -173 0 -176 0 -4 0 -7 -37 -8 -83
l-1 -82 -117 -3 -118 -3 0 193 0 193 47 0 48 0 18 54 c29 88 36 180 37 469 l0
272 290 0 290 0 2 -397z m-4538 -1732 c11 -9 15 -9 18 0 7 20 38 2 38 -21 0
-13 -7 -20 -20 -20 -11 0 -20 5 -20 11 0 8 -5 8 -15 -1 -12 -10 -15 -9 -16 6
-1 17 -2 17 -6 2 -6 -26 -23 -22 -24 5 -1 21 -1 21 -8 -3 l-7 -25 -7 24 c-3
14 -4 28 -1 32 6 10 51 4 68 -10z m874 -32 c4 -21 -26 -33 -44 -18 -7 6 -10
17 -7 25 7 20 47 14 51 -7z m4097 -9 c17 -11 37 -25 45 -31 14 -10 47 1 123
39 4 2 4 -3 1 -11 -3 -8 -48 -34 -100 -57 -51 -24 -99 -49 -105 -56 -12 -14
-49 -20 -49 -8 0 19 42 144 48 144 4 0 21 -9 37 -20z m-4813 -12 c3 -20 8 -22
36 -20 48 5 72 -20 72 -74 0 -55 -24 -72 -97 -72 l-53 0 0 94 c0 86 2 94 19
94 13 0 21 -8 23 -22z m-234 -36 c3 -18 -1 -22 -18 -20 -26 3 -46 -22 -36 -47
4 -12 14 -16 31 -13 21 4 25 1 25 -17 0 -46 -77 -37 -99 12 -17 37 -13 62 14
89 32 32 78 30 83 -4z m81 -9 l19 -38 15 38 c11 26 22 37 36 37 12 0 21 -4 21
-8 0 -5 -17 -49 -39 -98 -33 -77 -42 -89 -65 -92 l-26 -3 17 36 c17 35 16 36
-10 90 -32 66 -33 75 -7 75 12 0 26 -13 39 -37z m415 5 c21 -30 21 -69 1 -62
-8 4 -15 2 -15 -4 0 -5 8 -13 18 -17 15 -6 15 -8 -7 -26 -32 -26 -77 -24 -106
6 -30 30 -32 64 -4 99 27 35 90 37 113 4z m126 2 c0 -10 -9 -20 -20 -23 -17
-4 -20 -14 -20 -57 0 -48 -2 -51 -22 -48 -21 3 -23 9 -26 75 l-3 72 46 -1 c36
0 45 -4 45 -18z m82 -17 l14 -38 13 38 c8 25 19 37 31 37 12 0 23 -12 31 -37
l13 -38 14 38 c11 28 20 37 38 37 28 0 28 2 8 -46 -9 -22 -22 -53 -29 -71 -17
-40 -51 -36 -60 8 -9 38 -20 37 -31 -3 -9 -30 -38 -46 -49 -28 -3 5 -17 38
-30 74 l-25 66 24 0 c18 0 27 -9 38 -37z m242 -36 c1 -63 0 -67 -21 -67 -22 0
-23 4 -23 71 0 66 1 70 21 67 19 -3 21 -10 23 -71z m116 53 c0 -10 -9 -20 -20
-23 -17 -4 -20 -14 -20 -54 0 -45 -2 -50 -22 -48 -21 2 -23 7 -25 73 l-1 71
44 -1 c35 0 44 -4 44 -18z m140 -2 c33 -36 26 -58 -17 -59 -21 -1 -44 -1 -50
0 -7 1 -13 -3 -13 -9 0 -17 31 -24 50 -12 13 8 22 8 35 -2 16 -11 15 -14 -9
-29 -36 -24 -73 -21 -101 7 -29 29 -28 75 0 106 25 27 78 26 105 -2z m3990
-13 c-7 -8 -16 -15 -21 -15 -7 0 -103 -43 -151 -68 -5 -2 -8 1 -8 7 0 11 182
103 189 95 2 -2 -2 -10 -9 -19z m-6 -38 c-2 -7 -21 -19 -42 -26 -20 -8 -50
-23 -65 -33 -32 -23 -52 -14 -22 9 20 15 114 61 127 62 4 1 5 -5 2 -12z"/>
<path d="M3302 6368 l3 -183 40 3 c63 5 67 17 63 180 -3 137 -4 145 -27 163
-13 10 -36 19 -52 19 l-29 0 2 -182z"/>
<path d="M4948 6855 l3 -175 28 0 c15 0 36 6 47 14 17 13 19 29 22 154 4 168
-1 182 -61 182 l-42 0 3 -175z"/>
<path d="M2155 5558 c-3 -8 -4 -79 -3 -158 3 -121 5 -145 18 -145 13 0 15 24
15 154 0 115 -3 155 -12 158 -7 3 -15 -2 -18 -9z"/>
<path d="M3822 5557 c-7 -8 -10 -64 -9 -158 2 -137 3 -144 22 -144 19 0 20 7
20 154 0 153 -6 181 -33 148z"/>
<path d="M1222 5323 c2 -52 6 -68 18 -68 12 0 15 14 15 65 0 54 -3 65 -18 68
-16 3 -18 -3 -15 -65z"/>
<path d="M2825 5453 c-9 -111 -9 -108 18 -108 16 0 22 5 20 20 -8 117 -16 175
-23 175 -4 0 -11 -39 -15 -87z"/>
<path d="M4787 5403 c-9 -8 -9 -137 -1 -146 3 -3 12 -3 20 0 19 7 20 126 1
142 -8 6 -17 8 -20 4z"/>
<path d="M1639 4809 c0 -2 -3 -34 -6 -71 -4 -59 -3 -68 12 -68 15 0 16 8 10
68 -6 57 -13 88 -16 71z"/>
<path d="M1886 4823 c-13 -13 -6 -63 9 -63 10 0 15 10 15 29 0 30 -12 46 -24
34z"/>
<path d="M1880 4650 c0 -29 4 -40 15 -40 11 0 15 11 15 40 0 29 -4 40 -15 40
-11 0 -15 -11 -15 -40z"/>
<path d="M2360 4660 c0 -37 4 -50 13 -47 7 2 12 21 12 47 0 26 -5 45 -12 48
-9 2 -13 -11 -13 -48z"/>
<path d="M3240 4785 c0 -33 4 -45 13 -42 7 2 12 20 12 42 0 22 -5 40 -12 43
-9 2 -13 -10 -13 -43z"/>
<path d="M4720 4660 c0 -37 4 -50 13 -47 7 2 12 21 12 47 0 26 -5 45 -12 48
-9 2 -13 -11 -13 -48z"/>
<path d="M1362 3933 c3 -137 3 -138 27 -139 49 -3 61 26 61 140 0 117 -9 136
-61 136 l-30 0 3 -137z"/>
<path d="M3472 3988 c-26 -26 -3 -88 33 -88 21 0 45 29 45 54 0 28 -18 46 -45
46 -12 0 -26 -5 -33 -12z"/>
<path d="M3600 3944 c-11 -12 -10 -18 3 -32 16 -15 18 -15 33 0 19 18 12 48
-9 48 -8 0 -20 -7 -27 -16z"/>
<path d="M3792 3958 c-16 -16 -15 -33 2 -47 22 -18 48 -2 44 28 -3 28 -27 38
-46 19z"/>
<path d="M3885 3950 c3 -5 12 -10 20 -10 8 0 17 5 20 10 4 6 -5 10 -20 10 -15
0 -24 -4 -20 -10z"/>
<path d="M3885 3920 c3 -5 15 -10 26 -10 10 0 19 5 19 10 0 6 -12 10 -26 10
-14 0 -23 -4 -19 -10z"/>
<path d="M4073 3963 c-22 -8 -14 -23 13 -23 15 0 24 5 22 12 -5 14 -18 18 -35
11z"/>
<path d="M4350 3925 c0 -8 7 -15 15 -15 8 0 15 4 15 9 0 5 -7 11 -15 15 -9 3
-15 0 -15 -9z"/>
<path d="M4467 3964 c-14 -14 -6 -24 19 -24 16 0 24 5 22 13 -5 14 -31 21 -41
11z"/>
<path d="M3734 3756 c-10 -26 4 -48 28 -44 17 2 23 10 23 28 0 18 -6 26 -23
28 -13 2 -25 -3 -28 -12z"/>
<path d="M3634 3756 c-10 -26 4 -48 28 -44 17 2 23 10 23 28 0 18 -6 26 -23
28 -13 2 -25 -3 -28 -12z"/>
<path d="M3917 3764 c-14 -14 -6 -24 19 -24 16 0 24 5 22 13 -5 14 -31 21 -41
11z"/>
<path d="M3682 3568 c-16 -16 -15 -33 4 -48 22 -19 54 12 38 37 -14 22 -27 26
-42 11z"/>
<path d="M2131 2744 c-21 -15 -21 -21 -21 -315 0 -188 4 -308 10 -320 6 -11
21 -19 35 -19 14 0 29 8 35 19 13 26 14 595 0 620 -14 27 -35 32 -59 15z"/>
<path d="M2809 2673 c0 -38 -1 -85 -3 -105 -2 -32 0 -38 16 -38 11 0 28 5 39
10 17 9 19 22 19 99 0 93 -4 101 -51 101 -17 0 -19 -8 -20 -67z"/>
<path d="M2810 2330 c-1 -5 -1 -61 -1 -122 -1 -106 1 -113 20 -116 11 -2 29 2
40 8 19 10 21 20 21 113 0 67 -4 107 -12 115 -14 14 -68 16 -68 2z"/>
<path d="M3535 2688 c-8 -26 -38 -388 -33 -394 3 -3 28 -4 54 -2 l49 3 -19
203 c-15 156 -22 202 -33 202 -7 0 -15 -6 -18 -12z"/>
<path d="M4243 2613 c2 -134 3 -138 24 -141 12 -2 31 6 42 17 19 19 21 33 21
125 0 116 -9 136 -60 136 l-30 0 3 -137z"/>
<path d="M4965 2712 c-3 -3 -5 -57 -5 -121 0 -178 -19 -356 -47 -427 -4 -11 8
-14 61 -14 l66 0 -2 282 -3 282 -32 2 c-18 1 -35 -1 -38 -4z"/>
<path d="M5689 725 c-9 -25 -14 -45 -11 -45 4 0 69 37 81 47 7 5 -31 43 -43
43 -6 0 -18 -20 -27 -45z"/>
<path d="M929 694 c-9 -11 -10 -20 -2 -32 14 -23 49 -27 57 -6 17 43 -26 73
-55 38z"/>
<path d="M1110 705 c-11 -13 -10 -15 6 -12 20 3 31 20 16 25 -5 1 -15 -4 -22
-13z"/>
<path d="M1103 656 c2 -6 14 -11 27 -11 13 0 25 5 27 11 2 6 -10 11 -27 11
-17 0 -29 -5 -27 -11z"/>
<path d="M1823 713 c-22 -8 -14 -20 12 -20 14 0 24 4 22 10 -4 13 -18 17 -34
10z"/>
</g>
</svg>
