<?xml version="1.0" standalone="no"?>
<!DOCTYPE svg PUBLIC "-//W3C//DTD SVG 20010904//EN"
 "http://www.w3.org/TR/2001/REC-SVG-20010904/DTD/svg10.dtd">
<svg version="1.0" xmlns="http://www.w3.org/2000/svg"
 width="600.000000pt" height="861.000000pt" viewBox="0 0 600.000000 861.000000"
 preserveAspectRatio="xMidYMid meet">

<g transform="translate(0.000000,861.000000) scale(0.100000,-0.100000)"
fill="#000000" stroke="none">
<path d="M0 4305 l0 -4305 3000 0 3000 0 0 4305 0 4305 -3000 0 -3000 0 0
-4305z m610 3904 c0 -21 3 -39 8 -39 4 0 23 18 43 41 48 56 69 47 24 -10 l-35
-43 37 -45 c24 -29 33 -47 26 -54 -7 -7 -23 7 -49 40 -21 28 -42 51 -46 51 -4
0 -8 -20 -8 -44 0 -30 -5 -46 -15 -50 -13 -4 -15 10 -15 93 0 54 3 101 6 104
14 13 24 -6 24 -44z m800 -50 c23 -66 29 -94 21 -102 -8 -8 -14 -2 -22 21 -10
28 -15 32 -48 32 -32 0 -38 -4 -48 -31 -7 -17 -16 -28 -22 -25 -8 5 22 109 54
188 13 32 33 6 65 -83z m840 65 c0 -17 6 -24 18 -24 29 0 54 -35 54 -75 0 -41
-13 -61 -47 -69 -18 -5 -25 -13 -25 -31 0 -14 -6 -25 -14 -25 -7 0 -13 10 -12
23 1 15 -7 26 -26 34 -61 26 -62 118 -2 138 22 7 30 15 28 29 -2 11 -1 24 2
28 9 15 24 -2 24 -28z m200 1 c0 -16 6 -25 15 -25 26 0 55 -38 55 -73 0 -39
-17 -64 -45 -69 -13 -2 -21 -12 -23 -31 -4 -34 -32 -37 -32 -3 0 18 -8 27 -30
34 -32 12 -44 39 -38 88 2 21 12 33 35 44 22 10 33 22 33 38 0 13 6 22 15 22
9 0 15 -9 15 -25z m-1613 -33 c37 -23 35 -104 -3 -128 -47 -32 -102 17 -90 81
9 46 56 71 93 47z m168 -14 c38 -56 2 -136 -56 -123 -27 6 -29 5 -29 -24 0
-17 -4 -31 -10 -31 -6 0 -10 39 -10 98 l0 98 45 2 c36 1 47 -3 60 -20z m77
-25 l3 -48 30 47 c44 70 57 64 53 -24 -3 -81 -20 -98 -28 -29 l-5 45 -28 -42
c-42 -64 -57 -56 -57 28 0 54 3 70 14 70 11 0 16 -14 18 -47z m506 -25 c-4
-89 -22 -96 -26 -10 -3 58 -4 62 -27 62 -22 0 -25 -4 -25 -41 0 -51 -15 -79
-42 -79 -20 0 -21 1 -3 20 10 11 20 42 23 70 l5 50 49 0 49 0 -3 -72z m72 42
c0 -26 4 -30 28 -30 32 0 46 -9 55 -32 10 -28 -15 -48 -65 -52 l-48 -4 0 74
c0 59 3 74 15 74 10 0 15 -10 15 -30z m200 20 c0 -5 -9 -10 -20 -10 -16 0 -19
-8 -22 -62 -2 -35 -7 -63 -13 -63 -5 0 -11 28 -13 63 -3 54 -6 62 -22 62 -11
0 -20 5 -20 10 0 6 25 10 55 10 30 0 55 -4 55 -10z m54 -12 l15 -21 20 24 c26
32 37 18 15 -19 -16 -29 -16 -31 6 -66 28 -46 17 -62 -15 -21 l-24 29 -21 -27
c-30 -38 -43 -24 -18 19 20 34 20 37 5 64 -10 15 -17 31 -17 34 0 14 20 4 34
-16z m200 0 c22 -31 20 -84 -4 -108 -24 -24 -48 -25 -78 -4 -27 19 -31 93 -6
118 23 24 70 20 88 -6z m-1513 -239 c-5 -13 -10 -19 -10 -12 -1 15 10 45 15
40 3 -2 0 -15 -5 -28z m157 9 c15 -15 16 -63 2 -89 -22 -41 -80 -11 -80 41 0
48 48 78 78 48z m2212 -35 c0 -43 -5 -41 -13 5 -4 18 -2 32 3 32 6 0 10 -16
10 -37z m-2331 -42 c-7 -23 -14 -39 -16 -37 -3 2 1 23 8 45 7 23 14 39 16 37
3 -2 -1 -23 -8 -45z m170 30 c-17 -27 -4 -55 23 -48 16 5 18 3 9 -6 -14 -14
-44 2 -49 27 -5 22 5 46 18 46 7 0 6 -7 -1 -19z m101 -11 c10 0 21 8 23 18 3
9 5 -3 4 -28 0 -25 -2 -35 -4 -22 -3 13 -12 22 -23 22 -11 0 -20 -9 -23 -22
-2 -13 -4 -3 -4 22 -1 25 1 37 4 28 2 -10 13 -18 23 -18z m75 -2 c0 -24 5 -34
19 -36 16 -3 18 1 14 32 -2 21 0 32 5 27 5 -5 7 -21 5 -37 -2 -23 -8 -29 -28
-29 -19 0 -26 6 -28 23 -3 21 3 52 10 52 2 0 3 -15 3 -32z m89 17 c-4 -11 0
-15 16 -15 16 0 20 4 16 15 -3 8 -1 15 4 15 5 0 8 -17 7 -37 -2 -33 -5 -38
-29 -41 -27 -3 -28 -1 -28 37 0 23 4 41 10 41 5 0 7 -7 4 -15z m136 -32 c0
-29 -37 -41 -59 -19 -14 15 -14 18 -1 26 8 5 23 10 32 10 12 0 16 5 12 18 -5
14 -4 15 5 2 6 -8 11 -25 11 -37z m60 17 c10 0 21 8 23 18 3 9 5 -3 4 -28 0
-25 -2 -35 -4 -22 -3 13 -12 22 -23 22 -11 0 -20 -9 -23 -22 -2 -13 -4 -3 -4
22 -1 25 1 37 4 28 2 -10 13 -18 23 -18z m72 -4 c-3 -23 1 -36 10 -39 9 -3 9
-4 -2 -3 -16 1 -25 38 -16 62 9 24 12 16 8 -20z m48 -1 c0 -19 -2 -35 -4 -35
-2 0 -6 16 -8 35 -2 19 0 35 4 35 4 0 8 -16 8 -35z m110 5 c10 0 21 8 23 18 3
9 5 -3 4 -28 0 -25 -2 -35 -4 -22 -3 13 -12 22 -23 22 -11 0 -20 -9 -23 -22
-2 -13 -4 -3 -4 22 -1 25 1 37 4 28 2 -10 13 -18 23 -18z m120 -9 c0 -35 -2
-38 -27 -37 -37 1 -40 39 -5 44 16 2 22 8 18 18 -3 8 -1 14 4 14 6 0 10 -17
10 -39z m96 7 c-1 -27 3 -33 19 -33 24 0 34 43 13 56 -10 7 -10 9 0 9 17 0 25
-25 18 -56 -6 -21 -12 -25 -31 -22 -18 4 -25 0 -28 -16 -2 -12 -5 5 -6 37 0
31 3 57 8 57 5 0 8 -15 7 -32z m88 17 c-4 -11 0 -15 16 -15 16 0 20 4 16 15
-3 8 -1 15 4 15 6 0 10 -9 10 -20 0 -15 -7 -20 -26 -20 -16 0 -24 -5 -21 -12
2 -7 14 -13 26 -12 13 0 18 -3 12 -9 -18 -18 -51 3 -51 32 0 15 3 31 7 34 10
11 13 8 7 -8z m136 -32 c0 -13 -4 -23 -10 -23 -5 0 -7 7 -4 15 4 10 0 15 -15
15 -12 0 -21 -6 -21 -15 0 -8 5 -15 12 -15 6 0 8 -3 5 -6 -11 -11 -36 16 -30
32 3 8 16 14 29 14 18 0 22 4 18 18 -5 14 -4 15 5 2 6 -8 11 -25 11 -37z m42
12 c-2 -19 -7 -35 -11 -35 -4 0 -5 16 -3 35 2 19 7 35 11 35 4 0 5 -16 3 -35z
m48 -5 c0 -22 -2 -40 -4 -40 -2 0 -6 18 -8 40 -2 22 0 40 4 40 5 0 8 -18 8
-40z m63 8 c34 -5 29 -42 -5 -46 -27 -3 -28 -2 -27 40 1 24 3 35 6 26 2 -9 14
-18 26 -20z m87 2 c10 0 21 8 23 18 3 9 5 -3 4 -28 0 -25 -2 -35 -4 -22 -3 13
-12 22 -23 22 -11 0 -20 -9 -23 -22 -2 -13 -4 -3 -4 22 -1 25 1 37 4 28 2 -10
13 -18 23 -18z m72 -5 c-4 -31 -1 -35 18 -35 19 0 22 4 18 35 -2 19 0 35 5 35
4 0 7 -17 5 -37 -3 -33 -6 -38 -28 -38 -19 0 -26 6 -28 23 -3 22 3 52 11 52 1
0 1 -16 -1 -35z m103 15 c3 -11 10 -20 15 -20 5 0 12 9 15 20 11 33 25 23 24
-17 -1 -37 -2 -37 -8 -8 -7 29 -7 29 -15 8 -4 -13 -11 -23 -16 -23 -5 0 -12
10 -16 23 -7 20 -9 19 -15 -13 l-6 -35 -2 43 c-1 44 13 57 24 22z m150 -12 c0
-23 5 -33 15 -33 10 0 15 10 15 32 0 18 4 28 8 24 5 -5 7 -21 5 -37 -2 -23 -8
-29 -28 -29 -19 0 -26 6 -28 23 -3 21 3 52 10 52 2 0 3 -15 3 -32z m87 -8 c-2
-22 -6 -40 -8 -40 -2 0 -4 18 -4 40 0 22 3 40 8 40 4 0 6 -18 4 -40z m98 26
c0 -8 10 -17 23 -19 17 -3 15 -5 -8 -6 -24 -1 -31 3 -32 19 -1 11 2 20 8 20 5
0 9 -6 9 -14z m77 -38 c-2 -13 -4 -5 -4 17 -1 22 1 32 4 23 2 -10 2 -28 0 -40z
m55 17 c-2 -19 -6 -35 -8 -35 -2 0 -4 16 -4 35 0 19 4 35 8 35 4 0 6 -16 4
-35z m52 20 c-4 -11 0 -15 16 -15 16 0 20 4 16 15 -3 8 -1 15 4 15 6 0 10 -2
10 -4 0 -2 3 -11 6 -20 5 -13 -1 -16 -26 -16 -21 0 -30 -4 -27 -12 2 -7 14
-13 26 -12 15 0 19 -2 11 -10 -13 -13 -44 4 -48 28 -4 18 4 46 12 46 3 0 3 -7
0 -15z m-2293 -26 c-5 -13 -10 -19 -10 -12 -1 15 10 45 15 40 3 -2 0 -15 -5
-28z m2056 -16 c-3 -10 -5 -4 -5 12 0 17 2 24 5 18 2 -7 2 -21 0 -30z m56 -5
c3 -10 9 -10 26 0 11 7 21 8 21 3 0 -22 -55 -28 -64 -6 -3 8 -1 15 3 15 5 0
11 -6 14 -12z m-2111 -263 c2 -21 0 -35 -7 -35 -9 0 -11 18 -6 63 2 19 9 4 13
-28z m270 7 c-16 -5 -15 -29 1 -35 7 -3 5 -6 -5 -6 -13 -1 -18 7 -18 29 0 24
3 28 17 23 11 -4 12 -8 5 -11z m-203 -19 l-1 -28 -8 25 c-8 24 -8 24 -9 3 -1
-31 -21 -29 -21 2 0 18 5 25 20 25 15 0 20 -6 19 -27z m24 6 c-4 -16 -2 -20 8
-17 8 3 13 14 11 24 -2 11 0 15 5 8 4 -5 19 -18 33 -27 18 -12 20 -17 8 -17
-9 0 -19 6 -21 13 -4 8 -8 9 -14 1 -4 -6 -16 -13 -25 -17 -15 -5 -18 -1 -18
23 0 17 4 30 9 30 5 0 7 -10 4 -21z m84 1 c3 -10 2 -11 -4 -4 -4 6 -15 14 -23
17 -11 5 -9 6 4 4 11 -1 21 -9 23 -17z m35 -5 c-2 -14 -6 -25 -8 -25 -2 0 -4
11 -4 25 0 14 4 25 9 25 4 0 6 -11 3 -25z m172 -17 c-3 -4 -11 -8 -17 -8 -8 0
-8 3 1 9 11 7 11 9 -2 14 -9 4 -16 11 -16 17 0 5 9 2 19 -7 11 -9 18 -20 15
-25z m48 23 c6 10 7 6 3 -11 -9 -32 -21 -44 -21 -22 -1 9 -4 26 -8 37 -7 19
-7 19 4 1 10 -15 14 -16 22 -5z m50 10 c-11 -7 -10 -9 3 -15 20 -7 10 -26 -13
-25 -14 0 -14 2 2 8 18 7 18 8 3 14 -22 8 -22 27 1 27 13 0 14 -2 4 -9z m-148
-250 c3 -5 -2 -8 -12 -7 -11 1 -17 -6 -17 -19 0 -13 6 -20 17 -19 10 1 15 -2
12 -7 -9 -15 -31 -10 -38 7 -13 35 20 74 38 45z m316 -21 c0 -26 -2 -29 -14
-18 -10 9 -11 15 -2 21 8 5 7 10 -4 17 -13 8 -12 10 3 10 12 0 17 -8 17 -30z
m202 -5 c2 -21 0 -35 -7 -35 -7 0 -9 14 -7 35 2 19 5 35 7 35 2 0 5 -16 7 -35z
m-648 10 c-4 -9 0 -15 10 -15 9 0 16 -7 16 -15 0 -8 -9 -15 -19 -15 -16 0 -19
6 -17 28 4 31 4 32 11 32 2 0 2 -7 -1 -15z m379 -11 c-3 -9 0 -20 8 -26 12 -8
11 -9 -1 -5 -8 2 -16 16 -18 31 -2 18 0 26 7 22 5 -4 7 -14 4 -22z m-519 -26
c6 -5 3 -8 -10 -8 -18 0 -20 4 -16 28 5 22 7 24 10 7 2 -11 9 -23 16 -27z m56
17 c0 -18 -5 -25 -20 -25 -25 0 -25 8 -2 31 22 23 22 23 22 -6z m54 -17 c-3
-4 -13 -8 -22 -7 -14 0 -14 2 2 8 18 7 18 8 3 14 -9 3 -17 11 -17 17 0 5 9 2
19 -7 11 -9 18 -20 15 -25z m215 0 c1 -5 -8 -8 -19 -8 -23 0 -26 14 -7 34 10
12 13 11 19 -3 4 -9 7 -19 7 -23z m50 15 c-2 -24 -2 -25 -6 -5 -2 12 -8 22
-13 22 -5 0 -11 -10 -13 -22 -4 -20 -4 -19 -6 5 -1 21 4 27 19 27 15 0 20 -6
19 -27z m93 -13 c6 0 8 10 5 21 -4 16 -3 19 5 11 14 -14 3 -42 -17 -42 -10 0
-15 9 -14 28 2 23 2 24 6 5 2 -13 9 -23 15 -23z m164 4 c9 3 12 1 9 -4 -13
-21 -35 -10 -34 18 2 24 2 25 6 4 3 -16 10 -22 19 -18z m86 14 c-4 -17 -2 -20
11 -15 10 4 17 2 17 -3 0 -13 -27 -13 -35 0 -4 6 -4 17 -1 25 8 23 15 18 8 -7z
m129 12 c9 13 10 12 5 -3 -3 -10 -6 -24 -6 -30 0 -7 -7 -3 -15 7 -8 11 -15 25
-15 30 0 6 5 4 10 -4 9 -13 11 -13 21 0z m36 -5 c0 -8 -4 -15 -9 -15 -10 0
-11 14 -1 23 9 10 10 9 10 -8z m-187 -20 c0 -8 -9 -15 -20 -15 -11 0 -20 4
-20 10 0 5 7 6 17 3 11 -4 14 -3 9 5 -4 7 -2 12 3 12 6 0 11 -7 11 -15z m210
0 c0 -8 -7 -15 -15 -15 -13 0 -14 3 -3 15 16 18 18 18 18 0z m-956 -7 c-3 -4
-12 -8 -20 -8 -8 0 -14 4 -14 8 0 4 9 8 19 8 11 0 17 -4 15 -8z m213 -118 c1
-22 1 -22 -4 -2 -2 12 -9 22 -15 22 -6 0 -8 -9 -5 -19 2 -10 1 -25 -4 -32 -6
-9 -9 -1 -9 24 0 31 3 38 18 35 10 -2 18 -13 19 -28z m51 2 c2 -12 -2 -22 -8
-22 -6 0 -8 5 -5 10 3 6 2 10 -4 10 -5 0 -12 -6 -15 -12 -4 -10 -2 19 3 40 3
13 27 -9 29 -26z m44 21 c-10 -4 -9 -8 3 -17 15 -11 15 -13 2 -25 -12 -9 -17
-9 -23 0 -4 8 -3 9 4 5 7 -4 12 -2 12 3 0 6 -4 11 -10 11 -5 0 -10 7 -10 15 0
8 8 15 18 14 11 0 12 -2 4 -6z m50 -2 c-11 -7 -11 -9 2 -14 9 -4 16 -12 15
-19 0 -10 -2 -10 -6 0 -2 6 -11 12 -19 12 -8 0 -14 7 -14 15 0 8 8 15 18 15
13 0 14 -2 4 -9z m-43 -278 c-1 -21 -3 -30 -6 -20 -2 9 -9 15 -14 12 -5 -4 -9
-1 -9 4 0 6 5 11 10 11 6 0 10 5 10 11 0 5 -4 7 -10 4 -5 -3 -10 -1 -10 4 0 6
7 11 15 11 11 0 15 -10 14 -37z m203 2 c2 -19 1 -35 -3 -35 -4 0 -9 16 -11 35
-2 19 -1 35 3 35 4 0 9 -16 11 -35z m335 -19 c-12 -31 -37 -18 -37 19 l0 36
21 -20 c13 -12 19 -26 16 -35z m43 9 c0 -36 -3 -45 -17 -45 -14 0 -15 2 -5 9
8 4 13 19 12 32 -3 32 -1 49 5 49 3 0 5 -20 5 -45z m159 15 c-6 -5 -9 -15 -6
-24 4 -9 3 -16 -2 -16 -9 0 -21 47 -14 54 3 3 12 2 20 -1 11 -4 12 -8 2 -13z
m-1055 2 c2 -4 -4 -8 -15 -8 -10 0 -19 4 -19 8 0 4 6 8 14 8 8 0 17 -4 20 -8z
m104 -20 c3 -17 -2 -22 -17 -22 -25 0 -28 18 -5 27 13 5 13 8 2 15 -10 8 -10
9 2 5 8 -2 16 -13 18 -25z m44 19 c-11 -7 -10 -9 3 -15 9 -3 13 -10 10 -16 -4
-6 -12 -5 -21 4 -19 20 -18 36 4 36 13 0 14 -2 4 -9z m64 -18 c2 -13 -1 -23
-7 -23 -5 0 -7 5 -4 10 3 6 2 10 -4 10 -5 0 -11 -6 -14 -12 -2 -7 -4 0 -4 15
-1 34 28 34 33 0z m161 11 c3 -8 0 -21 -7 -27 -10 -9 -11 -9 -6 1 4 6 3 12 -3
12 -5 0 -12 -6 -14 -12 -3 -7 -6 -1 -6 15 -1 30 25 39 36 11z m39 7 c-18 -7
-18 -8 -3 -14 22 -8 22 -27 0 -27 -14 0 -15 2 -5 9 11 7 10 9 -3 15 -20 7 -10
26 13 25 14 0 14 -2 -2 -8z m61 3 c-3 -3 -12 -4 -19 -1 -8 3 -5 6 6 6 11 1 17
-2 13 -5z m104 -9 c5 13 8 15 8 5 1 -17 -16 -47 -22 -40 -3 3 -8 16 -11 30 -6
23 -6 23 5 5 12 -19 12 -19 20 0z m59 0 c0 -8 -7 -15 -16 -15 -9 0 -12 -5 -8
-12 5 -10 4 -10 -6 -1 -7 6 -10 19 -7 27 8 20 37 21 37 1z m60 11 c0 -2 -7 -6
-15 -10 -8 -3 -15 -1 -15 4 0 6 7 10 15 10 8 0 15 -2 15 -4z m100 -6 c0 -5 -7
-7 -17 -3 -13 5 -15 2 -10 -17 4 -16 3 -20 -5 -12 -14 14 -3 42 17 42 8 0 15
-4 15 -10z m160 -5 c0 -8 -7 -15 -16 -15 -9 0 -12 -5 -8 -12 5 -10 4 -10 -6
-1 -7 6 -10 19 -7 27 8 20 37 21 37 1z m55 5 c3 -5 0 -7 -9 -4 -9 4 -16 -2
-19 -18 -4 -21 -4 -20 -6 5 -1 27 21 38 34 17z m-1011 -32 c-3 -4 -12 -8 -20
-8 -8 0 -14 4 -14 8 0 4 9 8 19 8 11 0 17 -4 15 -8z m41 2 c3 -5 1 -10 -4 -10
-6 0 -11 5 -11 10 0 6 2 10 4 10 3 0 8 -4 11 -10z m173 -115 c-3 -3 -9 2 -12
12 -6 14 -5 15 5 6 7 -7 10 -15 7 -18z m3759 -7 c-3 -7 -5 -2 -5 12 0 14 2 19
5 13 2 -7 2 -19 0 -25z m-3740 -10 c-3 -7 -5 -2 -5 12 0 14 2 19 5 13 2 -7 2
-19 0 -25z m-50 0 c-3 -8 -6 -5 -6 6 -1 11 2 17 5 13 3 -3 4 -12 1 -19z m128
-225 c-2 -10 -4 -27 -5 -38 -2 -17 -3 -16 -9 5 -8 27 -4 50 9 50 5 0 7 -8 5
-17z m687 -21 c2 -22 -1 -39 -7 -39 -6 0 -9 17 -7 39 2 21 5 38 7 38 2 0 5
-17 7 -38z m65 23 c0 -8 -4 -15 -8 -15 -4 0 -10 -10 -12 -22 -3 -17 -5 -15 -6
9 0 17 5 34 12 36 6 3 12 6 13 6 0 1 1 -6 1 -14z m-855 -57 c-6 -6 -15 -7 -21
-4 -17 11 -13 44 7 55 14 8 18 5 20 -16 2 -14 -1 -30 -6 -35z m417 25 c-1 -37
-1 -37 -8 -8 -7 28 -5 45 5 45 2 0 3 -17 3 -37z m53 0 l-6 -28 -6 25 c-7 27
-3 43 9 35 5 -2 6 -17 3 -32z m-414 9 c2 -7 -3 -12 -12 -12 -9 0 -16 -5 -16
-11 0 -6 7 -8 18 -4 13 5 14 3 5 -6 -14 -14 -33 -3 -33 20 0 31 28 41 38 13z
m252 -12 c0 -16 -2 -30 -4 -30 -2 0 -6 14 -8 30 -3 17 -1 30 4 30 4 0 8 -13 8
-30z m67 -1 c1 -22 1 -22 -4 -1 -2 12 -9 22 -14 22 -5 0 -9 -10 -10 -22 0 -13
-3 -17 -6 -10 -7 19 5 44 20 40 6 -3 13 -15 14 -29z m319 3 c4 -25 -13 -39
-29 -23 -9 9 -8 11 6 6 10 -4 17 -2 17 4 0 6 -7 11 -15 11 -16 0 -20 12 -8 24
12 11 26 1 29 -22z m54 13 c0 -8 -7 -15 -16 -15 -8 0 -12 -5 -9 -10 4 -6 11
-7 17 -4 7 4 8 2 4 -4 -10 -16 -36 -3 -36 17 0 10 3 21 7 24 12 13 33 7 33 -8z
m193 0 c-3 -9 -8 -14 -10 -11 -3 3 -2 9 2 15 9 16 15 13 8 -4z m114 -7 c-3 -8
-6 -5 -6 6 -1 11 2 17 5 13 3 -3 4 -12 1 -19z m-799 -45 c-16 -2 -40 -2 -55 0
-16 2 -3 4 27 4 30 0 43 -2 28 -4z m275 0 c-7 -2 -19 -2 -25 0 -7 3 -2 5 12 5
14 0 19 -2 13 -5z m60 0 c-7 -2 -21 -2 -30 0 -10 3 -4 5 12 5 17 0 24 -2 18
-5z m-281 -88 c2 -20 0 -35 -7 -35 -5 0 -10 16 -10 35 0 19 3 35 6 35 4 0 9
-16 11 -35z m58 25 c-13 -9 -13 -10 0 -10 10 0 11 -3 4 -8 -7 -4 -14 -16 -17
-27 -3 -14 -5 -11 -6 11 -1 32 5 44 23 44 6 0 4 -5 -4 -10z m101 -22 c-3 -21
-6 -26 -9 -15 -3 17 3 47 11 47 2 0 1 -15 -2 -32z m-201 -14 c0 -15 -6 -24
-15 -24 -21 0 -30 27 -15 45 16 19 30 10 30 -21z m-70 16 c0 -5 -4 -10 -10
-10 -5 0 -10 5 -10 10 0 6 5 10 10 10 6 0 10 -4 10 -10z m340 -15 c0 -17 -5
-25 -17 -24 -11 0 -13 3 -5 6 6 2 12 13 12 24 0 10 2 19 5 19 3 0 5 -11 5 -25z
m200 0 c0 -14 -4 -25 -9 -25 -4 0 -6 11 -3 25 2 14 6 25 8 25 2 0 4 -11 4 -25z
m207 -7 c-3 -7 -5 -2 -5 12 0 14 2 19 5 13 2 -7 2 -19 0 -25z m226 25 c-7 -2
-19 -2 -25 0 -7 3 -2 5 12 5 14 0 19 -2 13 -5z m-206 -25 c-3 -8 -6 -5 -6 6
-1 11 2 17 5 13 3 -3 4 -12 1 -19z m300 -10 c-3 -7 -5 -2 -5 12 0 14 2 19 5
13 2 -7 2 -19 0 -25z m-1047 7 c0 -17 -25 -20 -35 -5 -4 6 1 7 11 3 12 -4 15
-3 10 5 -4 7 -2 12 3 12 6 0 11 -7 11 -15z m457 -7 c-3 -8 -6 -5 -6 6 -1 11 2
17 5 13 3 -3 4 -12 1 -19z m310 0 c-3 -8 -6 -5 -6 6 -1 11 2 17 5 13 3 -3 4
-12 1 -19z m186 15 c-7 -2 -19 -2 -25 0 -7 3 -2 5 12 5 14 0 19 -2 13 -5z
m-378 -21 c-3 -3 -11 0 -18 7 -9 10 -8 11 6 5 10 -3 15 -9 12 -12z m25 -183
c85 -38 117 -89 121 -190 l3 -64 -65 0 -64 0 -2 43 c-1 24 -8 54 -17 67 -31
46 -102 45 -133 -2 -16 -24 -18 -59 -21 -283 -4 -280 -1 -306 29 -338 45 -49
139 -11 139 57 0 56 6 61 78 61 l65 0 -6 -65 c-6 -67 -31 -127 -64 -157 -52
-47 -185 -62 -258 -29 -49 22 -91 69 -105 119 -8 24 -10 142 -8 347 3 298 4
312 25 351 49 91 181 130 283 83z m2165 -13 c61 -36 88 -90 89 -176 l1 -65
-62 -3 -63 -3 0 41 c0 84 -53 128 -119 100 -48 -19 -51 -39 -51 -341 l0 -280
25 -24 c29 -30 83 -33 115 -7 16 13 24 32 28 70 l5 52 63 0 64 0 0 -57 c-1
-136 -83 -213 -228 -213 -89 0 -147 33 -186 105 -20 39 -21 52 -21 360 0 309
1 321 22 360 44 83 109 117 210 111 44 -3 75 -11 108 -30z m-2819 -8 c-3 -18
-10 -69 -16 -113 -6 -44 -13 -90 -16 -102 -4 -22 -1 -23 55 -23 l60 0 6 43 c4
23 12 83 18 132 l12 90 39 3 c65 6 65 7 45 -130 -10 -67 -19 -126 -19 -130 0
-5 16 -8 35 -8 35 0 35 0 35 -44 l0 -45 -42 -3 -43 -3 -7 -60 c-4 -33 -10 -77
-13 -97 -5 -38 -5 -38 30 -38 35 0 35 0 35 -44 l0 -45 -42 -3 c-43 -3 -43 -3
-49 -48 -4 -25 -12 -84 -19 -132 l-12 -88 -49 0 c-33 0 -49 4 -49 13 0 6 7 57
15 112 22 153 25 145 -40 145 -63 0 -58 8 -75 -130 -18 -148 -14 -140 -71
-140 -27 0 -49 2 -49 5 0 10 31 221 35 243 5 19 1 22 -30 22 -35 0 -35 0 -35
45 l0 45 39 0 c43 0 42 -2 56 100 3 25 8 57 11 73 5 25 3 27 -30 27 -36 0 -36
0 -36 45 l0 45 39 0 c45 0 43 -5 61 140 18 139 13 130 71 130 l50 0 -5 -32z
m1138 20 c6 -18 196 -895 196 -902 0 -3 -29 -6 -65 -6 -62 0 -65 1 -71 28 -3
15 -14 59 -23 97 l-17 70 -81 3 -81 3 -11 -51 c-6 -27 -16 -72 -22 -100 l-11
-50 -64 0 c-45 0 -64 4 -64 13 0 7 18 93 39 192 122 559 153 701 158 708 8 13
113 8 117 -5z m483 -168 c106 -296 115 -321 120 -317 2 3 42 114 87 248 l84
244 66 3 66 3 0 -461 0 -460 -65 0 -65 0 -2 288 -3 287 -69 -207 -69 -208 -36
0 -36 0 -64 193 c-35 105 -67 196 -72 202 -5 5 -9 -110 -9 -273 l0 -282 -65 0
-65 0 0 460 0 461 67 -3 68 -3 62 -175z m1823 115 l0 -65 -130 0 -131 0 3
-132 3 -133 113 -3 113 -3 -3 -57 -3 -57 -112 -3 -113 -3 0 -134 0 -135 130 0
130 0 0 -65 0 -65 -195 0 -195 0 0 460 0 460 195 0 195 0 0 -65z m520 0 l0
-65 -130 0 -130 0 0 -120 0 -120 58 0 c124 0 207 -49 231 -137 14 -50 14 -203
0 -258 -6 -24 -27 -62 -46 -84 -47 -56 -103 -71 -260 -71 l-123 0 0 453 c0
250 3 457 7 460 3 4 93 7 200 7 l193 0 0 -65z m558 -2 l3 -63 -131 0 -131 0 3
-132 3 -133 113 -3 113 -3 -3 -57 -3 -57 -112 -3 -113 -3 0 -134 0 -135 130 0
130 0 0 -65 0 -65 -195 0 -195 0 0 460 0 460 193 -2 192 -3 3 -62z m-3631
-1089 c67 -50 68 -54 71 -297 2 -122 1 -236 -3 -254 -8 -46 -62 -99 -114 -113
-89 -24 -188 27 -211 108 -14 50 -13 417 1 467 12 43 66 101 101 108 48 11
129 0 155 -19z m3191 -1 c37 -28 61 -71 68 -126 l7 -47 -52 0 c-49 0 -51 1
-51 28 0 61 -58 93 -106 58 -17 -13 -19 -30 -22 -211 -4 -209 -1 -234 24 -259
37 -38 104 -3 104 54 0 29 1 30 50 30 48 0 50 -1 50 -27 0 -82 -44 -143 -117
-162 -93 -25 -184 22 -203 104 -13 54 -12 409 1 465 19 81 78 123 167 117 33
-2 63 -11 80 -24z m-3980 -320 l-3 -338 -47 -3 -48 -3 0 295 0 296 -60 0 -60
0 -2 -292 -3 -293 -47 -3 -48 -3 0 340 0 341 160 0 160 0 -2 -337z m346 323
c18 -8 46 -30 61 -50 23 -31 29 -50 33 -111 10 -159 -47 -235 -179 -235 l-49
0 0 -136 0 -135 -47 3 -48 3 -3 338 -2 337 100 0 c63 0 113 -5 134 -14z m926
-31 l0 -45 -100 0 -100 0 0 -296 0 -295 -47 3 -48 3 -3 338 -2 337 150 0 150
0 0 -45z m326 19 c61 -45 69 -67 69 -179 0 -89 -3 -107 -21 -131 -38 -51 -70
-68 -139 -72 l-65 -4 0 -135 0 -134 -47 3 -48 3 -3 338 -2 339 114 -4 c97 -2
119 -6 142 -24z m309 14 c5 -13 145 -655 145 -664 0 -3 -21 -4 -47 -2 -51 3
-51 3 -77 121 -6 26 -9 27 -66 27 -57 0 -60 -1 -66 -27 -26 -119 -25 -118 -78
-121 -43 -3 -48 -1 -44 15 2 10 36 163 74 340 l69 323 43 0 c25 0 45 -5 47
-12z m375 -167 c35 -99 67 -178 71 -175 4 2 34 83 66 179 l58 175 47 0 48 0 0
-340 0 -340 -45 0 -45 0 0 207 c0 113 -3 203 -7 199 -5 -4 -29 -69 -54 -144
-44 -133 -47 -137 -74 -137 -27 0 -30 4 -76 140 -26 77 -48 136 -49 130 0 -5
-2 -95 -3 -200 l-2 -190 -47 -3 -48 -3 0 340 0 341 48 0 47 0 65 -179z m571
-1 c35 -99 66 -180 69 -180 3 0 32 80 65 178 l60 177 53 3 52 3 -2 -338 -3
-338 -47 -3 -48 -3 -2 213 -3 213 -50 -152 c-48 -147 -51 -153 -77 -153 -25 0
-29 6 -75 146 l-48 146 -5 -204 -5 -203 -47 -3 -48 -3 0 340 0 341 49 0 48 0
64 -180z m510 -17 l1 -198 75 155 c51 105 75 168 76 195 l2 40 48 3 47 3 0
-341 0 -341 -47 3 -48 3 -2 188 c0 104 -3 190 -5 193 -10 9 -143 -292 -148
-335 l-5 -46 -47 -3 -48 -3 0 340 0 341 50 0 50 0 1 -197z m1069 152 l0 -45
-60 0 -60 0 -2 -292 -3 -293 -47 -3 -48 -3 0 295 0 296 -60 0 -60 0 0 45 0 45
170 0 170 0 0 -45z m-4700 -846 c0 -35 2 -40 14 -29 8 6 16 23 18 37 2 15 9
28 16 31 10 3 12 -5 6 -34 -10 -48 -9 -60 0 -103 11 -45 -15 -38 -26 7 -11 43
-28 41 -28 -3 0 -24 -5 -35 -15 -35 -12 0 -15 15 -15 78 0 43 3 82 7 85 15 16
23 4 23 -34z m4200 31 c17 -11 24 -128 8 -147 -6 -7 -23 -13 -39 -13 l-29 0 0
85 c0 82 1 85 23 85 12 0 29 -4 37 -10z m288 -19 c5 -34 -18 -101 -35 -101
-17 0 -16 18 2 50 18 32 19 50 1 50 -8 0 -16 -6 -19 -12 -7 -22 -19 -1 -12 22
10 31 59 24 63 -9z m-4354 -27 c12 -5 16 -20 16 -60 l0 -54 -36 0 c-34 0 -35
1 -32 33 2 24 8 33 26 35 12 2 22 8 22 14 0 6 -10 8 -25 4 -18 -5 -25 -2 -25
8 0 21 27 31 54 20z m66 -19 c0 -14 4 -25 8 -25 5 0 14 11 20 25 6 14 17 25
23 25 7 0 8 -6 3 -17 -5 -10 -8 -37 -7 -60 1 -47 -13 -58 -23 -18 -3 14 -10
25 -15 25 -5 0 -9 -11 -9 -25 0 -14 -4 -25 -10 -25 -6 0 -10 27 -10 60 0 33 4
60 10 60 6 0 10 -11 10 -25z m158 -3 c5 -31 22 -27 22 4 0 15 5 24 12 22 10
-4 12 -24 9 -98 -1 -29 -21 -25 -21 5 0 14 -4 25 -10 25 -5 0 -10 -11 -10 -25
0 -16 -6 -25 -15 -25 -12 0 -15 13 -15 61 0 44 3 60 13 57 6 -3 13 -14 15 -26z
m126 22 c12 -5 16 -20 16 -60 l0 -54 -36 0 c-34 0 -35 1 -32 33 2 24 8 33 26
35 12 2 22 8 22 14 0 6 -10 8 -25 4 -27 -7 -32 3 -13 22 14 14 20 14 42 6z
m64 -26 c10 -33 11 -32 27 18 3 8 9 13 14 10 9 -6 -18 -131 -33 -155 -9 -14
-36 -15 -36 -1 0 6 4 10 9 10 17 0 19 29 5 76 -16 55 -18 74 -4 74 5 0 13 -15
18 -32z m82 8 c0 -27 19 -47 21 -22 3 36 5 40 17 44 9 3 12 -13 12 -57 0 -50
-3 -61 -16 -61 -11 0 -15 6 -11 19 3 15 -1 21 -17 23 -16 2 -22 11 -24 41 -2
21 1 37 7 37 6 0 11 -11 11 -24z m102 -8 l3 -33 15 33 c8 17 18 32 22 32 5 0
8 -27 8 -60 0 -61 -16 -83 -22 -32 l-4 27 -14 -28 c-12 -24 -33 -34 -31 -14 1
4 1 30 1 57 0 55 17 69 22 18z m138 22 c0 -5 -4 -10 -10 -10 -5 0 -10 -22 -10
-50 0 -38 -4 -50 -15 -50 -11 0 -15 12 -15 50 0 28 -4 50 -10 50 -5 0 -10 5
-10 10 0 6 16 10 35 10 19 0 35 -4 35 -10z m40 -10 c0 -13 10 -24 26 -30 20
-8 25 -16 22 -38 -2 -22 -8 -28 -35 -30 l-33 -3 0 60 c0 34 4 61 10 61 6 0 10
-9 10 -20z m138 -3 c3 -15 -1 -17 -23 -11 -25 6 -26 5 -23 -27 3 -29 7 -34 26
-31 15 1 22 -2 20 -10 -3 -7 -18 -13 -34 -13 -27 0 -29 3 -32 43 -2 24 2 50 9
58 16 20 53 14 57 -9z m92 -37 c0 -59 -14 -82 -23 -37 l-4 22 -8 -22 c-13 -40
-30 -26 -30 25 0 57 9 72 41 72 23 0 24 -3 24 -60z m158 -2 c2 -47 0 -58 -13
-58 -11 0 -15 12 -15 51 0 31 -4 48 -10 44 -5 -3 -10 -26 -10 -51 0 -24 -4
-44 -10 -44 -6 0 -10 27 -10 61 l0 60 33 -3 c32 -3 32 -4 35 -60z m93 46 c5
-7 9 -32 7 -56 -2 -36 -7 -44 -25 -46 -17 -3 -23 -10 -23 -28 0 -15 -6 -24
-15 -24 -12 0 -15 16 -15 84 l0 85 30 -1 c17 -1 35 -7 41 -14z m99 -10 c19
-48 1 -94 -35 -94 -26 0 -35 17 -35 64 0 57 52 79 70 30z m88 14 c-3 -7 -11
-13 -19 -13 -9 0 -15 -12 -16 -30 0 -17 -2 -38 -2 -47 -1 -10 -5 -18 -11 -18
-6 0 -10 27 -10 60 l0 60 31 0 c20 0 29 -4 27 -12z m87 -48 c0 -49 -2 -55 -22
-58 -17 -3 -23 -10 -23 -28 0 -13 -4 -24 -9 -24 -9 0 -19 122 -13 153 2 10 14
15 35 14 32 -2 32 -2 32 -57z m95 41 c5 -11 10 -38 10 -61 l0 -41 -37 3 c-33
3 -38 6 -38 28 0 16 8 28 23 35 27 12 29 29 2 22 -12 -3 -20 0 -20 7 0 31 44
36 60 7z m66 -13 l16 -32 14 32 c21 50 34 39 34 -28 0 -33 -4 -60 -10 -60 -5
0 -10 12 -10 27 0 26 -1 26 -15 7 -13 -16 -16 -17 -25 -4 -8 12 -10 11 -10 -7
0 -14 -6 -23 -15 -23 -12 0 -15 13 -15 60 0 67 11 76 36 28z m124 0 l12 -33
14 33 c21 49 34 39 34 -28 0 -33 -4 -60 -10 -60 -5 0 -10 12 -10 28 -1 23 -2
24 -11 10 -5 -10 -14 -18 -19 -18 -5 0 -11 8 -13 18 -3 10 -5 6 -6 -11 -2 -45
-26 -26 -29 22 -6 74 17 96 38 39z m113 0 l4 -33 13 33 c20 46 35 34 38 -31 2
-45 0 -57 -12 -57 -8 0 -16 11 -18 28 l-4 27 -14 -27 c-21 -43 -30 -33 -30 32
0 63 16 83 23 28z m142 -33 c0 -52 -2 -60 -17 -57 -13 2 -18 -4 -18 -23 0 -16
-6 -25 -15 -25 -12 0 -15 16 -15 84 l0 84 33 -1 32 -2 0 -60z m93 56 c9 -5 12
-25 10 -57 -3 -47 -4 -49 -33 -49 -28 0 -30 3 -33 43 -4 59 20 86 56 63z m99
-3 c6 -7 10 -33 9 -58 -1 -43 -2 -45 -33 -48 l-33 -3 0 60 c0 58 1 61 24 61
13 0 28 -6 33 -12z m103 -7 c5 -11 10 -38 10 -61 l0 -41 -37 3 c-33 3 -38 6
-38 28 0 16 8 28 23 35 26 12 29 27 5 24 -31 -3 -36 1 -23 16 17 21 47 19 60
-4z m90 9 c0 -5 -4 -10 -10 -10 -5 0 -10 -22 -10 -50 0 -38 -4 -50 -15 -50
-11 0 -15 12 -15 44 0 25 -4 48 -10 51 -21 13 -9 25 25 25 19 0 35 -4 35 -10z
m40 -15 c0 -18 5 -25 19 -25 26 0 34 -15 27 -46 -5 -19 -13 -24 -39 -24 l-32
0 1 53 c1 65 2 67 14 67 6 0 10 -11 10 -25z m151 -7 l0 -33 16 33 c9 17 20 32
25 32 4 0 8 -27 8 -60 0 -61 -16 -83 -22 -32 l-4 27 -14 -27 c-22 -46 -40 -35
-40 25 0 30 3 57 7 60 14 15 23 5 24 -25z m155 2 c7 -32 24 -32 24 0 0 18 17
37 25 28 4 -4 -8 -62 -26 -130 -7 -28 -15 -38 -30 -38 -18 0 -18 2 -4 23 13
21 13 29 0 73 -18 58 -19 74 -5 74 6 0 13 -13 16 -30z m132 7 c3 -15 0 -18
-17 -12 -19 6 -21 2 -21 -30 0 -32 2 -36 21 -30 16 5 20 3 17 -6 -3 -8 -18
-14 -34 -14 -27 0 -29 3 -32 43 -2 24 2 50 9 58 16 20 53 14 57 -9z m86 14 c3
-5 -1 -11 -9 -15 -10 -4 -15 -20 -15 -51 0 -25 -4 -45 -10 -45 -5 0 -10 20
-10 44 0 31 -5 46 -16 50 -8 3 -12 10 -9 16 8 12 62 13 69 1z m86 -11 c22 -40
9 -100 -21 -100 -14 0 -19 -7 -19 -25 0 -16 -6 -25 -15 -25 -12 0 -15 16 -15
83 l0 84 30 1 c20 0 33 -6 40 -18z m88 11 c9 -5 12 -25 10 -57 -3 -47 -4 -49
-33 -49 -28 0 -30 3 -33 43 -4 59 20 86 56 63z m65 -23 l4 -33 13 33 c20 46
35 34 38 -31 2 -46 0 -57 -13 -57 -10 0 -15 10 -15 28 l-1 27 -15 -27 c-23
-44 -34 -33 -34 32 0 63 16 83 23 28z m141 23 c3 -5 -1 -11 -9 -15 -10 -4 -15
-20 -15 -51 0 -25 -4 -45 -10 -45 -5 0 -10 20 -10 45 0 31 -5 47 -15 51 -8 4
-15 10 -15 15 0 12 67 12 74 0z m36 -11 c0 -13 10 -24 26 -30 20 -8 25 -16 22
-38 -2 -22 -8 -28 -35 -30 l-33 -3 0 60 c0 34 4 61 10 61 6 0 10 -9 10 -20z
m138 -3 c3 -15 0 -18 -17 -12 -19 6 -21 2 -21 -30 0 -33 2 -35 25 -29 20 5 24
3 19 -10 -8 -21 -60 -21 -68 0 -10 27 -7 79 6 92 18 18 52 11 56 -11z m100
-39 c2 -46 0 -58 -12 -58 -8 0 -17 10 -19 23 l-4 22 -8 -22 c-4 -13 -14 -23
-21 -23 -16 0 -17 9 -5 29 6 9 6 22 0 33 -15 29 7 60 39 56 25 -3 27 -6 30
-60z m139 54 c8 -5 12 -27 10 -57 -2 -49 -3 -50 -34 -53 l-33 -3 0 60 c0 57 2
61 23 61 12 0 28 -4 34 -8z m161 -29 c3 -28 0 -33 -17 -33 -12 0 -21 -7 -21
-16 0 -11 6 -14 21 -9 16 5 20 3 17 -6 -3 -8 -18 -14 -34 -14 -27 0 -29 3 -32
43 -4 49 11 74 42 70 16 -2 22 -11 24 -35z m202 18 c5 -11 10 -38 10 -61 l0
-41 -37 3 c-33 3 -38 6 -38 28 0 16 8 28 23 35 30 13 28 29 -3 21 -27 -7 -32
3 -13 22 18 18 46 14 58 -7z m44 7 c2 -7 7 -22 12 -33 6 -18 8 -17 13 9 3 16
12 31 20 34 10 3 12 -3 6 -29 -17 -85 -36 -139 -50 -139 -18 0 -19 5 -4 28 9
14 8 32 -5 74 -9 31 -16 59 -16 62 0 11 21 6 24 -6z m116 -98 c0 -5 -7 -10
-15 -10 -8 0 -15 5 -15 10 0 6 7 10 15 10 8 0 15 -4 15 -10z m-4158 -195 c2
-20 0 -35 -7 -35 -5 0 -10 16 -10 35 0 19 3 35 6 35 4 0 9 -16 11 -35z m61 27
c-6 -4 -13 -21 -16 -37 -4 -27 -4 -27 -6 8 -1 29 3 37 17 37 11 0 13 -3 5 -8z
m638 -7 c6 15 8 9 8 -20 0 -36 -1 -38 -13 -22 -14 18 -14 18 -19 0 -3 -10 -5
0 -6 22 0 34 1 37 11 20 11 -19 11 -19 19 0z m-816 -5 c-3 -6 1 -13 9 -16 9
-3 16 -12 16 -20 0 -16 -26 -19 -35 -4 -4 6 1 7 12 4 17 -5 17 -5 -1 10 -15
12 -16 36 0 36 3 0 2 -5 -1 -10z m75 -26 c0 -19 -5 -25 -17 -22 -22 4 -30 38
-12 49 19 11 29 2 29 -27z m798 0 c-4 -25 -32 -24 -36 0 -4 21 18 40 31 27 5
-5 7 -17 5 -27z m51 -2 l-1 -27 -8 30 c-4 17 -8 24 -9 16 0 -8 -4 -12 -7 -8
-9 9 6 28 17 22 5 -4 8 -18 8 -33z m-595 -15 c7 -6 6 -7 -4 -4 -8 2 -16 14
-17 28 -1 19 -1 20 4 4 3 -11 10 -24 17 -28z m116 18 c0 -14 -4 -25 -9 -25 -4
0 -6 11 -3 25 2 14 6 25 8 25 2 0 4 -11 4 -25z m44 -18 c7 -6 6 -7 -4 -4 -8 2
-16 14 -17 28 -1 19 -1 20 4 4 3 -11 10 -24 17 -28z m213 37 c-3 -3 -12 -4
-19 -1 -8 3 -5 6 6 6 11 1 17 -2 13 -5z m264 -14 c6 0 7 5 4 10 -3 6 -1 10 4
10 6 0 9 -10 7 -22 -4 -31 -30 -29 -33 2 -1 14 0 19 3 13 3 -7 10 -13 15 -13z
m-851 -125 c0 -19 -3 -35 -7 -35 -5 0 -8 16 -8 35 0 19 3 35 8 35 4 0 7 -16 7
-35z m61 28 c-11 -5 -11 -7 0 -14 10 -6 11 -9 2 -9 -7 0 -13 -10 -14 -22 -1
-22 -1 -22 -8 2 -8 26 3 51 23 49 6 0 5 -3 -3 -6z m-155 -40 c4 -22 3 -22 -16
-6 -24 21 -26 36 -3 31 9 -2 18 -13 19 -25z m54 12 c0 -8 -7 -15 -16 -15 -8 0
-12 -5 -9 -10 4 -6 11 -7 17 -4 7 5 8 2 3 -5 -11 -18 -40 12 -32 33 8 20 37
21 37 1z m304 7 c-6 -4 -14 -14 -17 -22 -4 -10 -6 -8 -6 8 -1 15 5 22 17 22
10 0 13 -3 6 -8z m270 0 c-6 -4 -14 -14 -17 -22 -4 -10 -6 -8 -6 8 -1 15 5 22
17 22 10 0 13 -3 6 -8z m83 -14 c-3 -8 -6 -5 -6 6 -1 11 2 17 5 13 3 -3 4 -12
1 -19z m26 2 c-3 -11 -7 -20 -9 -20 -2 0 -4 9 -4 20 0 11 4 20 9 20 5 0 7 -9
4 -20z m45 6 c-7 -8 -15 -12 -17 -11 -5 6 10 25 20 25 5 0 4 -6 -3 -14z m-88
-21 c0 -8 -2 -15 -4 -15 -2 0 -6 7 -10 15 -3 8 -1 15 4 15 6 0 10 -7 10 -15z
m-800 -94 c0 -12 -20 -25 -27 -18 -7 7 6 27 18 27 5 0 9 -4 9 -9z m312 -26 c2
-20 0 -35 -7 -35 -5 0 -10 16 -10 35 0 19 3 35 6 35 4 0 9 -16 11 -35z m50 0
c2 -21 0 -35 -7 -35 -7 0 -9 14 -7 35 2 19 5 35 7 35 2 0 5 -16 7 -35z m320 0
c2 -20 0 -35 -7 -35 -5 0 -10 16 -10 35 0 19 3 35 6 35 4 0 9 -16 11 -35z m51
3 c-8 -46 -13 -48 -13 -5 0 21 4 37 10 37 5 0 7 -14 3 -32z m-835 -5 c-4 -40
-38 -45 -37 -6 1 28 1 28 8 3 4 -15 10 -20 14 -13 4 6 4 18 1 27 -3 9 -1 16 6
16 6 0 10 -11 8 -27z m47 -3 c0 -27 -22 -39 -31 -16 -8 22 3 49 19 43 6 -2 12
-14 12 -27z m322 -3 c1 -21 -3 -27 -18 -27 -12 0 -19 7 -18 18 0 10 3 12 6 5
7 -20 19 -15 19 7 0 13 -5 19 -14 15 -7 -3 -10 0 -7 6 11 18 30 4 32 -24z
m318 23 c4 -6 -1 -7 -12 -4 -16 5 -16 4 1 -10 16 -13 17 -19 8 -28 -9 -9 -15
-9 -24 1 -11 10 -9 11 7 6 19 -6 19 -6 1 9 -10 8 -15 19 -11 25 8 14 22 14 30
1z m51 -8 c1 -7 0 -8 -3 -2 -8 18 -23 11 -23 -11 0 -16 4 -20 18 -14 13 5 14
3 5 -6 -14 -14 -33 -3 -33 20 0 31 30 42 36 13z m-129 -14 c-3 -8 -6 -5 -6 6
-1 11 2 17 5 13 3 -3 4 -12 1 -19z m500 0 c-3 -8 -6 -5 -6 6 -1 11 2 17 5 13
3 -3 4 -12 1 -19z m-797 -13 c9 5 11 4 6 -3 -11 -18 -36 -14 -36 6 0 13 2 14
9 3 5 -8 14 -10 21 -6z m-107 -22 c-7 -2 -19 -2 -25 0 -7 3 -2 5 12 5 14 0 19
-2 13 -5z m50 0 c-7 -2 -19 -2 -25 0 -7 3 -2 5 12 5 14 0 19 -2 13 -5z m270 0
c-7 -2 -19 -2 -25 0 -7 3 -2 5 12 5 14 0 19 -2 13 -5z m50 0 c-7 -2 -19 -2
-25 0 -7 3 -2 5 12 5 14 0 19 -2 13 -5z m-321 -228 c2 -21 0 -35 -7 -35 -7 0
-9 14 -7 35 2 19 5 35 7 35 2 0 5 -16 7 -35z m270 17 c-15 -5 -16 -38 -2 -45
6 -3 5 -4 -2 -3 -12 2 -30 51 -21 60 3 2 12 2 21 -2 10 -4 12 -7 4 -10z m150
-17 c2 -21 0 -35 -7 -35 -7 0 -9 14 -7 35 2 19 5 35 7 35 2 0 5 -16 7 -35z
m380 17 c-15 -5 -16 -38 -2 -45 6 -3 5 -4 -2 -3 -12 2 -30 51 -21 60 3 2 12 2
21 -2 10 -4 12 -7 4 -10z m312 -21 c1 -16 -2 -27 -6 -24 -5 2 -8 18 -8 35 0
39 13 29 14 -11z m65 -1 c0 -10 -3 -8 -9 5 -12 27 -12 43 0 25 5 -8 9 -22 9
-30z m-1224 20 c3 -6 -1 -7 -9 -4 -12 4 -16 0 -16 -16 0 -17 4 -21 18 -15 13
5 14 3 5 -6 -14 -14 -33 -3 -33 20 0 28 22 42 35 21z m96 1 c-11 -7 -10 -11 5
-19 15 -9 17 -13 7 -23 -11 -11 -15 -11 -25 0 -11 10 -9 11 7 6 19 -6 19 -6 1
9 -18 15 -14 36 7 36 8 0 7 -3 -2 -9z m333 -6 c7 -20 -2 -42 -20 -49 -10 -4
-14 3 -14 29 0 36 22 49 34 20z m104 -3 c2 -7 -3 -12 -12 -12 -9 0 -16 -5 -16
-11 0 -6 7 -8 18 -4 13 5 14 3 5 -6 -14 -14 -33 -3 -33 20 0 31 28 41 38 13z
m111 -14 c-1 -31 -1 -32 -9 -8 -5 17 -8 19 -9 8 -2 -27 -16 -21 -19 7 -1 19 3
25 18 25 16 0 20 -6 19 -32z m49 -2 c3 -22 0 -27 -14 -24 -20 3 -32 28 -14 28
6 0 8 -4 5 -10 -3 -5 -2 -10 4 -10 5 0 9 9 8 20 -1 13 -6 19 -15 15 -7 -3 -10
0 -7 6 11 18 30 4 33 -25z m56 19 c7 -20 -2 -42 -20 -49 -10 -4 -14 3 -14 29
0 36 22 49 34 20z m214 -12 c2 -14 -4 -26 -17 -33 -19 -10 -21 -8 -21 25 0 29
3 36 18 33 9 -2 18 -13 20 -25z m50 9 c2 -7 -3 -12 -12 -12 -9 0 -16 -5 -16
-11 0 -6 7 -8 18 -4 13 5 14 3 5 -6 -14 -14 -33 -3 -33 20 0 31 28 41 38 13z
m102 8 c0 -5 -2 -10 -4 -10 -3 0 -8 5 -11 10 -3 6 -1 10 4 10 6 0 11 -4 11
-10z m-750 -20 l8 25 1 -28 c1 -22 -3 -28 -16 -25 -11 2 -19 14 -20 28 l-3 25
11 -25 12 -25 7 25z m197 -2 c-3 -8 -6 -5 -6 6 -1 11 2 17 5 13 3 -3 4 -12 1
-19z m340 10 c10 14 10 11 1 -15 -7 -18 -16 -33 -21 -33 -4 0 -5 4 -2 10 3 5
1 20 -5 32 -9 19 -8 20 2 6 11 -15 13 -15 25 0z m363 -35 c-11 -17 -11 -17 -6
0 3 10 7 26 7 35 1 15 2 15 6 0 2 -10 -1 -25 -7 -35z m-150 7 c0 -5 -5 -10
-11 -10 -5 0 -7 5 -4 10 3 6 8 10 11 10 2 0 4 -4 4 -10z m-1121 -230 c-6 -5
-9 -17 -6 -29 3 -12 2 -19 -3 -16 -9 6 -19 52 -13 59 3 3 12 2 20 -1 11 -4 12
-8 2 -13z m55 2 c-7 -4 -14 -16 -17 -27 -4 -15 -5 -14 -6 8 -1 20 4 27 17 27
11 0 13 -3 6 -8z m55 -30 c-14 -40 -24 -41 -25 -1 -1 19 2 26 7 18 6 -10 9 -9
15 4 12 31 15 12 3 -21z m421 -107 c0 -14 -2 -25 -4 -25 -2 0 -6 11 -8 25 -3
14 -1 25 3 25 5 0 9 -11 9 -25z m57 10 c0 -8 -6 -15 -14 -15 -14 0 -17 12 -6
23 11 11 20 8 20 -8z m96 0 c-3 -9 -8 -14 -10 -11 -3 3 -2 9 2 15 9 16 15 13
8 -4z m749 -20 c2 -20 0 -35 -7 -35 -5 0 -10 16 -10 35 0 19 3 35 6 35 4 0 9
-16 11 -35z m-1006 13 c4 -7 3 -8 -4 -4 -7 4 -12 3 -12 -2 0 -6 7 -13 16 -16
19 -7 9 -26 -14 -25 -15 1 -14 2 1 6 17 4 17 5 1 17 -9 7 -14 18 -10 24 9 15
13 15 22 0z m62 -24 c-2 -10 -11 -20 -21 -22 -13 -3 -17 3 -17 25 0 21 3 24 9
13 6 -8 7 -18 5 -22 -3 -4 0 -8 6 -8 8 0 10 9 5 28 -5 20 -4 24 5 16 7 -7 10
-20 8 -30z m876 9 c-6 -22 -4 -25 10 -20 9 4 16 2 16 -3 0 -13 -27 -13 -35 0
-3 6 -3 19 0 30 9 30 16 24 9 -7z m136 10 c0 -3 -7 -3 -15 1 -8 3 -15 1 -15
-4 0 -6 7 -10 16 -10 20 0 13 -24 -9 -28 -12 -3 -15 3 -13 25 2 15 4 29 5 30
2 4 31 -9 31 -14z m47 -15 c-3 -7 -5 -2 -5 12 0 14 2 19 5 13 2 -7 2 -19 0
-25z m-1331 4 c0 -10 -6 -19 -13 -19 -8 0 -9 6 -2 19 5 10 11 18 12 18 2 0 3
-8 3 -18z m107 11 c-7 -2 -19 -2 -25 0 -7 3 -2 5 12 5 14 0 19 -2 13 -5z m689
-35 c-6 -6 -7 0 -4 19 5 21 7 23 10 9 2 -10 0 -22 -6 -28z m218 17 c0 -17 -5
-25 -17 -25 -15 0 -16 2 -3 10 11 7 11 10 2 10 -10 0 -10 3 0 15 17 19 18 19
18 -10z m-243 -7 c-3 -8 -6 -5 -6 6 -1 11 2 17 5 13 3 -3 4 -12 1 -19z m-664
5 c-7 -2 -19 -2 -25 0 -7 3 -2 5 12 5 14 0 19 -2 13 -5z m254 -15 c-3 -8 -6
-5 -6 6 -1 11 2 17 5 13 3 -3 4 -12 1 -19z m278 2 c-3 -5 -12 -10 -18 -10 -7
0 -6 4 3 10 19 12 23 12 15 0z m-322 -7 c-7 -2 -19 -2 -25 0 -7 3 -2 5 12 5
14 0 19 -2 13 -5z m-525 -114 c2 -19 1 -21 -8 -9 -9 13 -11 13 -20 0 -8 -12
-10 -11 -10 6 0 42 33 44 38 3z m45 23 c2 7 4 2 4 -12 0 -17 -5 -26 -16 -27
-10 -1 -16 7 -16 22 0 16 3 20 12 14 7 -7 13 -5 16 3z m45 -3 c-10 -5 -15 -16
-11 -25 4 -12 8 -12 22 -2 14 12 15 11 2 -5 -14 -18 -16 -18 -27 -2 -16 21 -7
45 15 45 14 -1 14 -2 -1 -11z m70 -17 c2 -12 -2 -22 -8 -22 -6 0 -8 5 -5 10 3
6 2 10 -4 10 -5 0 -12 -6 -14 -12 -3 -7 -6 -4 -6 8 -2 40 31 45 37 6z m52 18
c0 -5 -7 -7 -16 -3 -14 5 -16 2 -10 -20 4 -16 2 -27 -4 -27 -11 0 -14 43 -3
53 10 10 33 8 33 -3z m50 6 c0 -11 -19 -15 -25 -6 -3 5 1 10 9 10 9 0 16 -2
16 -4z m-62 -122 c-4 -3 -2 -19 2 -35 6 -20 5 -29 -3 -29 -7 0 -11 13 -10 32
2 40 1 38 10 38 3 0 4 -3 1 -6z m58 -10 c-3 -9 -7 -25 -7 -37 -1 -17 -3 -14
-8 8 -8 33 -5 45 11 45 5 0 7 -7 4 -16z m201 -21 c-3 -10 -5 -4 -5 12 0 17 2
24 5 18 2 -7 2 -21 0 -30z m60 6 c-8 -21 -13 -26 -15 -14 -5 21 5 45 17 45 5
0 4 -13 -2 -31z m204 8 c-10 -9 -11 -8 -5 6 3 10 9 15 12 12 3 -3 0 -11 -7
-18z m166 -14 c-3 -10 -5 -4 -5 12 0 17 2 24 5 18 2 -7 2 -21 0 -30z m436 -25
c8 -5 6 -8 -5 -8 -14 0 -18 8 -17 38 2 34 2 34 6 7 3 -16 10 -33 16 -37z m108
47 c5 15 7 12 6 -12 0 -30 -17 -49 -17 -20 0 8 -4 7 -10 -3 -7 -11 -10 -6 -10
20 1 31 2 33 12 15 11 -19 11 -19 19 0z m-1065 -7 c4 -6 3 -8 -4 -4 -5 3 -12
0 -15 -6 -2 -7 -8 -10 -12 -6 -8 8 2 28 15 28 5 0 12 -5 16 -12z m57 -21 c-4
-6 -9 -3 -14 9 -7 18 -8 18 -8 -3 -1 -12 5 -24 12 -26 7 -4 6 -6 -4 -6 -22 -1
-33 28 -18 45 9 11 15 11 25 3 8 -6 11 -16 7 -22z m629 3 c3 -19 0 -30 -7 -30
-7 0 -10 11 -7 30 2 17 5 30 7 30 2 0 5 -13 7 -30z m54 18 c4 -7 3 -8 -4 -4
-7 4 -12 2 -12 -5 0 -7 -3 -10 -6 -6 -6 5 3 27 11 27 2 0 7 -5 11 -12z m174
-22 c0 -6 -5 -3 -11 7 -6 9 -15 14 -21 11 -7 -4 -8 -2 -4 5 9 14 36 -3 36 -23z
m182 9 c-5 -28 14 -35 21 -7 3 14 4 13 3 -2 -1 -11 -7 -21 -13 -24 -16 -5 -27
22 -19 43 9 23 14 18 8 -10z m77 -13 l-1 -27 -8 30 -7 30 -11 -25 c-10 -24
-11 -24 -11 -3 -1 21 16 35 32 26 4 -2 6 -16 6 -31z m55 23 c3 -8 1 -15 -3
-15 -5 0 -12 6 -14 13 -3 6 -6 2 -6 -10 -1 -12 5 -24 12 -26 7 -4 6 -6 -4 -6
-22 -1 -33 28 -18 45 15 18 25 18 33 -1z m-747 -32 c-3 -10 -5 -4 -5 12 0 17
2 24 5 18 2 -7 2 -21 0 -30z m370 5 c-3 -7 -5 -2 -5 12 0 14 2 19 5 13 2 -7 2
-19 0 -25z m-554 2 c3 -11 1 -18 -4 -14 -5 3 -9 12 -9 20 0 20 7 17 13 -6z
m-293 -5 c0 -17 -25 -20 -35 -5 -4 6 1 7 11 3 12 -4 15 -3 10 5 -4 7 -2 12 3
12 6 0 11 -7 11 -15z m261 -8 c-10 -9 -11 -8 -5 6 3 10 9 15 12 12 3 -3 0 -11
-7 -18z m484 2 c-8 -12 -35 -12 -35 1 0 5 7 6 17 3 12 -5 14 -3 8 7 -5 9 -4
11 4 6 6 -4 9 -12 6 -17z m155 -5 c0 -2 -7 -4 -15 -4 -8 0 -15 4 -15 10 0 5 7
7 15 4 8 -4 15 -8 15 -10z m-797 -1 c-7 -2 -19 -2 -25 0 -7 3 -2 5 12 5 14 0
19 -2 13 -5z m314 1 c-3 -3 -12 -4 -19 -1 -8 3 -5 6 6 6 11 1 17 -2 13 -5z
m-55 -99 c2 -20 0 -35 -7 -35 -5 0 -10 16 -10 35 0 19 3 35 6 35 4 0 9 -16 11
-35z m59 28 c-11 -5 -11 -7 0 -14 10 -6 11 -9 2 -9 -7 0 -13 -10 -14 -22 -1
-22 -1 -22 -8 2 -10 32 -3 50 18 49 12 0 12 -2 2 -6z m201 -20 c-3 -16 -7 -22
-10 -15 -4 13 4 42 11 42 2 0 2 -12 -1 -27z m-95 -5 c-3 -8 -6 -5 -6 6 -1 11
2 17 5 13 3 -3 4 -12 1 -19z m-259 -12 c0 -22 -2 -23 -19 -8 -11 9 -19 20 -19
24 0 5 8 8 19 8 13 0 19 -7 19 -24z m52 -1 c0 -18 -5 -25 -20 -25 -20 0 -28
28 -13 43 15 16 33 6 33 -18z m370 4 c0 -5 -8 -9 -17 -8 -11 0 -13 3 -5 6 6 2
9 10 6 15 -4 7 -2 8 4 4 7 -4 12 -11 12 -17z m157 15 c-3 -3 -12 -4 -19 -1 -8
3 -5 6 6 6 11 1 17 -2 13 -5z m-257 -7 c0 -1 -9 -10 -20 -20 -16 -13 -20 -14
-20 -3 0 8 8 17 18 19 9 3 18 5 20 6 1 0 2 0 2 -2z m-708 -142 c2 -21 0 -35
-7 -35 -7 0 -9 14 -7 35 2 19 5 35 7 35 2 0 5 -16 7 -35z m-44 7 c2 -7 -3 -12
-12 -12 -9 0 -16 -5 -16 -11 0 -6 7 -8 18 -4 13 5 14 3 5 -6 -14 -14 -33 -3
-33 20 0 31 28 41 38 13z m107 8 c4 -6 -1 -7 -12 -4 -16 5 -16 4 1 -10 16 -13
17 -19 8 -28 -9 -9 -15 -9 -24 1 -11 10 -9 11 7 6 19 -6 19 -6 1 9 -10 8 -15
19 -11 25 8 14 22 14 30 1z m53 -8 c2 -7 -3 -12 -12 -12 -9 0 -16 -5 -16 -11
0 -6 7 -8 18 -4 13 5 14 3 5 -6 -14 -14 -33 -3 -33 20 0 31 28 41 38 13z m687
-112 c3 -6 -1 -7 -9 -4 -18 7 -21 14 -7 14 6 0 13 -4 16 -10z m527 -25 c2 -20
0 -35 -7 -35 -5 0 -10 16 -10 35 0 19 3 35 6 35 4 0 9 -16 11 -35z m59 28
c-11 -5 -11 -7 0 -14 10 -6 11 -9 2 -9 -7 0 -13 -10 -14 -22 -1 -22 -1 -22 -8
2 -10 32 -3 50 18 49 12 0 12 -2 2 -6z m746 -8 c0 -8 -6 -15 -14 -15 -14 0
-17 12 -6 23 11 11 20 8 20 -8z m415 -20 c2 -20 0 -35 -7 -35 -5 0 -10 16 -10
35 0 19 3 35 6 35 4 0 9 -16 11 -35z m-1815 -12 c-3 -10 -5 -4 -5 12 0 17 2
24 5 18 2 -7 2 -21 0 -30z m-573 19 c-6 -4 -14 -14 -17 -22 -4 -10 -6 -8 -6 8
-1 15 5 22 17 22 10 0 13 -3 6 -8z m64 -20 c3 -17 -2 -22 -17 -22 -25 0 -29
30 -3 31 15 0 14 2 -3 10 l-20 9 20 -3 c12 -1 21 -11 23 -25z m44 3 c3 -15 1
-25 -6 -25 -6 0 -11 11 -11 25 0 14 3 25 6 25 4 0 9 -11 11 -25z m62 -17 c-3
-4 -13 -8 -22 -8 -15 0 -15 2 -2 10 10 6 11 10 3 10 -7 0 -13 7 -13 15 0 12 3
12 19 -2 11 -9 18 -20 15 -25z m54 20 c-5 -34 -38 -37 -38 -4 0 20 5 26 21 26
15 0 20 -5 17 -22z m185 2 c-3 -12 -8 -19 -11 -16 -5 6 5 36 12 36 2 0 2 -9
-1 -20z m434 -17 c-3 -10 -5 -4 -5 12 0 17 2 24 5 18 2 -7 2 -21 0 -30z m219
28 c-18 -7 -18 -8 -3 -14 23 -9 22 -27 -2 -27 -13 0 -18 7 -18 25 0 19 5 25
21 24 20 0 20 -1 2 -8z m64 -16 c0 -25 -23 -35 -35 -15 -10 16 2 40 20 40 9 0
15 -9 15 -25z m270 21 c0 -9 -30 -14 -35 -6 -4 6 3 10 14 10 12 0 21 -2 21 -4z
m160 -34 c0 -1 -9 2 -20 8 -11 6 -20 15 -20 20 0 6 9 2 20 -7 11 -10 20 -19
20 -21z m250 28 c-10 -6 -11 -10 -2 -10 6 0 12 -7 12 -15 0 -8 -8 -15 -17 -15
-15 0 -16 2 -3 10 10 6 11 10 3 10 -7 0 -13 7 -13 15 0 8 8 15 18 15 14 0 15
-2 2 -10z m65 -15 c0 -11 -8 -21 -17 -23 -14 -3 -18 3 -18 23 0 20 4 26 18 23
9 -2 17 -12 17 -23z m188 5 c-3 -11 -7 -20 -9 -20 -2 0 -4 9 -4 20 0 11 4 20
9 20 5 0 7 -9 4 -20z m117 0 c0 -11 -2 -20 -4 -20 -2 0 -6 9 -9 20 -3 11 -1
20 4 20 5 0 9 -9 9 -20z m155 7 c-20 -15 -5 -34 17 -21 7 4 8 3 4 -4 -10 -16
-33 -15 -39 1 -6 19 4 37 21 37 13 0 13 -2 -3 -13z m125 -26 c0 -6 -9 -11 -20
-11 -19 0 -20 7 -11 48 2 8 31 -28 31 -37z m-2023 7 c-3 -8 -6 -5 -6 6 -1 11
2 17 5 13 3 -3 4 -12 1 -19z m213 5 c0 -10 -4 -14 -8 -8 -4 6 -11 13 -16 18
-5 4 -2 7 7 7 10 0 17 -8 17 -17z m27 -5 c-3 -8 -6 -5 -6 6 -1 11 2 17 5 13 3
-3 4 -12 1 -19z m320 0 c-3 -8 -6 -5 -6 6 -1 11 2 17 5 13 3 -3 4 -12 1 -19z
m926 2 c4 -16 0 -20 -16 -19 -12 0 -16 3 -9 6 6 2 12 11 12 19 0 20 7 17 13
-6z m217 0 c0 -11 -4 -20 -9 -20 -7 0 -8 17 -2 38 4 10 11 -2 11 -18z m85 11
c3 -5 1 -12 -5 -16 -5 -3 -10 1 -10 9 0 18 6 21 15 7z m-1467 -26 c-3 -3 -9 2
-12 12 -6 14 -5 15 5 6 7 -7 10 -15 7 -18z m672 21 c0 -3 -4 -8 -10 -11 -5 -3
-10 -1 -10 4 0 6 5 11 10 11 6 0 10 -2 10 -4z m-1746 -136 c1 -16 -2 -30 -5
-30 -8 0 -17 58 -11 65 9 9 15 -4 16 -35z m-100 22 c-7 -4 -14 -16 -17 -27 -4
-15 -5 -14 -6 8 -1 20 4 27 17 27 11 0 13 -3 6 -8z m56 -7 c0 -8 -7 -15 -16
-15 -8 0 -12 -5 -9 -10 4 -6 11 -7 17 -4 7 4 8 2 4 -4 -4 -7 -11 -12 -16 -12
-12 0 -23 37 -15 50 10 15 35 12 35 -5z m90 -35 c5 0 11 11 14 25 6 23 6 23 4
-2 -4 -36 -33 -38 -34 -3 -1 22 0 22 3 3 2 -13 8 -23 13 -23z m64 42 c-7 -4
-14 -16 -17 -27 -4 -15 -5 -14 -6 8 -1 20 4 27 17 27 11 0 13 -3 6 -8z m56 -9
c0 -15 -2 -15 -9 -4 -7 11 -10 9 -14 -10 -4 -23 -4 -22 -6 4 -1 18 4 27 14 27
8 0 15 -8 15 -17z m270 -8 c0 -14 -2 -25 -4 -25 -2 0 -6 11 -8 25 -3 14 -1 25
3 25 5 0 9 -11 9 -25z m47 19 c-3 -3 -12 -4 -19 -1 -8 3 -5 6 6 6 11 1 17 -2
13 -5z m-180 -26 c-3 -8 -6 -5 -6 6 -1 11 2 17 5 13 3 -3 4 -12 1 -19z m-33
-4 c5 -14 4 -15 -9 -4 -17 14 -19 20 -6 20 5 0 12 -7 15 -16z m106 12 c0 -3
-4 -8 -10 -11 -5 -3 -10 -1 -10 4 0 6 5 11 10 11 6 0 10 -2 10 -4z m-795 -107
c-4 -6 -11 -23 -15 -37 -8 -25 -8 -24 -9 11 -1 27 3 37 15 37 8 0 12 -5 9 -11z
m485 -25 c0 -28 -3 -35 -17 -32 -11 2 -19 13 -20 28 -1 22 -1 22 4 3 5 -27 25
-31 22 -5 -2 25 0 42 6 42 3 0 5 -16 5 -36z m-590 -4 c0 -20 -5 -30 -15 -30
-20 0 -31 28 -17 42 8 8 9 5 5 -11 -3 -12 -1 -21 6 -21 6 0 11 11 11 25 0 14
2 25 5 25 3 0 5 -13 5 -30z m41 0 c6 0 7 6 3 13 -5 9 -4 9 6 0 16 -14 6 -43
-15 -43 -10 0 -15 9 -14 28 0 15 3 21 6 15 2 -7 9 -13 14 -13z m176 -14 c-7
-17 -37 -22 -37 -6 0 5 7 7 17 3 13 -5 15 -2 10 17 -4 16 -3 20 5 12 6 -6 8
-18 5 -26z m43 24 c5 8 10 11 10 5 0 -5 -5 -17 -10 -25 -9 -13 -11 -13 -20 0
-5 8 -10 20 -10 25 0 6 5 3 10 -5 9 -13 11 -13 20 0z m36 -7 c-2 -10 4 -21 13
-25 14 -6 14 -7 -1 -7 -21 -1 -32 15 -24 34 8 21 15 19 12 -2z m21 -5 c-3 -8
-6 -5 -6 6 -1 11 2 17 5 13 3 -3 4 -12 1 -19z m53 18 c0 -3 -4 -8 -10 -11 -5
-3 -10 -1 -10 4 0 6 5 11 10 11 6 0 10 -2 10 -4z m82 -18 c-4 -17 -2 -20 11
-15 10 4 17 2 17 -3 0 -13 -27 -13 -35 0 -4 6 -4 17 -1 25 8 23 15 18 8 -7z
m78 -3 c0 -17 -5 -25 -17 -25 -15 0 -16 2 -3 10 11 7 11 10 2 10 -10 0 -10 3
0 15 17 19 18 19 18 -10z m87 -7 c-3 -7 -5 -2 -5 12 0 14 2 19 5 13 2 -7 2
-19 0 -25z m230 0 c-3 -7 -5 -2 -5 12 0 14 2 19 5 13 2 -7 2 -19 0 -25z m-157
18 c0 -3 -4 -8 -10 -11 -5 -3 -10 -1 -10 4 0 6 5 11 10 11 6 0 10 -2 10 -4z
m55 -25 c-3 -6 -11 -11 -16 -11 -5 0 -4 6 3 14 14 16 24 13 13 -3z m-428 -196
c0 -8 -7 -15 -15 -15 -12 0 -12 3 -2 15 7 8 13 15 15 15 1 0 2 -7 2 -15z m150
-37 c-2 -13 -4 -5 -4 17 -1 22 1 32 4 23 2 -10 2 -28 0 -40z m-255 -20 c-12
-12 -32 -2 -32 15 0 8 3 8 9 -2 6 -9 11 -10 15 -2 9 14 -2 33 -15 26 -5 -4 -9
-2 -9 4 0 5 8 11 18 13 19 4 30 -38 14 -54z m633 52 c3 -5 -1 -10 -10 -10 -9
0 -13 5 -10 10 3 6 8 10 10 10 2 0 7 -4 10 -10z m-577 -18 c2 -7 -3 -12 -12
-12 -9 0 -16 -5 -16 -11 0 -6 7 -8 18 -4 13 5 14 3 5 -6 -14 -14 -33 -3 -33
20 0 31 28 41 38 13z m157 8 c4 -6 -1 -7 -11 -3 -14 5 -16 2 -12 -20 3 -15 1
-24 -3 -21 -11 6 -12 38 -2 47 9 10 21 9 28 -3z m112 -6 c7 -19 -21 -51 -32
-35 -3 7 -1 10 6 9 7 -2 15 6 17 16 3 14 0 17 -13 13 -9 -4 -14 -3 -10 3 9 15
25 12 32 -6z m48 6 c4 -6 -1 -7 -11 -3 -12 4 -15 3 -10 -5 4 -7 2 -12 -3 -12
-12 0 -14 13 -4 23 9 10 21 9 28 -3z m52 -27 c-3 -10 -5 -4 -5 12 0 17 2 24 5
18 2 -7 2 -21 0 -30z m53 33 c0 -3 -4 -8 -10 -11 -5 -3 -10 -1 -10 4 0 6 5 11
10 11 6 0 10 -2 10 -4z m58 -14 c2 -7 -3 -12 -12 -12 -9 0 -16 -5 -16 -11 0
-6 7 -8 18 -4 13 5 14 3 5 -6 -14 -14 -33 -3 -33 20 0 31 28 41 38 13z m129
-14 c-3 -8 -6 -5 -6 6 -1 11 2 17 5 13 3 -3 4 -12 1 -19z m80 -10 c-3 -7 -5
-2 -5 12 0 14 2 19 5 13 2 -7 2 -19 0 -25z m-375 -10 c-9 -9 -15 -9 -24 1 -11
10 -10 11 5 6 10 -5 17 -2 17 6 0 7 3 9 7 6 4 -4 1 -13 -5 -19z m-185 -120
c-3 -7 -5 -2 -5 12 0 14 2 19 5 13 2 -7 2 -19 0 -25z m120 0 c-3 -7 -5 -2 -5
12 0 14 2 19 5 13 2 -7 2 -19 0 -25z m170 26 c-3 -3 -12 -4 -19 -1 -8 3 -5 6
6 6 11 1 17 -2 13 -5z m190 -26 c-3 -7 -5 -2 -5 12 0 14 2 19 5 13 2 -7 2 -19
0 -25z m370 0 c-3 -7 -5 -2 -5 12 0 14 2 19 5 13 2 -7 2 -19 0 -25z m-820 0
c-3 -8 -6 -5 -6 6 -1 11 2 17 5 13 3 -3 4 -12 1 -19z m50 -10 c-3 -7 -5 -2 -5
12 0 14 2 19 5 13 2 -7 2 -19 0 -25z m80 10 c-3 -8 -6 -5 -6 6 -1 11 2 17 5
13 3 -3 4 -12 1 -19z m-100 -3 c0 -8 -4 -12 -9 -9 -5 3 -6 10 -3 15 9 13 12
11 12 -6z m230 9 c-3 -3 -12 -4 -19 -1 -8 3 -5 6 6 6 11 1 17 -2 13 -5z m1844
-121 c-4 -28 -6 -32 -9 -15 -3 22 3 52 11 52 1 0 1 -17 -2 -37z m-1476 18 c3
-5 1 -12 -5 -16 -5 -3 -10 1 -10 9 0 18 6 21 15 7z m50 -1 c3 -5 1 -10 -4 -10
-6 0 -11 5 -11 10 0 6 2 10 4 10 3 0 8 -4 11 -10z m322 -22 c-3 -7 -5 -2 -5
12 0 14 2 19 5 13 2 -7 2 -19 0 -25z m156 7 c-7 -21 -13 -19 -13 6 0 11 4 18
10 14 5 -3 7 -12 3 -20z m-1163 11 c0 -3 -4 -8 -10 -11 -5 -3 -10 -1 -10 4 0
6 5 11 10 11 6 0 10 -2 10 -4z m37 -33 c-3 -10 -5 -4 -5 12 0 17 2 24 5 18 2
-7 2 -21 0 -30z m503 12 c0 -14 -2 -25 -4 -25 -2 0 -6 11 -8 25 -3 14 -1 25 3
25 5 0 9 -11 9 -25z m47 19 c-3 -3 -12 -4 -19 -1 -8 3 -5 6 6 6 11 1 17 -2 13
-5z m240 -31 c-3 -10 -5 -4 -5 12 0 17 2 24 5 18 2 -7 2 -21 0 -30z m485 10
c-3 -16 -7 -22 -10 -15 -4 13 4 42 11 42 2 0 2 -12 -1 -27z m393 16 c11 -16 1
-19 -13 -3 -7 8 -8 14 -3 14 5 0 13 -5 16 -11z m212 -20 c1 -19 1 -20 -4 -4
-3 11 -10 24 -17 28 -7 6 -6 7 4 4 8 -2 16 -14 17 -28z m60 1 c1 -22 1 -23 -4
-2 -2 12 -8 20 -13 17 -5 -3 -12 0 -15 6 -5 7 0 10 11 7 12 -2 20 -13 21 -28z
m48 19 c11 -16 1 -19 -13 -3 -7 8 -8 14 -3 14 5 0 13 -5 16 -11z m162 -6 c2
-6 -5 -13 -17 -16 -12 -3 -20 0 -20 7 0 26 29 33 37 9z m355 -12 c2 -17 1 -28
-4 -25 -8 5 -12 54 -4 54 2 0 6 -13 8 -29z m58 25 c0 -3 -4 -8 -10 -11 -5 -3
-10 -1 -10 4 0 6 5 11 10 11 6 0 10 -2 10 -4z m108 -3 c-9 -2 -19 -14 -21 -26
-4 -18 -5 -17 -6 6 -1 22 3 27 22 26 15 -1 17 -3 5 -6z m-1371 -25 c-3 -8 -6
-5 -6 6 -1 11 2 17 5 13 3 -3 4 -12 1 -19z m530 -10 c-3 -7 -5 -2 -5 12 0 14
2 19 5 13 2 -7 2 -19 0 -25z m-983 6 c3 -8 2 -12 -4 -9 -6 3 -10 10 -10 16 0
14 7 11 14 -7z m480 0 c3 -8 2 -12 -4 -9 -6 3 -10 10 -10 16 0 14 7 11 14 -7z
m181 5 c11 -16 1 -19 -13 -3 -7 8 -8 14 -3 14 5 0 13 -5 16 -11z m145 7 c0 -3
-4 -8 -10 -11 -5 -3 -10 -1 -10 4 0 6 5 11 10 11 6 0 10 -2 10 -4z m320 0 c0
-3 -4 -8 -10 -11 -5 -3 -10 -1 -10 4 0 6 5 11 10 11 6 0 10 -2 10 -4z m225 -6
c3 -6 -1 -7 -9 -4 -18 7 -21 14 -7 14 6 0 13 -4 16 -10z m149 -6 c3 -8 2 -12
-4 -9 -6 3 -10 10 -10 16 0 14 7 11 14 -7z m-2064 -4 c0 -5 -5 -10 -11 -10 -5
0 -7 5 -4 10 3 6 8 10 11 10 2 0 4 -4 4 -10z m163 -27 c-7 -2 -19 -2 -25 0 -7
3 -2 5 12 5 14 0 19 -2 13 -5z m744 1 c-3 -3 -12 -4 -19 -1 -8 3 -5 6 6 6 11
1 17 -2 13 -5z m-370 -241 c-3 -10 -5 -2 -5 17 0 19 2 27 5 18 2 -10 2 -26 0
-35z m-815 12 c-2 -14 -6 -25 -8 -25 -2 0 -4 11 -4 25 0 14 4 25 9 25 4 0 6
-11 3 -25z m283 15 c3 -6 -1 -7 -9 -4 -11 4 -16 0 -16 -12 0 -9 -3 -15 -6 -11
-9 8 3 37 15 37 5 0 13 -4 16 -10z m92 -27 c-3 -10 -5 -4 -5 12 0 17 2 24 5
18 2 -7 2 -21 0 -30z m120 5 c-3 -7 -5 -2 -5 12 0 14 2 19 5 13 2 -7 2 -19 0
-25z m112 5 c-1 -23 -2 -24 -6 -6 -2 12 -12 24 -21 26 -12 3 -10 5 6 6 18 1
22 -4 21 -26z m128 5 c-3 -8 -6 -5 -6 6 -1 11 2 17 5 13 3 -3 4 -12 1 -19z
m56 2 c-3 -12 -8 -19 -11 -16 -5 6 5 36 12 36 2 0 2 -9 -1 -20z m344 14 c-3
-3 -12 -4 -19 -1 -8 3 -5 6 6 6 11 1 17 -2 13 -5z m97 -2 c-6 -4 -14 -14 -17
-22 -4 -10 -6 -8 -6 8 -1 15 5 22 17 22 10 0 13 -3 6 -8z m39 -12 c-3 -12 -8
-19 -11 -16 -5 6 5 36 12 36 2 0 2 -9 -1 -20z m-616 -22 c-3 -7 -5 -2 -5 12 0
14 2 19 5 13 2 -7 2 -19 0 -25z m530 0 c-3 -8 -6 -5 -6 6 -1 11 2 17 5 13 3
-3 4 -12 1 -19z m-640 -24 c-3 -3 -12 -4 -19 -1 -8 3 -5 6 6 6 11 1 17 -2 13
-5z m-482 -229 c0 -14 -3 -25 -7 -25 -4 0 -8 9 -8 20 0 11 -6 20 -12 20 -9 0
-8 3 2 10 18 11 23 6 25 -25z m-101 17 c-7 -4 -14 -16 -17 -27 -4 -15 -5 -14
-6 8 -1 20 4 27 17 27 11 0 13 -3 6 -8z m56 -17 c0 -25 -23 -35 -35 -15 -10
16 2 40 20 40 9 0 15 -9 15 -25z m90 -15 c5 0 11 10 13 23 4 19 4 18 6 -5 1
-22 -4 -28 -19 -28 -15 0 -20 6 -19 28 2 23 2 24 6 5 2 -13 8 -23 13 -23z m64
32 c-7 -4 -14 -16 -17 -27 -4 -15 -5 -14 -6 8 -1 20 4 27 17 27 11 0 13 -3 6
-8z m56 -3 c0 -5 -4 -8 -9 -4 -5 3 -12 -5 -14 -17 -4 -20 -4 -19 -6 5 -1 18 4
27 14 27 8 0 15 -5 15 -11z m2683 -48 c-18 -12 -35 -72 -29 -102 4 -22 2 -29
-7 -26 -14 4 -19 75 -6 83 5 3 9 13 9 23 0 21 20 42 33 34 5 -3 5 -8 0 -12z
m1522 -35 c1 -20 -1 -36 -5 -36 -4 0 -10 -13 -13 -30 -4 -17 -13 -30 -21 -30
-12 0 -11 6 3 35 9 20 16 54 15 76 -1 28 1 38 8 31 6 -6 12 -27 13 -46z m-467
13 c4 -23 -25 -49 -54 -49 -17 0 -24 -6 -24 -19 0 -11 -4 -23 -10 -26 -13 -8
-13 2 1 65 11 51 11 51 47 48 24 -2 38 -9 40 -19z m193 -9 c10 0 19 -6 20 -12
3 -29 -3 -64 -13 -73 -6 -7 -9 2 -6 25 1 19 -1 37 -7 39 -9 4 -13 -1 -34 -49
-10 -21 -10 -16 -6 29 7 59 17 87 23 59 2 -10 12 -18 23 -18z m-71 -25 c-7 -9
-9 -26 -6 -41 5 -19 3 -25 -6 -22 -16 6 -19 77 -5 96 9 11 12 10 20 -3 5 -10
4 -21 -3 -30z m-1126 -15 c7 0 18 10 24 23 l11 22 0 -25 c1 -36 -10 -71 -20
-65 -4 3 -6 12 -2 20 3 10 -2 15 -16 15 -14 0 -21 -6 -21 -20 0 -11 -5 -20
-10 -20 -7 0 -8 14 -4 38 9 48 18 63 22 35 2 -13 9 -23 16 -23z m121 30 c3 -5
3 -26 -1 -45 -6 -33 -9 -36 -37 -33 -17 2 -32 8 -34 13 -5 17 13 36 35 38 28
2 29 17 1 17 -11 0 -17 5 -14 10 8 13 42 13 50 0z m148 -27 c-3 -21 -10 -42
-16 -48 -6 -7 -8 3 -4 28 5 31 3 37 -13 37 -12 0 -20 -10 -24 -35 -4 -20 -11
-33 -16 -30 -5 3 -7 11 -5 18 2 7 6 24 9 40 5 23 11 27 41 27 33 0 34 0 28
-37z m93 22 c12 -31 -5 -65 -36 -72 -17 -3 -30 -12 -30 -19 0 -8 -5 -14 -11
-14 -6 0 -8 8 -5 18 2 9 8 33 11 52 9 46 9 45 40 48 15 1 28 -4 31 -13z m41
-11 l-4 -25 26 25 c36 35 43 33 35 -11 -8 -49 -24 -66 -24 -27 l-1 29 -20 -27
c-29 -39 -41 -35 -33 10 7 40 12 52 21 52 3 0 3 -12 0 -26z m113 6 c0 -26 14
-25 33 3 8 12 18 19 21 16 10 -9 -5 -89 -16 -89 -6 0 -7 12 -4 28 6 26 6 26
-9 7 -16 -20 -16 -20 -31 -1 -14 19 -14 19 -14 -1 0 -12 -5 -25 -12 -29 -8 -5
-9 2 -5 26 4 18 7 39 7 46 0 8 7 14 15 14 8 0 15 -9 15 -20z m148 -7 c3 -20
-1 -23 -28 -23 -21 0 -30 -4 -27 -12 2 -7 15 -12 28 -11 24 3 24 3 2 -8 -36
-19 -57 -4 -49 33 3 18 12 36 19 40 22 15 52 4 55 -19z m88 12 c12 -31 -5 -65
-36 -72 -17 -3 -30 -12 -30 -19 0 -8 -5 -14 -11 -14 -6 0 -8 8 -5 18 2 9 8 36
11 60 6 38 9 42 36 42 17 0 32 -6 35 -15z m84 0 c16 -19 4 -35 -26 -35 -13 0
-24 -5 -24 -11 0 -7 9 -9 21 -6 13 3 19 1 16 -6 -2 -7 -15 -12 -28 -12 -18 0
-25 6 -27 26 -5 45 42 76 68 44z m200 -23 l0 -27 21 34 c33 54 34 27 2 -31
-17 -30 -38 -54 -49 -56 -18 -3 -18 -2 -1 9 16 9 18 19 12 61 -5 36 -4 49 4
44 6 -4 11 -19 11 -34z m274 22 c10 -27 -16 -69 -44 -69 -20 0 -26 6 -28 26
-5 46 57 83 72 43z m88 -24 c-1 -19 -8 -39 -14 -45 -7 -7 -9 1 -4 27 11 63
-23 57 -39 -7 -10 -40 -19 -14 -10 31 6 32 9 35 38 32 30 -3 32 -5 29 -38z
m-4510 -8 c-15 -5 -16 -38 -2 -45 6 -3 5 -4 -2 -3 -12 2 -30 51 -21 60 3 2 12
2 21 -2 10 -4 12 -7 4 -10z m-99 1 c-7 -2 -13 -12 -13 -21 0 -14 -2 -15 -9 -2
-12 18 -5 30 17 29 11 0 12 -3 5 -6z m55 -11 c2 -7 -3 -12 -12 -12 -9 0 -16
-5 -16 -11 0 -6 7 -8 18 -4 13 5 14 3 5 -6 -14 -14 -33 -3 -33 20 0 31 28 41
38 13z m156 10 c-7 -4 -14 -16 -17 -27 -4 -15 -5 -14 -6 8 -1 20 4 27 17 27
11 0 13 -3 6 -8z m55 -19 l-1 -28 -7 25 c-7 24 -7 24 -19 5 -9 -15 -11 -16
-12 -4 0 19 9 29 27 29 8 0 13 -11 12 -27z m105 19 c2 -4 -4 -8 -14 -8 -10 0
-16 4 -14 8 3 4 9 8 14 8 5 0 11 -4 14 -8z m-216 -22 c6 14 11 18 11 10 1 -23
-15 -43 -28 -36 -6 4 -11 17 -10 29 1 20 2 20 9 -3 l7 -25 11 25z m429 -12
c-3 -7 -5 -2 -5 12 0 14 2 19 5 13 2 -7 2 -19 0 -25z m-797 -113 c0 -25 -4
-35 -15 -35 -20 0 -31 28 -17 42 8 8 9 5 5 -11 -3 -12 -1 -21 6 -21 6 0 11 14
11 30 0 17 2 30 5 30 3 0 5 -16 5 -35z m100 25 c-13 -9 -13 -10 0 -10 10 0 11
-3 4 -8 -7 -4 -14 -16 -17 -27 -3 -14 -5 -11 -6 11 -1 32 5 44 23 44 6 0 4 -5
-4 -10z m330 -25 c0 -28 -4 -35 -20 -35 -15 0 -20 6 -19 28 2 23 2 24 6 5 5
-27 25 -31 22 -5 -2 25 0 42 6 42 3 0 5 -16 5 -35z m94 20 c-4 -8 -10 -15 -15
-15 -4 0 -6 7 -3 15 4 8 10 15 15 15 4 0 6 -7 3 -15z m326 -29 c0 -26 -6 -18
-14 19 -5 22 -4 26 4 15 5 -8 10 -24 10 -34z m-809 4 c6 0 7 6 3 13 -5 9 -4 9
6 0 16 -14 6 -43 -15 -43 -10 0 -15 9 -14 28 0 15 3 21 6 15 2 -7 9 -13 14
-13z m179 -5 c0 -20 -20 -29 -33 -16 -9 9 -7 10 7 5 16 -6 18 -4 14 14 -4 12
-2 20 3 16 5 -3 9 -11 9 -19z m40 15 c5 8 10 11 10 5 0 -5 -5 -17 -10 -25 -9
-13 -11 -13 -20 0 -5 8 -10 20 -10 25 0 6 5 3 10 -5 9 -13 11 -13 20 0z m35 0
c-3 -5 -2 -10 4 -10 5 0 12 6 14 13 3 7 6 5 6 -5 1 -11 -6 -18 -16 -19 -15 0
-15 -2 2 -9 16 -7 17 -9 3 -9 -9 -1 -20 4 -23 9 -7 12 0 40 10 40 4 0 3 -4 0
-10z m75 6 c0 -3 -4 -8 -10 -11 -5 -3 -10 -1 -10 4 0 6 5 11 10 11 6 0 10 -2
10 -4z m86 -13 c-2 -10 4 -21 13 -25 14 -6 14 -7 -1 -7 -21 -1 -32 15 -24 34
8 21 15 19 12 -2z m21 -5 c-3 -8 -6 -5 -6 6 -1 11 2 17 5 13 3 -3 4 -12 1 -19z
m240 -10 c-3 -7 -5 -2 -5 12 0 14 2 19 5 13 2 -7 2 -19 0 -25z m-200 -10 c-3
-8 -6 -5 -6 6 -1 11 2 17 5 13 3 -3 4 -12 1 -19z m168 -6 c-3 -3 -11 0 -18 7
-9 10 -8 11 6 5 10 -3 15 -9 12 -12z m3565 -66 c0 -22 3 -23 40 -16 51 9 60
-2 14 -19 -35 -13 -46 -31 -19 -31 9 0 18 -7 21 -15 4 -8 17 -15 30 -15 30 0
31 -13 3 -39 l-21 -20 33 -9 c23 -5 34 -14 33 -25 -1 -9 -2 -28 -3 -42 -1 -25
-1 -25 -104 -25 -57 0 -107 3 -110 7 -4 4 5 20 20 36 27 28 27 30 6 24 -29 -6
-31 18 -4 34 10 7 16 20 14 29 -3 10 0 21 6 24 6 4 11 14 11 23 0 12 -7 14
-30 10 -39 -8 -39 7 1 24 30 12 30 13 10 20 -26 10 -26 18 -3 35 28 22 52 17
52 -10z m-3985 -25 c3 -5 0 -13 -6 -17 -8 -5 -9 -3 -4 6 6 10 4 12 -9 7 -10
-4 -15 -3 -11 3 8 13 22 13 30 1z m48 -9 c-5 -11 -7 -11 -14 0 -6 9 -9 6 -10
-12 0 -14 -3 -19 -6 -12 -7 19 3 39 20 39 9 0 13 -6 10 -15z m420 11 c-7 -2
-13 -14 -14 -26 0 -12 -3 -16 -6 -9 -7 18 4 42 19 41 10 0 10 -2 1 -6z m224
-24 c1 -19 1 -20 -4 -4 -3 11 -10 24 -17 28 -7 6 -6 7 4 4 8 -2 16 -14 17 -28z
m139 16 c-3 -20 -16 -31 -16 -13 0 13 8 28 16 28 1 0 1 -7 0 -15z m-909 -17
c-3 -8 -6 -5 -6 6 -1 11 2 17 5 13 3 -3 4 -12 1 -19z m183 6 c0 -2 -7 -4 -15
-4 -8 0 -15 4 -15 10 0 5 7 7 15 4 8 -4 15 -8 15 -10z m697 -16 c-3 -7 -5 -2
-5 12 0 14 2 19 5 13 2 -7 2 -19 0 -25z m-500 0 c-3 -8 -6 -5 -6 6 -1 11 2 17
5 13 3 -3 4 -12 1 -19z m3943 2 c0 -5 -11 -10 -25 -10 -32 0 -33 -26 -1 -34
52 -13 36 -76 -19 -76 l-35 0 0 65 0 65 40 0 c22 0 40 -4 40 -10z m87 2 c17
-11 25 -66 13 -97 -8 -22 -15 -26 -42 -23 -32 3 -33 4 -36 57 -2 37 1 57 10
62 16 11 39 11 55 1z m78 -19 l7 -28 10 28 c12 33 33 35 42 5 9 -37 7 -108 -4
-108 -5 0 -10 10 -10 23 0 12 -4 28 -9 35 -6 10 -10 9 -14 -7 -7 -28 -23 -27
-32 2 -7 19 -9 17 -12 -15 -7 -60 -29 -47 -25 14 2 29 5 59 7 66 8 22 33 13
40 -15z m155 18 c0 -5 -10 -11 -22 -13 -28 -4 -36 -28 -10 -28 28 0 45 -25 38
-55 -5 -21 -12 -25 -41 -25 l-35 0 0 65 0 65 35 0 c19 0 35 -4 35 -9z m98 -3
c13 -13 16 -86 4 -104 -15 -22 -42 -24 -62 -4 -22 22 -26 70 -10 101 12 21 50
25 68 7z m102 -3 c17 -20 3 -54 -26 -61 -17 -4 -24 -13 -24 -30 0 -13 -4 -24
-10 -24 -6 0 -10 28 -10 65 0 65 0 65 29 65 16 0 34 -7 41 -15z m74 -39 c9
-30 16 -59 16 -65 0 -15 -13 -14 -28 1 -10 10 -17 10 -33 0 -12 -8 -23 -11
-26 -9 -9 10 30 127 43 127 7 0 20 -24 28 -54z m-4251 17 c-7 -2 -19 -2 -25 0
-7 3 -2 5 12 5 14 0 19 -2 13 -5z m50 0 c-7 -2 -19 -2 -25 0 -7 3 -2 5 12 5
14 0 19 -2 13 -5z m264 1 c-3 -3 -12 -4 -19 -1 -8 3 -5 6 6 6 11 1 17 -2 13
-5z m56 -1 c-7 -2 -19 -2 -25 0 -7 3 -2 5 12 5 14 0 19 -2 13 -5z m3327 -145
c1 -23 1 -23 16 -3 13 17 16 18 24 5 13 -20 12 -33 0 -25 -6 4 -16 2 -23 -3
-7 -5 -23 -8 -37 -7 -14 2 -30 4 -37 4 -16 1 -12 41 4 41 7 0 13 -8 14 -17 0
-14 2 -13 9 5 5 12 14 22 20 22 5 0 10 -10 10 -22z m73 15 c3 -5 1 -17 -4 -28
-4 -11 -8 -15 -8 -8 -1 6 -4 18 -7 27 -6 16 11 23 19 9z m43 -4 c3 -6 0 -15
-7 -20 -11 -7 -11 -9 2 -9 9 0 19 9 22 21 7 26 27 15 26 -14 0 -21 -1 -21 -9
-2 -7 17 -9 17 -9 3 -1 -12 -9 -18 -26 -18 -20 0 -25 5 -25 25 0 26 14 33 26
14z m156 -21 c-5 -21 -6 -21 -12 -2 -8 21 -3 37 10 29 4 -3 6 -15 2 -27z m48
5 c0 -14 -6 -23 -15 -23 -9 0 -15 9 -15 23 0 14 6 24 15 24 9 0 15 -10 15 -24z
m-400 -1 c0 -11 -8 -18 -20 -19 -14 -1 -20 4 -20 18 0 12 7 19 20 19 13 0 20
-7 20 -18z m290 8 c0 5 8 10 18 9 10 0 12 -3 5 -6 -7 -2 -13 -9 -13 -14 0 -6
5 -7 10 -4 6 3 10 2 10 -3 0 -6 -16 -10 -35 -10 -28 0 -35 4 -35 19 0 17 3 18
20 9 14 -7 20 -7 20 0z m155 -10 c0 -8 -8 -16 -17 -18 -13 -2 -18 3 -18 18 0
15 5 20 18 18 9 -2 17 -10 17 -18z"/>
<path d="M1352 8181 c-17 -47 -15 -51 13 -51 28 0 28 1 11 50 l-13 34 -11 -33z"/>
<path d="M2191 8166 c-20 -23 -10 -80 14 -84 18 -2 20 3 20 44 0 49 -13 65
-34 40z"/>
<path d="M2250 8130 c0 -42 3 -50 19 -50 30 0 44 63 19 88 -26 26 -38 13 -38
-38z"/>
<path d="M2393 8172 c-29 -18 -19 -92 12 -92 11 0 15 13 15 50 0 50 -4 57 -27
42z"/>
<path d="M2450 8129 c0 -43 3 -50 18 -47 33 6 24 98 -9 98 -5 0 -9 -23 -9 -51z"/>
<path d="M781 8166 c-7 -8 -11 -30 -9 -48 2 -28 7 -34 30 -36 22 -3 29 2 34
23 13 52 -27 95 -55 61z"/>
<path d="M936 8164 c-17 -17 -19 -27 -10 -62 5 -18 13 -22 33 -20 21 2 27 9
29 36 3 32 -11 62 -29 62 -4 0 -15 -7 -23 -16z"/>
<path d="M1660 8100 c0 -17 5 -21 28 -18 16 2 27 9 27 18 0 9 -11 16 -27 18
-23 3 -28 -1 -28 -18z"/>
<path d="M2045 8168 c-6 -18 -8 -39 -6 -66 1 -19 6 -23 29 -20 24 3 27 8 30
42 2 24 -2 42 -10 47 -19 13 -38 11 -43 -3z"/>
<path d="M699 7923 c-13 -35 3 -73 31 -73 23 0 36 36 26 75 -9 35 -43 33 -57
-2z"/>
<path d="M1070 7865 c0 -8 9 -15 20 -15 11 0 20 7 20 15 0 8 -9 15 -20 15 -11
0 -20 -7 -20 -15z"/>
<path d="M1157 7874 c-4 -4 -4 -11 -1 -15 8 -14 31 -10 38 6 5 15 -24 22 -37
9z"/>
<path d="M1570 7864 c0 -9 7 -14 17 -12 25 5 28 28 4 28 -12 0 -21 -6 -21 -16z"/>
<path d="M2070 7865 c0 -8 9 -15 20 -15 11 0 20 7 20 15 0 8 -9 15 -20 15 -11
0 -20 -7 -20 -15z"/>
<path d="M1420 6915 c0 -8 5 -15 10 -15 6 0 10 7 10 15 0 8 -4 15 -10 15 -5 0
-10 -7 -10 -15z"/>
<path d="M780 6510 c0 -19 3 -21 12 -12 9 9 9 15 0 24 -9 9 -12 7 -12 -12z"/>
<path d="M1045 6390 c-3 -5 -1 -10 4 -10 6 0 11 5 11 10 0 6 -2 10 -4 10 -3 0
-8 -4 -11 -10z"/>
<path d="M916 5793 c-3 -16 -8 -53 -11 -83 -4 -30 -9 -63 -11 -72 -5 -16 2
-18 55 -18 34 0 61 3 61 8 1 4 7 49 14 100 l13 92 -58 0 c-55 0 -58 -1 -63
-27z"/>
<path d="M2036 5879 c-7 -21 -56 -270 -56 -286 0 -9 17 -13 66 -13 57 0 65 2
60 18 -2 9 -17 78 -32 152 -14 74 -28 137 -30 139 -2 2 -6 -2 -8 -10z"/>
<path d="M4670 5535 l0 -155 40 0 c52 0 93 21 108 55 15 32 16 179 2 206 -15
27 -63 49 -110 49 l-40 0 0 -155z"/>
<path d="M1710 4930 c-19 -19 -20 -33 -20 -225 0 -205 0 -206 25 -230 29 -30
68 -32 95 -5 19 19 20 33 20 233 0 195 -2 215 -18 230 -25 23 -78 21 -102 -3z"/>
<path d="M1280 4835 l0 -115 43 0 c69 0 87 24 87 115 0 93 -16 115 -85 115
l-45 0 0 -115z"/>
<path d="M2510 4835 l0 -115 39 0 c24 0 48 8 65 21 24 19 26 26 26 94 0 91
-18 115 -87 115 l-43 0 0 -115z"/>
<path d="M2906 4728 c-10 -56 -20 -108 -23 -115 -4 -10 8 -13 45 -13 l49 0
-22 110 c-12 61 -24 113 -27 115 -2 3 -13 -41 -22 -97z"/>
<path d="M4960 4140 c0 -11 7 -20 15 -20 8 0 15 9 15 20 0 11 -7 20 -15 20 -8
0 -15 -9 -15 -20z"/>
<path d="M4960 4065 c0 -16 6 -25 15 -25 9 0 15 9 15 25 0 16 -6 25 -15 25 -9
0 -15 -9 -15 -25z"/>
<path d="M907 4063 c-12 -11 -8 -23 8 -23 8 0 15 7 15 15 0 16 -12 20 -23 8z"/>
<path d="M1257 4063 c-12 -11 -8 -23 8 -23 8 0 15 7 15 15 0 16 -12 20 -23 8z"/>
<path d="M1710 4055 c0 -8 5 -15 10 -15 6 0 10 7 10 15 0 8 -4 15 -10 15 -5 0
-10 -7 -10 -15z"/>
<path d="M1900 4105 c0 -8 5 -15 10 -15 6 0 10 7 10 15 0 8 -4 15 -10 15 -5 0
-10 -7 -10 -15z"/>
<path d="M2150 4075 c0 -19 5 -35 10 -35 6 0 10 16 10 35 0 19 -4 35 -10 35
-5 0 -10 -16 -10 -35z"/>
<path d="M2250 4075 c0 -19 5 -35 10 -35 6 0 10 16 10 35 0 19 -4 35 -10 35
-5 0 -10 -16 -10 -35z"/>
<path d="M2420 4075 c0 -19 5 -35 10 -35 6 0 10 16 10 35 0 19 -4 35 -10 35
-5 0 -10 -16 -10 -35z"/>
<path d="M2520 4055 c0 -8 5 -15 10 -15 6 0 10 7 10 15 0 8 -4 15 -10 15 -5 0
-10 -7 -10 -15z"/>
<path d="M2970 4075 c0 -19 5 -35 10 -35 6 0 10 16 10 35 0 19 -4 35 -10 35
-5 0 -10 -16 -10 -35z"/>
<path d="M3064 4096 c-8 -21 -1 -49 14 -54 8 -2 12 8 12 32 0 36 -16 49 -26
22z"/>
<path d="M3160 4100 c0 -5 5 -10 10 -10 6 0 10 5 10 10 0 6 -4 10 -10 10 -5 0
-10 -4 -10 -10z"/>
<path d="M3160 4055 c0 -8 5 -15 10 -15 6 0 10 7 10 15 0 8 -4 15 -10 15 -5 0
-10 -7 -10 -15z"/>
<path d="M3260 4055 c0 -8 5 -15 10 -15 6 0 10 7 10 15 0 8 -4 15 -10 15 -5 0
-10 -7 -10 -15z"/>
<path d="M3430 4055 c0 -8 5 -15 10 -15 6 0 10 7 10 15 0 8 -4 15 -10 15 -5 0
-10 -7 -10 -15z"/>
<path d="M4000 4075 c0 -19 5 -35 10 -35 6 0 10 16 10 35 0 19 -4 35 -10 35
-5 0 -10 -16 -10 -35z"/>
<path d="M4098 4093 c-6 -24 1 -53 13 -53 5 0 9 16 9 35 0 36 -15 48 -22 18z"/>
<path d="M4370 4055 c0 -8 7 -15 15 -15 8 0 15 7 15 15 0 8 -7 15 -15 15 -8 0
-15 -7 -15 -15z"/>
<path d="M4560 4105 c0 -8 5 -15 10 -15 6 0 10 7 10 15 0 8 -4 15 -10 15 -5 0
-10 -7 -10 -15z"/>
<path d="M4715 4109 c-10 -15 3 -25 16 -12 7 7 7 13 1 17 -6 3 -14 1 -17 -5z"/>
<path d="M4715 4059 c-10 -15 3 -25 16 -12 7 7 7 13 1 17 -6 3 -14 1 -17 -5z"/>
<path d="M4865 4100 c-3 -5 1 -10 9 -10 9 0 16 5 16 10 0 6 -4 10 -9 10 -6 0
-13 -4 -16 -10z"/>
<path d="M5070 4055 c0 -8 5 -15 10 -15 6 0 10 7 10 15 0 8 -4 15 -10 15 -5 0
-10 -7 -10 -15z"/>
<path d="M1049 3848 c-6 -21 -5 -38 2 -38 5 0 9 9 9 20 0 16 -7 28 -11 18z"/>
<path d="M1845 3837 c-4 -10 -5 -21 -1 -24 10 -10 18 4 13 24 -4 17 -4 17 -12
0z"/>
<path d="M830 3560 c0 -11 5 -20 10 -20 6 0 10 9 10 20 0 11 -4 20 -10 20 -5
0 -10 -9 -10 -20z"/>
<path d="M1420 3290 c0 -19 3 -21 12 -12 9 9 9 15 0 24 -9 9 -12 7 -12 -12z"/>
<path d="M1740 3290 c0 -19 3 -21 12 -12 9 9 9 15 0 24 -9 9 -12 7 -12 -12z"/>
<path d="M1950 3290 c0 -11 5 -20 10 -20 6 0 10 9 10 20 0 11 -4 20 -10 20 -5
0 -10 -9 -10 -20z"/>
<path d="M4957 843 c-10 -9 -9 -43 1 -43 18 0 45 28 38 38 -8 13 -29 16 -39 5z"/>
<path d="M4085 770 c-3 -5 1 -10 9 -10 8 0 18 5 21 10 3 6 -1 10 -9 10 -8 0
-18 -4 -21 -10z"/>
<path d="M4332 808 c-13 -13 -16 -41 -6 -51 12 -12 34 6 34 28 0 29 -13 38
-28 23z"/>
<path d="M4636 813 c-11 -11 -6 -23 9 -23 8 0 15 4 15 9 0 13 -16 22 -24 14z"/>
<path d="M4720 799 c-16 -29 -5 -56 15 -39 17 14 20 46 6 55 -6 3 -15 -4 -21
-16z"/>
<path d="M4810 805 c-10 -13 -9 -15 9 -15 11 0 21 4 21 9 0 18 -18 21 -30 6z"/>
<path d="M5283 813 c-15 -6 -17 -49 -3 -58 13 -8 36 43 24 54 -5 5 -15 6 -21
4z"/>
<path d="M4834 425 c-24 -18 -7 -19 26 0 16 9 19 14 9 15 -8 0 -24 -7 -35 -15z"/>
<path d="M5050 400 c0 -13 5 -20 13 -17 6 2 12 10 12 17 0 7 -6 15 -12 18 -8
2 -13 -5 -13 -18z"/>
<path d="M5144 457 c-11 -29 0 -72 19 -75 16 -3 18 2 15 39 -3 43 -23 64 -34
36z"/>
<path d="M5370 400 c0 -15 5 -20 18 -18 9 2 17 10 17 18 0 8 -8 16 -17 18 -13
2 -18 -3 -18 -18z"/>
<path d="M5477 463 c-4 -3 -7 -24 -7 -45 0 -32 3 -39 17 -36 20 4 27 29 19 64
-6 24 -17 30 -29 17z"/>
<path d="M5570 456 c0 -9 7 -16 16 -16 9 0 14 5 12 12 -6 18 -28 21 -28 4z"/>
<path d="M5661 424 c0 -11 3 -14 6 -6 3 7 2 16 -1 19 -3 4 -6 -2 -5 -13z"/>
</g>
</svg>
