<?xml version="1.0" standalone="no"?>
<!DOCTYPE svg PUBLIC "-//W3C//DTD SVG 20010904//EN"
 "http://www.w3.org/TR/2001/REC-SVG-20010904/DTD/svg10.dtd">
<svg version="1.0" xmlns="http://www.w3.org/2000/svg"
 width="248.000000pt" height="362.000000pt" viewBox="0 0 248.000000 362.000000"
 preserveAspectRatio="xMidYMid meet">

<g transform="translate(0.000000,362.000000) scale(0.100000,-0.100000)"
fill="#000000" stroke="none">
<path d="M2053 3507 c5 -12 -1 -19 -19 -23 -19 -5 -22 -9 -14 -19 9 -11 15
-11 31 3 22 19 25 37 7 48 -8 5 -9 2 -5 -9z"/>
<path d="M2070 3447 c9 -7 14 -19 12 -29 -2 -9 2 -20 9 -24 9 -5 10 -2 6 9 -3
9 -2 19 3 22 6 4 10 -1 10 -10 0 -9 5 -13 10 -10 18 11 11 23 -22 39 -37 19
-49 20 -28 3z"/>
<path d="M221 3413 c-45 -37 -18 -113 39 -113 35 0 60 28 60 67 0 52 -59 79
-99 46z m67 -15 c32 -32 1 -85 -42 -74 -31 8 -40 33 -21 62 17 26 44 31 63 12z"/>
<path d="M327 3424 c-8 -8 1 -24 14 -24 5 0 9 7 9 15 0 15 -12 20 -23 9z"/>
<path d="M370 3363 c0 -35 4 -63 10 -63 6 0 10 11 10 25 0 33 23 32 48 -2 11
-16 24 -25 28 -21 4 5 -1 17 -11 28 -16 18 -16 20 -1 35 30 31 15 51 -41 57
l-43 4 0 -63z m75 27 c0 -9 -11 -16 -27 -18 -23 -3 -28 1 -28 18 0 17 5 21 28
18 16 -2 27 -9 27 -18z"/>
<path d="M528 3422 l-38 -3 0 -60 0 -59 45 0 c25 0 45 5 45 10 0 6 -16 10 -35
10 -24 0 -35 5 -35 15 0 10 10 15 30 15 17 0 30 5 30 10 0 6 -13 10 -30 10
-24 0 -30 4 -30 21 0 18 5 21 30 17 17 -3 33 -1 36 3 7 11 -7 15 -48 11z"/>
<path d="M600 3366 c0 -37 4 -66 10 -66 6 0 10 26 10 59 0 33 -4 63 -10 66 -6
4 -10 -18 -10 -59z"/>
<path d="M640 3365 l0 -65 40 0 c22 0 40 5 40 10 0 6 -13 10 -30 10 -30 0 -30
1 -30 55 0 30 -4 55 -10 55 -6 0 -10 -28 -10 -65z"/>
<path d="M740 3365 l0 -65 40 0 c22 0 40 5 40 10 0 6 -13 10 -30 10 -30 0 -30
1 -30 55 0 30 -4 55 -10 55 -6 0 -10 -28 -10 -65z"/>
<path d="M800 3424 c0 -3 11 -20 25 -38 14 -18 25 -45 25 -60 0 -15 4 -25 9
-22 5 3 7 15 4 26 -3 13 5 33 22 56 32 42 23 62 -9 21 l-23 -28 -17 25 c-15
23 -36 35 -36 20z"/>
<path d="M930 3415 c0 -9 5 -15 11 -13 6 2 11 8 11 13 0 5 -5 11 -11 13 -6 2
-11 -4 -11 -13z"/>
<path d="M2135 3380 c-3 -6 1 -17 9 -26 9 -8 16 -20 16 -25 0 -14 26 -11 39 5
10 12 8 17 -9 26 -11 6 -26 8 -32 4 -8 -5 -9 -2 -5 9 7 18 -8 24 -18 7z m49
-41 c-3 -5 -10 -7 -15 -3 -5 3 -7 10 -3 15 3 5 10 7 15 3 5 -3 7 -10 3 -15z"/>
<path d="M2196 3315 c-11 -8 -14 -15 -8 -15 7 0 12 -7 12 -15 0 -8 3 -15 8
-15 12 0 33 40 27 50 -8 13 -16 12 -39 -5z"/>
<path d="M2230 3270 c0 -14 11 -25 30 -34 17 -7 27 -16 23 -21 -5 -5 0 -3 10
4 9 7 17 16 17 19 0 3 -3 2 -7 -1 -4 -4 -12 6 -19 23 -15 36 -54 43 -54 10z
m35 -4 c8 -7 11 -16 8 -19 -5 -6 -33 17 -33 27 0 10 11 7 25 -8z"/>
<path d="M2312 3218 c-15 -15 -16 -31 0 -22 8 5 9 2 4 -11 -7 -18 -6 -18 14 0
24 22 26 29 4 21 -12 -4 -15 -2 -10 9 7 18 4 19 -12 3z"/>
<path d="M2340 3175 c-10 -12 -10 -19 -2 -27 15 -15 48 14 38 31 -10 15 -21
14 -36 -4z m24 -16 c-3 -5 -10 -7 -15 -3 -5 3 -7 10 -3 15 3 5 10 7 15 3 5 -3
7 -10 3 -15z"/>
<path d="M144 3125 c-4 -9 6 -31 22 -52 16 -20 59 -75 96 -122 69 -88 201
-280 237 -345 l21 -36 -32 16 c-46 24 -138 54 -138 45 0 -11 68 -73 163 -145
48 -37 87 -74 87 -81 0 -7 16 -35 36 -60 19 -26 33 -49 31 -52 -3 -2 -30 -7
-61 -10 -39 -4 -56 -10 -56 -20 0 -8 53 -73 117 -145 119 -132 125 -145 68
-149 -34 -2 -48 2 -73 22 -26 20 -57 25 -66 10 -4 -5 3 -7 14 -4 14 4 20 0 20
-12 0 -15 -6 -17 -39 -11 -23 3 -54 0 -77 -8 l-39 -14 65 4 c36 1 54 1 40 -2
-57 -11 -70 -15 -69 -22 4 -26 -2 -33 -17 -18 -14 14 -19 14 -60 -9 -24 -13
-51 -22 -59 -19 -8 4 -26 -1 -40 -10 -14 -9 -31 -14 -37 -10 -7 4 -8 3 -4 -4
5 -8 -4 -12 -29 -12 -21 0 -34 -4 -30 -10 3 -6 -1 -7 -10 -4 -9 4 -14 8 -12
10 5 5 130 52 185 69 23 8 50 19 60 25 15 10 15 11 -3 5 -11 -4 -38 -13 -60
-20 -22 -7 -78 -27 -125 -44 -47 -17 -95 -31 -107 -31 -12 0 -34 -5 -50 -11
-22 -8 -25 -12 -13 -20 11 -7 8 -8 -11 -4 -14 4 -41 0 -60 -9 l-34 -15 30 2
c17 1 32 5 35 9 3 4 12 3 19 -1 9 -6 0 -13 -30 -23 l-44 -15 -3 -66 c-2 -46 1
-67 9 -67 6 0 37 11 68 24 200 85 263 100 439 99 72 0 132 4 132 9 0 4 14 8
30 8 17 0 30 5 30 11 0 7 10 9 25 7 14 -3 30 0 35 7 6 7 23 12 38 10 30 -4 64
15 102 55 15 17 41 29 66 33 22 4 49 16 59 27 10 11 24 20 32 20 7 0 13 4 13
9 0 4 19 14 43 20 36 10 57 10 120 -3 87 -18 215 -21 267 -6 43 13 219 49 273
57 22 3 63 16 91 29 38 18 68 24 116 23 89 0 128 -16 167 -67 24 -32 33 -38
33 -25 0 34 -66 100 -125 124 -30 12 -55 26 -55 30 0 4 -16 10 -35 13 -20 4
-51 20 -69 37 -21 18 -40 27 -50 23 -19 -7 -21 -25 -3 -43 10 -10 7 -10 -15
-1 -18 8 -24 18 -21 28 4 10 2 13 -5 8 -6 -3 -29 0 -50 7 -25 9 -46 11 -56 5
-10 -6 -16 -5 -16 2 0 6 -4 9 -9 5 -5 -3 -16 2 -24 10 -9 8 -20 15 -25 15 -5
0 -9 7 -9 15 0 8 4 12 9 9 4 -3 8 0 8 5 0 12 27 10 48 -2 6 -5 12 -4 12 2 0 5
-6 12 -12 14 -8 3 -6 6 5 6 9 1 17 -5 17 -13 0 -12 18 -22 59 -31 8 -2 26 -12
40 -23 42 -30 61 -14 21 18 l-34 28 41 20 c22 12 68 43 101 69 109 87 332 222
460 279 l82 37 0 59 c0 32 -2 58 -5 58 -2 0 -24 -9 -47 -19 -24 -11 -83 -34
-133 -52 -49 -17 -101 -41 -115 -52 -28 -22 -28 -22 54 16 33 15 64 26 70 24
6 -2 17 2 24 10 7 7 18 13 25 13 6 0 2 -7 -9 -15 -14 -11 -16 -15 -4 -15 12 0
11 -3 -3 -11 -13 -8 -22 -7 -33 2 -12 10 -13 9 -9 -3 4 -10 -7 -20 -35 -33
-22 -10 -40 -23 -40 -28 0 -6 -3 -7 -6 -4 -4 4 -20 -3 -35 -14 -16 -11 -29
-16 -29 -10 0 6 5 11 10 11 6 0 10 4 10 10 0 17 -84 -36 -97 -61 -10 -19 -13
-20 -13 -6 0 10 -5 15 -10 12 -6 -4 -8 -10 -5 -15 3 -4 -13 -15 -34 -24 -22
-8 -42 -20 -46 -26 -3 -6 -11 -7 -17 -4 -6 4 -8 2 -4 -4 8 -14 -7 -23 -51 -28
-45 -6 -53 -11 -53 -34 0 -10 -7 -20 -15 -24 -10 -4 -14 1 -12 17 1 14 20 34
49 55 53 36 67 40 47 15 -13 -16 -12 -17 3 -4 10 7 15 18 12 23 -4 6 3 8 17 3
17 -4 20 -3 10 3 -14 10 5 23 114 81 22 12 30 19 17 15 -31 -8 -151 -76 -232
-131 -73 -50 -83 -59 -57 -50 11 4 16 3 12 -4 -4 -6 -19 -7 -35 -4 -23 5 -36
-1 -75 -35 -82 -71 -121 -92 -148 -79 -13 6 -31 25 -41 43 -33 62 -180 198
-269 250 -23 13 -80 38 -127 56 -98 36 -165 67 -305 144 -110 61 -182 89 -190
76 -3 -5 25 -33 62 -63 38 -30 77 -64 88 -77 l20 -22 -35 6 c-47 9 -172 70
-194 95 -15 16 -61 129 -86 212 -15 50 -42 97 -57 103 -9 4 -37 -5 -63 -18
-28 -14 -51 -21 -56 -16 -8 8 -117 40 -136 40 -5 0 -11 -7 -14 -15z m450 -363
c2 -4 -4 -8 -14 -8 -10 0 -16 4 -14 8 3 4 9 8 14 8 5 0 11 -4 14 -8z m36 -52
c0 -5 -4 -10 -10 -10 -5 0 -10 5 -10 10 0 6 5 10 10 10 6 0 10 -4 10 -10z
m238 -22 c-2 -6 -10 -14 -16 -16 -7 -2 -10 2 -6 12 7 18 28 22 22 4z m104 -12
c20 -11 28 -11 32 -3 2 7 5 4 5 -5 1 -11 6 -15 15 -12 8 3 17 0 21 -6 6 -9 9
-9 15 1 7 10 15 8 37 -7 15 -10 32 -17 36 -16 11 3 37 -24 37 -39 0 -7 6 -4
15 7 8 11 15 14 15 7 0 -7 7 -13 15 -13 8 0 15 -5 15 -11 0 -5 5 -7 12 -3 8 5
9 2 5 -10 -5 -14 -3 -17 8 -12 9 3 20 -3 27 -14 7 -11 19 -20 26 -20 7 0 25
-13 39 -30 13 -16 31 -30 39 -30 8 0 13 -6 12 -12 -2 -7 4 -12 14 -10 12 2 15
-3 11 -18 -3 -12 0 -20 7 -20 10 0 10 -3 0 -15 -11 -13 -10 -15 1 -10 16 6 66
-61 55 -72 -4 -4 -11 -2 -15 6 -6 10 -10 9 -14 -4 -4 -9 -3 -14 2 -11 5 3 15
-2 22 -11 8 -9 10 -14 4 -11 -5 3 -18 -5 -28 -18 -19 -26 -8 -34 13 -9 15 18
21 19 45 2 14 -11 15 -16 5 -22 -9 -5 -11 -4 -6 3 10 17 -13 15 -30 -3 -23
-23 -43 -18 -50 12 -7 25 -8 25 -22 7 -13 -18 -14 -18 -7 6 7 23 7 23 -9 7
-10 -9 -14 -22 -10 -29 4 -7 -1 -5 -12 4 -14 12 -24 14 -36 7 -15 -8 -17 -7
-11 8 4 10 11 21 17 25 6 4 7 10 3 15 -5 4 -12 1 -16 -6 -6 -9 -19 -12 -37 -8
-31 6 -54 0 -54 -14 0 -5 7 -9 16 -9 9 0 12 5 8 12 -5 8 -2 9 10 5 10 -4 22
-7 27 -7 5 0 9 -5 9 -11 0 -7 -9 -9 -22 -6 -22 6 -22 6 -4 -8 11 -8 15 -15 10
-15 -6 0 -14 4 -19 9 -6 5 -27 14 -47 21 -21 6 -41 16 -45 22 -4 7 -1 9 8 6 9
-4 14 2 14 17 0 18 -3 20 -17 11 -10 -6 -18 -16 -18 -22 0 -8 -11 -6 -35 4
-19 9 -35 20 -35 24 0 5 9 4 21 -2 24 -14 69 -5 69 13 0 6 -5 19 -11 27 -9 13
-10 13 -6 -2 3 -9 0 -22 -8 -28 -11 -9 -12 -7 -8 8 2 11 0 23 -6 26 -7 4 -11
-1 -11 -13 0 -21 0 -21 -47 2 -27 12 -54 27 -61 32 -30 23 -51 49 -45 54 12 9
15 33 3 26 -6 -4 -10 5 -10 21 0 24 2 25 17 13 15 -12 16 -12 10 4 -4 10 -2
17 5 17 6 0 8 3 5 6 -4 4 -18 -1 -31 -10 -30 -19 -36 -20 -36 -5 0 5 5 7 10 4
6 -3 10 -3 10 2 0 12 -16 35 -24 34 -37 -5 -57 1 -55 17 3 30 -1 42 -11 42 -6
0 -10 -6 -9 -12 4 -36 -1 -41 -22 -22 -16 14 -23 15 -26 7 -6 -18 -30 -16 -37
2 -3 8 -2 15 3 15 4 0 6 11 4 24 -3 13 0 27 6 30 6 4 9 2 6 -6 -8 -21 18 -50
38 -42 24 9 21 23 -3 17 -12 -3 -20 0 -20 6 0 7 5 9 10 6 6 -3 10 4 10 16 0
18 2 19 15 9 12 -10 15 -10 15 4 0 9 5 16 10 16 7 0 7 -6 0 -19 -11 -22 10
-51 37 -51 11 0 9 5 -8 18 l-22 19 26 7 c19 4 25 11 22 26 -5 24 1 25 37 6z
m-297 -6 c3 -6 -1 -7 -9 -4 -18 7 -21 14 -7 14 6 0 13 -4 16 -10z m90 -11 c-4
-5 -12 -9 -18 -8 -9 0 -8 2 1 6 6 2 9 10 6 15 -4 7 -2 8 5 4 6 -4 9 -12 6 -17z
m-80 -29 c3 -5 1 -10 -4 -10 -6 0 -11 5 -11 10 0 6 2 10 4 10 3 0 8 -4 11 -10z
m85 -29 c0 -5 -7 -11 -14 -14 -10 -4 -13 -1 -9 9 6 15 23 19 23 5z m1350 -35
c0 -2 -7 -7 -16 -10 -8 -3 -12 -2 -9 4 6 10 25 14 25 6z m-1246 -85 c3 -5 -9
-11 -27 -14 -36 -5 -42 -3 -32 12 8 13 52 15 59 2z m-12 -38 c10 -9 18 -20 18
-25 0 -11 -49 24 -50 35 0 12 12 8 32 -10z m893 -44 c-4 -6 -10 -8 -13 -5 -3
4 -19 -6 -36 -21 l-31 -28 29 33 c27 29 66 46 51 21z m-162 -116 c-7 -2 -21
-2 -30 0 -10 3 -4 5 12 5 17 0 24 -2 18 -5z m154 -9 c-3 -3 -12 -4 -19 -1 -8
3 -5 6 6 6 11 1 17 -2 13 -5z m-122 -49 c14 -11 15 -13 3 -9 -10 3 -18 0 -20
-9 -2 -9 -10 -12 -22 -8 -17 7 -17 8 -1 24 15 15 15 18 1 23 -9 3 -13 10 -10
16 3 5 11 2 17 -6 7 -9 21 -22 32 -31z m-926 -7 c79 -28 124 -53 191 -104 78
-59 83 -69 34 -60 -21 4 -43 12 -49 17 -24 24 -67 -4 -64 -43 0 -7 5 0 11 15
10 28 33 32 33 6 0 -8 8 -13 18 -13 9 1 17 -1 17 -6 0 -8 -46 -30 -64 -30 -17
0 -112 98 -170 175 -49 65 -56 81 -28 70 9 -4 41 -16 71 -27z m866 12 c-3 -5
-11 -10 -16 -10 -6 0 -7 5 -4 10 3 6 11 10 16 10 6 0 7 -4 4 -10z m-115 -34
c0 -2 -7 -6 -15 -10 -8 -3 -15 -1 -15 4 0 6 7 10 15 10 8 0 15 -2 15 -4z
m-176 -81 c11 -8 15 -15 9 -15 -19 0 -43 12 -43 21 0 13 12 11 34 -6z m-454
-137 c0 -6 -6 -5 -15 2 -8 7 -15 14 -15 16 0 2 7 1 15 -2 8 -4 15 -11 15 -16z
m40 -33 c5 3 11 1 14 -4 4 -5 -2 -8 -11 -6 -10 2 -22 4 -26 4 -5 1 -5 6 -1 13
6 9 9 9 12 0 2 -7 8 -10 12 -7z m-305 -15 c3 -5 -1 -10 -9 -10 -9 0 -16 -5
-16 -12 0 -6 -2 -9 -5 -6 -7 7 5 38 15 38 5 0 12 -4 15 -10z m45 -5 c19 -22 8
-25 -12 -3 -10 10 -14 18 -9 18 5 0 14 -7 21 -15z m277 -57 c-3 -8 -6 -5 -6 6
-1 11 2 17 5 13 3 -3 4 -12 1 -19z m-607 -48 c-8 -5 -19 -10 -25 -10 -5 0 -3
5 5 10 8 5 20 10 25 10 6 0 3 -5 -5 -10z"/>
<path d="M950 2655 c7 -8 9 -15 4 -15 -5 0 -3 -4 5 -9 9 -6 19 -5 26 2 10 9 9
14 -4 24 -9 7 -22 13 -30 13 -11 0 -11 -3 -1 -15z"/>
<path d="M944 2602 c4 -7 2 -19 -4 -27 -10 -12 -9 -15 3 -15 25 0 31 20 12 38
-10 10 -15 11 -11 4z"/>
<path d="M907 2571 c-4 -17 -3 -21 5 -13 5 5 8 16 6 23 -3 8 -7 3 -11 -10z"/>
<path d="M1120 2581 c0 -10 19 -25 25 -20 1 2 -3 10 -11 17 -8 7 -14 8 -14 3z"/>
<path d="M1035 2480 c-16 -7 -17 -9 -3 -9 9 -1 20 4 23 9 7 11 7 11 -20 0z"/>
<path d="M1016 2424 c-3 -9 -6 -17 -6 -19 0 -5 92 -55 102 -55 5 0 7 4 4 9 -3
4 3 16 14 26 11 10 20 23 20 29 0 6 -6 3 -13 -6 -9 -11 -18 -14 -28 -7 -20 13
-35 11 -21 -3 32 -32 -7 -30 -48 3 -22 17 -23 19 -5 17 11 -2 24 -7 28 -13 5
-6 7 -4 4 5 -2 8 -10 14 -16 13 -6 -2 -11 2 -11 7 0 16 -17 12 -24 -6z"/>
<path d="M1395 2410 c-3 -5 -1 -10 4 -10 6 0 11 5 11 10 0 6 -2 10 -4 10 -3 0
-8 -4 -11 -10z"/>
<path d="M1435 2350 c3 -5 8 -10 11 -10 2 0 4 5 4 10 0 6 -5 10 -11 10 -5 0
-7 -4 -4 -10z"/>
<path d="M1430 2291 c0 -6 4 -13 10 -16 6 -3 7 1 4 9 -7 18 -14 21 -14 7z"/>
<path d="M2120 2640 c-8 -5 -10 -10 -5 -10 6 0 17 5 25 10 8 5 11 10 5 10 -5
0 -17 -5 -25 -10z"/>
<path d="M200 1585 c0 -3 0 -125 -1 -272 l0 -268 42 0 42 0 -2 98 -2 98 58 -3
57 -3 56 -95 56 -95 47 -3 c26 -2 47 1 47 5 0 4 -27 53 -59 107 l-59 99 31 21
c70 47 95 141 58 214 -42 82 -90 102 -251 102 -66 0 -120 -2 -120 -5z m247
-90 c56 -13 66 -115 16 -155 -23 -18 -38 -20 -102 -18 l-76 3 -3 79 c-2 44 -1
84 1 90 4 11 116 11 164 1z"/>
<path d="M2123 1528 c-31 -10 -33 -14 -33 -54 0 -44 0 -44 -35 -44 -34 0 -35
-1 -35 -40 0 -39 1 -40 35 -40 l35 0 0 -115 c0 -164 22 -195 136 -195 l44 0 0
40 c0 40 0 40 -38 40 -21 0 -43 5 -50 12 -8 8 -12 48 -12 115 l0 103 50 0 50
0 0 40 0 40 -50 0 -50 0 0 55 c0 30 -3 55 -7 54 -5 -1 -23 -6 -40 -11z"/>
<path d="M749 1420 c-119 -63 -144 -219 -52 -321 74 -82 218 -88 306 -11 24
21 22 29 -15 52 l-31 19 -29 -25 c-50 -41 -144 -27 -182 28 -9 12 -16 26 -16
30 0 5 70 8 155 8 l155 0 0 47 c0 68 -33 129 -88 164 -38 24 -56 29 -106 29
-40 -1 -74 -7 -97 -20z m146 -66 c18 -8 40 -30 49 -47 l15 -32 -111 -3 c-61
-1 -113 -1 -115 2 -11 11 32 69 60 81 42 19 62 18 102 -1z"/>
<path d="M1215 1426 c-38 -17 -91 -73 -104 -109 -6 -16 -11 -51 -11 -79 0
-161 167 -259 295 -172 l35 23 0 -24 c0 -22 4 -25 40 -25 l40 0 0 195 0 195
-40 0 c-33 0 -40 -3 -40 -20 0 -26 -8 -25 -37 2 -30 28 -132 36 -178 14z m173
-100 c33 -31 37 -39 37 -84 0 -62 -26 -101 -80 -121 -32 -13 -43 -13 -78 0
-57 20 -82 58 -81 121 0 45 5 55 37 84 30 28 45 34 82 34 38 0 52 -6 83 -34z"/>
<path d="M1700 1418 c-117 -60 -144 -218 -54 -318 59 -65 163 -86 239 -48 23
12 85 69 85 78 0 4 -15 15 -34 25 l-34 18 -32 -26 c-48 -41 -111 -38 -156 7
-30 30 -34 40 -34 86 0 43 4 56 29 80 16 16 40 32 55 36 41 10 93 -4 115 -32
l19 -24 36 21 c20 11 36 24 36 28 0 12 -53 58 -87 75 -47 23 -130 21 -183 -6z"/>
<path d="M199 943 c0 -2 0 -36 -1 -75 l0 -73 30 -3 c43 -4 72 13 72 43 0 26
-37 58 -61 53 -7 -2 -15 5 -17 15 -3 14 3 17 32 17 52 0 44 17 -9 22 -25 2
-45 2 -46 1z m76 -93 c9 -15 -14 -40 -36 -40 -14 0 -19 7 -19 25 0 20 5 25 24
25 14 0 28 -5 31 -10z"/>
<path d="M1005 930 c-4 -6 8 -10 29 -10 20 0 36 5 36 10 0 6 -13 10 -29 10
-17 0 -33 -4 -36 -10z"/>
<path d="M499 896 c-49 -24 -30 -106 24 -106 29 0 51 15 43 29 -5 7 -13 7 -26
-2 -27 -16 -55 11 -45 43 6 19 12 21 42 17 23 -4 33 -2 31 5 -7 19 -44 27 -69
14z"/>
<path d="M1199 896 c-27 -13 -38 -68 -18 -92 21 -25 101 -12 85 15 -5 7 -12 7
-26 -1 -24 -15 -52 6 -48 36 3 18 9 21 41 19 25 -2 37 1 35 9 -7 19 -44 27
-69 14z"/>
<path d="M320 845 l0 -55 34 0 c61 0 79 60 21 70 -20 4 -30 11 -29 23 1 9 -4
17 -12 17 -10 0 -14 -15 -14 -55z m68 -17 c-7 -20 -48 -23 -48 -4 0 11 9 16
26 16 16 0 24 -5 22 -12z"/>
<path d="M428 845 c5 -71 22 -71 22 0 0 37 -4 55 -12 55 -9 0 -12 -16 -10 -55z"/>
<path d="M590 890 c0 -5 7 -10 15 -10 11 0 15 -12 15 -45 0 -33 4 -45 15 -45
11 0 15 12 15 45 0 33 4 45 15 45 8 0 15 5 15 10 0 6 -20 10 -45 10 -25 0 -45
-4 -45 -10z"/>
<path d="M700 818 c0 -50 4 -77 10 -73 6 3 10 16 10 29 0 19 4 21 34 18 28 -3
37 1 52 23 16 25 16 30 3 54 -12 22 -22 26 -62 27 l-47 2 0 -80z m85 27 c0
-23 -5 -31 -21 -33 -27 -4 -47 21 -39 48 5 16 14 20 33 18 23 -2 27 -8 27 -33z"/>
<path d="M838 845 c4 -52 5 -55 30 -55 38 0 54 14 50 41 -2 18 -10 25 -30 27
-20 2 -28 9 -28 23 0 10 -6 19 -12 19 -9 0 -12 -16 -10 -55z m62 -20 c0 -8 -9
-15 -20 -15 -11 0 -20 7 -20 15 0 8 9 15 20 15 11 0 20 -7 20 -15z"/>
<path d="M940 845 c0 -30 5 -55 10 -55 6 0 10 25 10 55 0 30 -4 55 -10 55 -5
0 -10 -25 -10 -55z"/>
<path d="M990 845 c0 -30 3 -55 8 -55 4 0 21 17 39 37 l32 38 -6 -37 c-5 -31
-3 -38 11 -38 13 0 16 11 16 55 0 65 -11 69 -51 23 l-28 -33 -1 33 c0 17 -4
32 -10 32 -5 0 -10 -25 -10 -55z"/>
<path d="M1280 890 c0 -5 9 -10 20 -10 17 0 20 -7 20 -45 0 -25 5 -45 10 -45
6 0 10 20 10 45 0 38 3 45 20 45 11 0 20 5 20 10 0 6 -22 10 -50 10 -27 0 -50
-4 -50 -10z"/>
<path d="M1402 888 c-7 -7 -12 -27 -12 -45 0 -39 20 -52 78 -51 l42 0 0 53 0
52 -48 1 c-27 1 -54 -4 -60 -10z m73 -43 c0 -25 -4 -30 -24 -30 -28 0 -47 25
-38 49 5 12 16 16 34 14 24 -3 28 -8 28 -33z"/>
<path d="M1532 821 c2 -45 7 -75 13 -73 6 2 9 14 8 27 -1 21 2 23 31 18 53 -8
83 37 56 87 -8 16 -21 19 -61 18 l-50 -1 3 -76z m89 43 c17 -21 0 -49 -32 -49
-24 0 -36 23 -25 51 7 19 40 18 57 -2z"/>
<path d="M1660 890 c0 -5 9 -10 20 -10 17 0 20 -7 20 -45 0 -25 5 -45 10 -45
6 0 10 20 10 45 0 38 3 45 20 45 11 0 20 5 20 10 0 6 -22 10 -50 10 -27 0 -50
-4 -50 -10z"/>
<path d="M199 639 c-14 -27 3 -69 28 -69 17 1 17 1 1 11 -11 6 -18 22 -18 39
0 19 6 30 18 33 16 4 16 5 0 6 -10 0 -22 -9 -29 -20z"/>
<path d="M765 650 c-3 -6 1 -7 9 -4 18 7 21 14 7 14 -6 0 -13 -4 -16 -10z"/>
<path d="M261 621 c-14 -25 -3 -53 18 -49 10 2 16 13 16 32 0 35 -20 45 -34
17z m29 -22 c0 -10 -4 -19 -10 -19 -5 0 -10 12 -10 26 0 14 4 23 10 19 6 -3
10 -15 10 -26z"/>
<path d="M326 629 c13 -22 14 -43 1 -52 -8 -6 -8 -7 3 -4 19 5 20 59 1 65 -10
3 -11 0 -5 -9z"/>
<path d="M376 628 c-17 -53 -15 -63 9 -63 14 0 25 5 25 12 0 7 -7 10 -15 7
-10 -4 -15 0 -15 15 0 12 6 21 16 21 8 0 12 5 9 10 -9 14 -25 13 -29 -2z"/>
<path d="M448 609 c3 -18 0 -29 -7 -29 -7 0 -9 5 -5 12 4 7 3 8 -5 4 -14 -9
-5 -26 15 -26 15 0 20 55 6 64 -5 3 -6 -8 -4 -25z"/>
<path d="M484 616 c-7 -30 1 -46 24 -45 15 1 15 2 0 6 -22 6 -24 23 -2 23 9 0
14 7 12 17 -5 27 -27 26 -34 -1z m26 4 c0 -5 -5 -10 -11 -10 -5 0 -7 5 -4 10
3 6 8 10 11 10 2 0 4 -4 4 -10z"/>
<path d="M644 629 c-5 -9 -2 -10 9 -6 10 3 17 2 17 -2 0 -5 -6 -12 -12 -14
-10 -4 -10 -6 0 -6 6 -1 12 -6 12 -12 0 -6 -7 -8 -16 -5 -8 3 -12 2 -9 -4 3
-6 13 -10 21 -10 11 0 14 9 12 32 -3 33 -21 47 -34 27z"/>
<path d="M704 626 c-8 -22 -1 -49 14 -52 7 -1 8 0 2 3 -14 6 -13 53 1 53 6 0
8 -7 4 -17 -5 -14 -3 -15 6 -6 12 12 5 33 -12 33 -5 0 -12 -6 -15 -14z"/>
<path d="M865 632 c-14 -9 -18 -62 -5 -62 6 0 10 14 10 32 0 36 15 28 23 -12
4 -17 5 -14 4 9 -2 35 -13 47 -32 33z"/>
<path d="M923 632 c-7 -5 -12 -25 -11 -47 1 -22 3 -34 6 -27 2 6 10 12 17 12
20 0 30 40 14 56 -8 7 -20 10 -26 6z m24 -36 c-4 -9 -11 -16 -17 -16 -11 0
-14 33 -3 44 11 10 26 -11 20 -28z"/>
<path d="M1047 633 c-11 -21 -17 -64 -7 -58 5 3 10 17 10 31 0 17 4 23 12 18
7 -4 8 -3 4 4 -8 14 -13 15 -19 5z"/>
<path d="M1094 626 c-9 -23 0 -51 16 -51 10 0 15 10 15 29 0 32 -21 47 -31 22z
m26 -21 c0 -14 -4 -25 -10 -25 -11 0 -14 33 -3 43 11 11 13 8 13 -18z"/>
<path d="M1224 626 c-8 -21 -1 -49 14 -52 7 -1 8 0 2 3 -14 6 -13 53 1 53 6 0
9 -7 5 -15 -3 -8 -1 -15 5 -15 14 0 7 32 -8 38 -7 2 -16 -3 -19 -12z"/>
<path d="M1399 638 c-1 -1 -2 -18 -4 -37 -2 -22 0 -29 6 -20 8 12 11 12 19 -1
8 -11 10 -7 8 19 -2 19 -9 36 -15 39 -7 2 -13 2 -14 0z m21 -24 c0 -8 -4 -12
-10 -9 -5 3 -10 10 -10 16 0 5 5 9 10 9 6 0 10 -7 10 -16z"/>
<path d="M542 600 c0 -19 2 -27 5 -17 2 9 2 25 0 35 -3 9 -5 1 -5 -18z"/>
<path d="M570 615 c-7 -9 -10 -18 -6 -22 3 -3 6 0 7 8 1 8 5 3 9 -11 8 -24 8
-23 9 8 1 36 -1 38 -19 17z"/>
<path d="M755 620 c-11 -18 6 -51 23 -48 19 4 28 36 14 50 -6 6 -8 0 -4 -18 4
-20 1 -25 -9 -22 -8 3 -13 15 -12 27 3 23 -2 27 -12 11z"/>
<path d="M1000 615 c0 -8 2 -15 4 -15 2 0 6 7 10 15 3 8 1 15 -4 15 -6 0 -10
-7 -10 -15z"/>
<path d="M1148 618 c8 -8 8 -17 1 -32 -9 -19 -9 -20 4 -3 17 20 28 22 23 5 -1
-7 -1 -9 2 -5 2 4 11 2 20 -5 13 -11 14 -10 5 7 -6 11 -9 26 -7 33 1 7 0 8 -3
2 -6 -13 -33 -13 -33 0 0 6 -5 10 -12 10 -9 0 -9 -3 0 -12z"/>
<path d="M1331 601 c-1 -24 2 -32 9 -25 7 7 7 19 1 35 -9 23 -10 22 -10 -10z"/>
<path d="M1361 614 c0 -11 3 -14 6 -6 3 7 2 16 -1 19 -3 4 -6 -2 -5 -13z"/>
<path d="M1062 590 c0 -14 2 -19 5 -12 2 6 2 18 0 25 -3 6 -5 1 -5 -13z"/>
<path d="M1276 594 c-5 -13 -4 -14 7 -6 8 7 17 9 20 5 4 -3 7 -1 7 5 0 18 -27
14 -34 -4z"/>
<path d="M977 593 c-4 -3 -7 -11 -7 -17 0 -6 5 -5 12 2 6 6 9 14 7 17 -3 3 -9
2 -12 -2z"/>
<path d="M200 324 c-6 -14 -10 -32 -10 -40 0 -16 16 -19 25 -3 4 5 32 21 62
35 31 13 54 27 51 29 -3 3 -18 -1 -34 -9 -25 -14 -30 -14 -44 -1 -24 22 -39
18 -50 -11z m48 -9 c-13 -10 -49 -25 -46 -18 3 4 8 16 12 27 5 15 9 16 21 6 9
-7 14 -14 13 -15z"/>
<path d="M1524 316 c-11 -29 1 -51 29 -54 15 -2 27 1 27 6 0 6 -9 8 -20 5 -23
-6 -39 22 -22 39 14 14 51 -7 61 -35 7 -20 8 -20 13 6 4 21 1 27 -13 27 -10 0
-21 5 -24 10 -9 15 -45 12 -51 -4z"/>
<path d="M1840 315 c-18 -21 -3 -55 25 -55 13 0 27 5 30 10 4 7 -2 9 -18 5
-14 -4 -28 -2 -32 5 -9 15 15 42 32 36 8 -3 11 -1 8 4 -9 14 -31 12 -45 -5z"/>
<path d="M265 298 c-51 -26 -51 -26 -38 -39 8 -8 22 -5 49 10 22 11 33 20 26
21 -7 0 -26 -7 -42 -15 -17 -9 -30 -13 -30 -10 0 4 20 15 45 26 25 11 45 22
45 24 0 9 -15 4 -55 -17z"/>
<path d="M2010 305 c-10 -12 -16 -13 -26 -4 -11 9 -18 8 -28 -1 -20 -16 -9
-40 18 -39 16 1 17 2 4 6 -10 2 -18 11 -18 19 0 21 10 17 42 -16 l29 -31 19
23 c11 13 19 17 20 11 0 -7 9 -13 20 -13 15 0 20 7 20 25 0 31 -29 34 -50 5
-8 -11 -22 -20 -32 -20 -19 0 -24 15 -8 25 6 3 10 1 10 -6 0 -10 3 -10 11 -2
11 11 5 33 -10 33 -5 0 -14 -7 -21 -15z m90 -20 c0 -8 -4 -15 -10 -15 -5 0
-10 7 -10 15 0 8 5 15 10 15 6 0 10 -7 10 -15z"/>
<path d="M1637 303 c-15 -14 -7 -43 12 -43 24 0 33 13 25 34 -6 16 -25 21 -37
9z m25 -18 c0 -5 -5 -11 -11 -13 -6 -2 -11 4 -11 13 0 9 5 15 11 13 6 -2 11
-8 11 -13z"/>
<path d="M1690 287 c0 -14 6 -24 15 -24 9 0 15 10 15 24 0 14 -6 23 -15 23 -9
0 -15 -9 -15 -23z"/>
<path d="M1737 303 c-3 -5 -1 -17 4 -28 7 -17 8 -17 8 8 1 27 -4 34 -12 20z"/>
<path d="M1766 293 c-4 -9 -2 -21 4 -27 7 -7 10 -2 10 17 0 31 -5 34 -14 10z"/>
<path d="M1908 285 c2 -14 8 -25 12 -25 4 0 10 11 12 25 4 19 1 25 -12 25 -13
0 -16 -6 -12 -25z"/>
<path d="M2130 285 c0 -23 3 -27 10 -15 9 13 11 13 20 0 7 -12 10 -8 10 15 0
23 -3 27 -10 15 -9 -13 -11 -13 -20 0 -7 12 -10 8 -10 -15z"/>
<path d="M2184 295 c-4 -9 -2 -21 4 -27 15 -15 44 -1 40 19 -4 23 -36 29 -44
8z m34 -13 c2 -7 -3 -12 -12 -12 -9 0 -16 7 -16 16 0 17 22 14 28 -4z"/>
<path d="M2240 286 c0 -19 5 -26 20 -26 15 0 19 6 16 23 -5 33 -36 35 -36 3z
m24 -1 c3 -8 1 -15 -4 -15 -6 0 -10 7 -10 15 0 8 2 15 4 15 2 0 6 -7 10 -15z"/>
</g>
</svg>
